<?xml version="1.0" encoding="UTF-8" standalone="no"?>
<!DOCTYPE svg PUBLIC "-//W3C//DTD SVG 1.1//EN"
 "http://www.w3.org/Graphics/SVG/1.1/DTD/svg11.dtd">
<!-- Generated by graphviz version 2.38.0 (20140413.2041)
 -->
<!-- Title: g Pages: 1 -->
<svg width="117pt" height="210pt"
 viewBox="0.00 0.00 117.38 209.84" xmlns="http://www.w3.org/2000/svg" xmlns:xlink="http://www.w3.org/1999/xlink">
<g id="graph0" class="graph" transform="scale(1 1) rotate(0) translate(4 205.844)">
<title>g</title>
<polygon fill="white" stroke="none" points="-4,4 -4,-205.844 113.383,-205.844 113.383,4 -4,4"/>
<!-- N45 -->
<g id="node1" class="node"><title>N45</title>
<path fill="#ffffff" stroke="#2e3436" stroke-width="1.5" d="M12,-165.344C12,-165.344 97.3828,-165.344 97.3828,-165.344 103.383,-165.344 109.383,-171.344 109.383,-177.344 109.383,-177.344 109.383,-189.344 109.383,-189.344 109.383,-195.344 103.383,-201.344 97.3828,-201.344 97.3828,-201.344 12,-201.344 12,-201.344 6,-201.344 0,-195.344 0,-189.344 0,-189.344 0,-177.344 0,-177.344 0,-171.344 6,-165.344 12,-165.344"/>
<text text-anchor="start" x="8" y="-181.944" font-family="FreeSans" font-size="8.00" fill="#1c2021">Node[45]name = &#39;Marie&#39;</text>
</g>
<!-- N47 -->
<g id="node2" class="node"><title>N47</title>
<path fill="#ffffff" stroke="#2e3436" stroke-width="1.5" d="M12.8945,-82.9219C12.8945,-82.9219 96.4883,-82.9219 96.4883,-82.9219 102.488,-82.9219 108.488,-88.9219 108.488,-94.9219 108.488,-94.9219 108.488,-106.922 108.488,-106.922 108.488,-112.922 102.488,-118.922 96.4883,-118.922 96.4883,-118.922 12.8945,-118.922 12.8945,-118.922 6.89453,-118.922 0.894531,-112.922 0.894531,-106.922 0.894531,-106.922 0.894531,-94.9219 0.894531,-94.9219 0.894531,-88.9219 6.89453,-82.9219 12.8945,-82.9219"/>
<text text-anchor="start" x="8.89453" y="-99.5219" font-family="FreeSans" font-size="8.00" fill="#1c2021">Node[47]name = &#39;Peter&#39;</text>
</g>
<!-- N45&#45;&gt;N47 -->
<g id="edge1" class="edge"><title>N45&#45;&gt;N47</title>
<path fill="none" stroke="#2e3436" stroke-width="2" d="M54.6914,-165.288C54.6914,-154.093 54.6914,-139.265 54.6914,-126.767"/>
<polygon fill="#2e3436" stroke="#2e3436" stroke-width="2" points="54.6914,-118.953 58.0665,-126.453 55.1915,-122.703 55.1915,-126.453 54.6915,-126.453 54.1915,-126.453 54.1915,-122.703 51.3165,-126.453 54.6914,-118.953 54.6914,-118.953"/>
<text text-anchor="middle" x="63.3906" y="-140.444" font-family="FreeSans" font-size="8.00" fill="#2e3436">likes</text>
</g>
<!-- N46 -->
<g id="node3" class="node"><title>N46</title>
<path fill="#ffffff" stroke="#2e3436" stroke-width="1.5" d="M16.832,-0.5C16.832,-0.5 92.5508,-0.5 92.5508,-0.5 98.5508,-0.5 104.551,-6.5 104.551,-12.5 104.551,-12.5 104.551,-24.5 104.551,-24.5 104.551,-30.5 98.5508,-36.5 92.5508,-36.5 92.5508,-36.5 16.832,-36.5 16.832,-36.5 10.832,-36.5 4.83203,-30.5 4.83203,-24.5 4.83203,-24.5 4.83203,-12.5 4.83203,-12.5 4.83203,-6.5 10.832,-0.5 16.832,-0.5"/>
<text text-anchor="start" x="12.832" y="-17.1" font-family="FreeSans" font-size="8.00" fill="#1c2021">Node[46]name = &#39;Ian&#39;</text>
</g>
<!-- N47&#45;&gt;N46 -->
<g id="edge3" class="edge"><title>N47&#45;&gt;N46</title>
<path fill="none" stroke="#4e9a06" stroke-width="2" d="M35.2127,-82.8666C30.4023,-77.4996 25.8969,-71.1898 23.3359,-64.4219 20.4496,-56.7941 23.015,-49.2362 27.7036,-42.5571"/>
<polygon fill="#4e9a06" stroke="#4e9a06" stroke-width="2" points="32.511,-36.6936 30.3658,-44.6333 30.5201,-39.9105 28.1425,-42.8105 27.7558,-42.4935 27.3691,-42.1764 29.7467,-39.2765 25.1458,-40.3536 32.511,-36.6936 32.511,-36.6936"/>
<text text-anchor="middle" x="35.8691" y="-58.0219" font-family="FreeSans" font-size="8.00" fill="#4e9a06">knows</text>
</g>
<!-- N46&#45;&gt;N47 -->
<g id="edge2" class="edge"><title>N46&#45;&gt;N47</title>
<path fill="none" stroke="#4e9a06" stroke-width="2" d="M54.6914,-36.5308C54.6914,-47.721 54.6914,-62.5483 54.6914,-75.0492"/>
<polygon fill="#4e9a06" stroke="#4e9a06" stroke-width="2" points="54.6914,-82.8665 51.3165,-75.3664 54.1915,-79.1165 54.1915,-75.3665 54.6915,-75.3665 55.1915,-75.3665 55.1915,-79.1165 58.0665,-75.3665 54.6914,-82.8665 54.6914,-82.8665"/>
<text text-anchor="middle" x="66.8691" y="-58.0219" font-family="FreeSans" font-size="8.00" fill="#4e9a06">knows</text>
</g>
</g>
</svg>
