<?xml version="1.0" encoding="UTF-8" standalone="no"?>
<!DOCTYPE svg PUBLIC "-//W3C//DTD SVG 1.1//EN"
 "http://www.w3.org/Graphics/SVG/1.1/DTD/svg11.dtd">
<!-- Generated by graphviz version 2.30.1 (20130318.1259)
 -->
<!-- Title: g Pages: 1 -->
<svg width="80pt" height="224pt"
 viewBox="0.00 0.00 80.00 224.00" xmlns="http://www.w3.org/2000/svg" xmlns:xlink="http://www.w3.org/1999/xlink">
<g id="graph0" class="graph" transform="scale(1 1) rotate(0) translate(4 220)">
<title>g</title>
<polygon fill="white" stroke="white" points="-4,5 -4,-220 77,-220 77,5 -4,5"/>
<!-- N40 -->
<g id="node1" class="node"><title>N40</title>
<path fill="#ffffff" stroke="#2e3436" stroke-width="1.5" d="M15.959,-176.694C15.959,-176.694 56.041,-176.694 56.041,-176.694 62.041,-176.694 68.041,-182.694 68.041,-188.694 68.041,-188.694 68.041,-203.306 68.041,-203.306 68.041,-209.306 62.041,-215.306 56.041,-215.306 56.041,-215.306 15.959,-215.306 15.959,-215.306 9.95898,-215.306 3.95898,-209.306 3.95898,-203.306 3.95898,-203.306 3.95898,-188.694 3.95898,-188.694 3.95898,-182.694 9.95898,-176.694 15.959,-176.694"/>
<text text-anchor="middle" x="36" y="-203.306" font-family="FreeSans" font-size="8.00" fill="#1c2021">Node[40]</text>
<polyline fill="none" stroke="#2e3436" stroke-width="1.5" points="3.95898,-196 68.041,-196 "/>
<text text-anchor="start" x="11.959" y="-184" font-family="FreeSans" font-size="8.00" fill="#1c2021">name = &#39;Ian&#39;</text>
</g>
<!-- N41 -->
<g id="node2" class="node"><title>N41</title>
<path fill="#ffffff" stroke="#2e3436" stroke-width="1.5" d="M12.002,-88.6937C12.002,-88.6937 59.998,-88.6937 59.998,-88.6937 65.998,-88.6937 71.998,-94.6937 71.998,-100.694 71.998,-100.694 71.998,-115.306 71.998,-115.306 71.998,-121.306 65.998,-127.306 59.998,-127.306 59.998,-127.306 12.002,-127.306 12.002,-127.306 6.00195,-127.306 0.00195312,-121.306 0.00195312,-115.306 0.00195312,-115.306 0.00195312,-100.694 0.00195312,-100.694 0.00195312,-94.6937 6.00195,-88.6937 12.002,-88.6937"/>
<text text-anchor="middle" x="36" y="-115.306" font-family="FreeSans" font-size="8.00" fill="#1c2021">Node[41]</text>
<polyline fill="none" stroke="#2e3436" stroke-width="1.5" points="0.00195312,-108 71.998,-108 "/>
<text text-anchor="start" x="8.00195" y="-96" font-family="FreeSans" font-size="8.00" fill="#1c2021">name = &#39;Peter&#39;</text>
</g>
<!-- N40&#45;&gt;N41 -->
<g id="edge1" class="edge"><title>N40&#45;&gt;N41</title>
<path fill="none" stroke="#2e3436" stroke-width="2" d="M16.529,-176.663C11.9258,-171.152 7.64798,-164.759 5.20312,-158 2.15922,-149.585 4.96075,-141.094 9.90888,-133.599"/>
<polygon fill="#2e3436" stroke="#2e3436" points="14.489,-127.561 12.6454,-135.576 12.6211,-130.851 10.3548,-133.839 9.9564,-133.537 9.55804,-133.235 11.8243,-130.247 7.26744,-131.497 14.489,-127.561 14.489,-127.561"/>
<text text-anchor="middle" x="18.3984" y="-149.653" font-family="FreeSans" font-size="8.00" fill="#2e3436">knows</text>
</g>
<!-- N41&#45;&gt;N40 -->
<g id="edge2" class="edge"><title>N41&#45;&gt;N40</title>
<path fill="none" stroke="#2e3436" stroke-width="2" d="M36,-127.329C36,-139.399 36,-155.388 36,-168.794"/>
<polygon fill="#2e3436" stroke="#2e3436" points="36,-176.339 32.6251,-168.839 35.5,-172.589 35.5001,-168.839 36.0001,-168.839 36.5001,-168.839 36.5,-172.589 39.3751,-168.839 36,-176.339 36,-176.339"/>
<text text-anchor="middle" x="48.3984" y="-149.653" font-family="FreeSans" font-size="8.00" fill="#2e3436">knows</text>
</g>
<!-- N42 -->
<g id="node3" class="node"><title>N42</title>
<path fill="#ffffff" stroke="#2e3436" stroke-width="1.5" d="M11.7402,-0.69375C11.7402,-0.69375 60.2598,-0.69375 60.2598,-0.69375 66.2598,-0.69375 72.2598,-6.69375 72.2598,-12.6938 72.2598,-12.6938 72.2598,-27.3063 72.2598,-27.3063 72.2598,-33.3062 66.2598,-39.3062 60.2598,-39.3062 60.2598,-39.3062 11.7402,-39.3062 11.7402,-39.3062 5.74023,-39.3062 -0.259766,-33.3062 -0.259766,-27.3062 -0.259766,-27.3062 -0.259766,-12.6937 -0.259766,-12.6937 -0.259766,-6.69375 5.74023,-0.69375 11.7402,-0.69375"/>
<text text-anchor="middle" x="36" y="-27.3062" font-family="FreeSans" font-size="8.00" fill="#1c2021">Node[42]</text>
<polyline fill="none" stroke="#2e3436" stroke-width="1.5" points="-0.259766,-20 72.2598,-20 "/>
<text text-anchor="start" x="7.74023" y="-8" font-family="FreeSans" font-size="8.00" fill="#1c2021">name = &#39;Bikes&#39;</text>
</g>
<!-- N41&#45;&gt;N42 -->
<g id="edge3" class="edge"><title>N41&#45;&gt;N42</title>
<path fill="none" stroke="#4e9a06" stroke-width="2" d="M36,-88.3393C36,-76.1982 36,-60.1972 36,-46.8392"/>
<polygon fill="#4e9a06" stroke="#4e9a06" points="36,-39.3289 39.3751,-46.8288 36.5,-43.0788 36.5001,-46.8288 36.0001,-46.8289 35.5001,-46.8289 35.5,-43.0789 32.6251,-46.8289 36,-39.3289 36,-39.3289"/>
<text text-anchor="middle" x="44.918" y="-61.6531" font-family="FreeSans" font-size="8.00" fill="#4e9a06">likes</text>
</g>
</g>
</svg>
