<?xml version="1.0" encoding="UTF-8" standalone="no"?>
<!DOCTYPE svg PUBLIC "-//W3C//DTD SVG 1.1//EN"
 "http://www.w3.org/Graphics/SVG/1.1/DTD/svg11.dtd">
<!-- Generated by graphviz version 2.30.1 (20130318.1259)
 -->
<!-- Title: g Pages: 1 -->
<svg width="385pt" height="400pt"
 viewBox="0.00 0.00 385.20 400.00" xmlns="http://www.w3.org/2000/svg" xmlns:xlink="http://www.w3.org/1999/xlink">
<g id="graph0" class="graph" transform="scale(1 1) rotate(0) translate(4 396)">
<title>g</title>
<polygon fill="white" stroke="white" points="-4,5 -4,-396 382.203,-396 382.203,5 -4,5"/>
<!-- N31 -->
<g id="node1" class="node"><title>N31</title>
<path fill="#ffffff" stroke="#2e3436" stroke-width="1.5" d="M11.0234,-264.694C11.0234,-264.694 70.9766,-264.694 70.9766,-264.694 76.9766,-264.694 82.9766,-270.694 82.9766,-276.694 82.9766,-276.694 82.9766,-291.306 82.9766,-291.306 82.9766,-297.306 76.9766,-303.306 70.9766,-303.306 70.9766,-303.306 11.0234,-303.306 11.0234,-303.306 5.02344,-303.306 -0.976562,-297.306 -0.976562,-291.306 -0.976562,-291.306 -0.976562,-276.694 -0.976562,-276.694 -0.976562,-270.694 5.02344,-264.694 11.0234,-264.694"/>
<text text-anchor="middle" x="41" y="-291.306" font-family="FreeSans" font-size="8.00" fill="#1c2021">Node[31]</text>
<polyline fill="none" stroke="#2e3436" stroke-width="1.5" points="-0.976562,-284 82.9766,-284 "/>
<text text-anchor="start" x="7.02344" y="-272" font-family="FreeSans" font-size="8.00" fill="#1c2021">name = &#39;U1G2R1&#39;</text>
</g>
<!-- N35 -->
<g id="node2" class="node"><title>N35</title>
<path fill="#ffffff" stroke="#2e3436" stroke-width="1.5" d="M25.9023,-88.6937C25.9023,-88.6937 76.0977,-88.6937 76.0977,-88.6937 82.0977,-88.6937 88.0977,-94.6937 88.0977,-100.694 88.0977,-100.694 88.0977,-115.306 88.0977,-115.306 88.0977,-121.306 82.0977,-127.306 76.0977,-127.306 76.0977,-127.306 25.9023,-127.306 25.9023,-127.306 19.9023,-127.306 13.9023,-121.306 13.9023,-115.306 13.9023,-115.306 13.9023,-100.694 13.9023,-100.694 13.9023,-94.6937 19.9023,-88.6937 25.9023,-88.6937"/>
<text text-anchor="middle" x="51" y="-115.306" font-family="FreeSans" font-size="8.00" fill="#1c2021">Node[35]</text>
<polyline fill="none" stroke="#2e3436" stroke-width="1.5" points="13.9023,-108 88.0977,-108 "/>
<text text-anchor="start" x="21.9023" y="-96" font-family="FreeSans" font-size="8.00" fill="#1c2021">name = &#39;Role1&#39;</text>
</g>
<!-- N31&#45;&gt;N35 -->
<g id="edge1" class="edge"><title>N31&#45;&gt;N35</title>
<path fill="none" stroke="#2e3436" stroke-width="2" d="M34.1963,-264.53C29.6757,-251.241 24.1535,-232.776 21.7969,-216 19.3238,-198.395 19.7071,-193.655 21.7969,-176 23.4087,-162.383 23.837,-158.703 29,-146 30.5828,-142.106 32.5322,-138.136 34.6107,-134.313"/>
<polygon fill="#2e3436" stroke="#2e3436" points="38.44,-127.636 37.6362,-135.821 37.008,-131.138 35.1422,-134.391 34.7085,-134.142 34.2748,-133.893 36.1405,-130.641 31.7809,-132.463 38.44,-127.636 38.44,-127.636"/>
<text text-anchor="middle" x="37.1016" y="-193.653" font-family="FreeSans" font-size="8.00" fill="#2e3436">hasRole</text>
</g>
<!-- N34 -->
<g id="node3" class="node"><title>N34</title>
<path fill="#ffffff" stroke="#2e3436" stroke-width="1.5" d="M78.2891,-176.694C78.2891,-176.694 135.711,-176.694 135.711,-176.694 141.711,-176.694 147.711,-182.694 147.711,-188.694 147.711,-188.694 147.711,-203.306 147.711,-203.306 147.711,-209.306 141.711,-215.306 135.711,-215.306 135.711,-215.306 78.2891,-215.306 78.2891,-215.306 72.2891,-215.306 66.2891,-209.306 66.2891,-203.306 66.2891,-203.306 66.2891,-188.694 66.2891,-188.694 66.2891,-182.694 72.2891,-176.694 78.2891,-176.694"/>
<text text-anchor="middle" x="107" y="-203.306" font-family="FreeSans" font-size="8.00" fill="#1c2021">Node[34]</text>
<polyline fill="none" stroke="#2e3436" stroke-width="1.5" points="66.2891,-196 147.711,-196 "/>
<text text-anchor="start" x="74.2891" y="-184" font-family="FreeSans" font-size="8.00" fill="#1c2021">name = &#39;Group2&#39;</text>
</g>
<!-- N31&#45;&gt;N34 -->
<g id="edge2" class="edge"><title>N31&#45;&gt;N34</title>
<path fill="none" stroke="#4e9a06" stroke-width="2" d="M55.321,-264.339C64.9869,-251.744 77.8407,-234.995 88.3108,-221.353"/>
<polygon fill="#4e9a06" stroke="#4e9a06" points="92.9337,-215.329 91.0449,-223.333 91.0472,-218.608 88.7641,-221.583 88.3675,-221.279 87.9708,-220.974 90.2539,-217.999 85.6901,-219.224 92.9337,-215.329 92.9337,-215.329"/>
<text text-anchor="middle" x="96.7148" y="-237.653" font-family="FreeSans" font-size="8.00" fill="#4e9a06">hasGroup</text>
</g>
<!-- N36 -->
<g id="node5" class="node"><title>N36</title>
<path fill="#ffffff" stroke="#2e3436" stroke-width="1.5" d="M190.432,-0.69375C190.432,-0.69375 235.568,-0.69375 235.568,-0.69375 241.568,-0.69375 247.568,-6.69375 247.568,-12.6938 247.568,-12.6938 247.568,-27.3063 247.568,-27.3063 247.568,-33.3062 241.568,-39.3062 235.568,-39.3062 235.568,-39.3062 190.432,-39.3062 190.432,-39.3062 184.432,-39.3062 178.432,-33.3062 178.432,-27.3062 178.432,-27.3062 178.432,-12.6937 178.432,-12.6937 178.432,-6.69375 184.432,-0.69375 190.432,-0.69375"/>
<text text-anchor="middle" x="213" y="-27.3062" font-family="FreeSans" font-size="8.00" fill="#1c2021">Node[36]</text>
<polyline fill="none" stroke="#2e3436" stroke-width="1.5" points="178.432,-20 247.568,-20 "/>
<text text-anchor="start" x="186.432" y="-8" font-family="FreeSans" font-size="8.00" fill="#1c2021">name = &#39;Role&#39;</text>
</g>
<!-- N35&#45;&gt;N36 -->
<g id="edge10" class="edge"><title>N35&#45;&gt;N36</title>
<path fill="none" stroke="#a40000" stroke-width="2" d="M85.7531,-88.5508C110.844,-75.2308 144.839,-57.1842 171.38,-43.0948"/>
<polygon fill="#a40000" stroke="#a40000" points="178.304,-39.4186 173.262,-45.9164 175.227,-41.6186 171.914,-43.377 171.68,-42.9354 171.446,-42.4937 174.758,-40.7354 170.097,-39.9544 178.304,-39.4186 178.304,-39.4186"/>
<text text-anchor="middle" x="147.955" y="-61.6531" font-family="FreeSans" font-size="8.00" fill="#a40000">isA</text>
</g>
<!-- N32 -->
<g id="node4" class="node"><title>N32</title>
<path fill="#ffffff" stroke="#2e3436" stroke-width="1.5" d="M294.902,-88.6937C294.902,-88.6937 345.098,-88.6937 345.098,-88.6937 351.098,-88.6937 357.098,-94.6937 357.098,-100.694 357.098,-100.694 357.098,-115.306 357.098,-115.306 357.098,-121.306 351.098,-127.306 345.098,-127.306 345.098,-127.306 294.902,-127.306 294.902,-127.306 288.902,-127.306 282.902,-121.306 282.902,-115.306 282.902,-115.306 282.902,-100.694 282.902,-100.694 282.902,-94.6937 288.902,-88.6937 294.902,-88.6937"/>
<text text-anchor="middle" x="320" y="-115.306" font-family="FreeSans" font-size="8.00" fill="#1c2021">Node[32]</text>
<polyline fill="none" stroke="#2e3436" stroke-width="1.5" points="282.902,-108 357.098,-108 "/>
<text text-anchor="start" x="290.902" y="-96" font-family="FreeSans" font-size="8.00" fill="#1c2021">name = &#39;Role2&#39;</text>
</g>
<!-- N34&#45;&gt;N32 -->
<g id="edge7" class="edge"><title>N34&#45;&gt;N32</title>
<path fill="none" stroke="#204a87" stroke-width="2" d="M146.086,-176.632C173.299,-163.884 205.875,-148.72 212.625,-146 233.057,-137.765 256.107,-129.671 275.598,-123.163"/>
<polygon fill="#204a87" stroke="#204a87" points="282.881,-120.749 276.823,-126.312 279.478,-122.404 275.919,-123.583 275.761,-123.109 275.604,-122.634 279.164,-121.454 274.7,-119.905 282.881,-120.749 282.881,-120.749"/>
<text text-anchor="middle" x="229.188" y="-149.653" font-family="FreeSans" font-size="8.00" fill="#204a87">canHave</text>
</g>
<!-- N34&#45;&gt;N35 -->
<g id="edge8" class="edge"><title>N34&#45;&gt;N35</title>
<path fill="none" stroke="#204a87" stroke-width="2" d="M66.2376,-181.852C55.3696,-176.276 44.9124,-168.551 38.625,-158 34.5154,-151.103 34.9244,-142.877 37.1469,-135.152"/>
<polygon fill="#204a87" stroke="#204a87" points="39.8738,-127.663 40.4791,-135.865 39.0606,-131.358 37.7776,-134.882 37.3078,-134.71 36.838,-134.539 38.121,-131.016 34.1365,-133.556 39.8738,-127.663 39.8738,-127.663"/>
<text text-anchor="middle" x="55.1875" y="-149.653" font-family="FreeSans" font-size="8.00" fill="#204a87">canHave</text>
</g>
<!-- N39 -->
<g id="node7" class="node"><title>N39</title>
<path fill="#ffffff" stroke="#2e3436" stroke-width="1.5" d="M169.818,-88.6937C169.818,-88.6937 222.182,-88.6937 222.182,-88.6937 228.182,-88.6937 234.182,-94.6937 234.182,-100.694 234.182,-100.694 234.182,-115.306 234.182,-115.306 234.182,-121.306 228.182,-127.306 222.182,-127.306 222.182,-127.306 169.818,-127.306 169.818,-127.306 163.818,-127.306 157.818,-121.306 157.818,-115.306 157.818,-115.306 157.818,-100.694 157.818,-100.694 157.818,-94.6937 163.818,-88.6937 169.818,-88.6937"/>
<text text-anchor="middle" x="196" y="-115.306" font-family="FreeSans" font-size="8.00" fill="#1c2021">Node[39]</text>
<polyline fill="none" stroke="#2e3436" stroke-width="1.5" points="157.818,-108 234.182,-108 "/>
<text text-anchor="start" x="165.818" y="-96" font-family="FreeSans" font-size="8.00" fill="#1c2021">name = &#39;Group&#39;</text>
</g>
<!-- N34&#45;&gt;N39 -->
<g id="edge9" class="edge"><title>N34&#45;&gt;N39</title>
<path fill="none" stroke="#a40000" stroke-width="2" d="M101.301,-176.338C99.4619,-166.529 99.1978,-154.759 105.09,-146 115.326,-130.783 133.023,-121.821 150.099,-116.544"/>
<polygon fill="#a40000" stroke="#a40000" points="157.355,-114.501 151.051,-119.783 153.881,-115.999 150.272,-117.015 150.136,-116.534 150.001,-116.053 153.61,-115.036 149.221,-113.285 157.355,-114.501 157.355,-114.501"/>
<text text-anchor="middle" x="111.955" y="-149.653" font-family="FreeSans" font-size="8.00" fill="#a40000">isA</text>
</g>
<!-- N32&#45;&gt;N36 -->
<g id="edge3" class="edge"><title>N32&#45;&gt;N36</title>
<path fill="none" stroke="#a40000" stroke-width="2" d="M297.046,-88.5508C280.967,-75.6276 259.352,-58.2551 242.069,-44.3642"/>
<polygon fill="#a40000" stroke="#a40000" points="235.916,-39.4186 243.876,-41.4866 239.152,-41.3782 242.075,-43.7275 241.762,-44.1172 241.449,-44.5069 238.526,-42.1577 239.648,-46.7478 235.916,-39.4186 235.916,-39.4186"/>
<text text-anchor="middle" x="278.955" y="-61.6531" font-family="FreeSans" font-size="8.00" fill="#a40000">isA</text>
</g>
<!-- N33 -->
<g id="node6" class="node"><title>N33</title>
<path fill="#ffffff" stroke="#2e3436" stroke-width="1.5" d="M255.289,-176.694C255.289,-176.694 312.711,-176.694 312.711,-176.694 318.711,-176.694 324.711,-182.694 324.711,-188.694 324.711,-188.694 324.711,-203.306 324.711,-203.306 324.711,-209.306 318.711,-215.306 312.711,-215.306 312.711,-215.306 255.289,-215.306 255.289,-215.306 249.289,-215.306 243.289,-209.306 243.289,-203.306 243.289,-203.306 243.289,-188.694 243.289,-188.694 243.289,-182.694 249.289,-176.694 255.289,-176.694"/>
<text text-anchor="middle" x="284" y="-203.306" font-family="FreeSans" font-size="8.00" fill="#1c2021">Node[33]</text>
<polyline fill="none" stroke="#2e3436" stroke-width="1.5" points="243.289,-196 324.711,-196 "/>
<text text-anchor="start" x="251.289" y="-184" font-family="FreeSans" font-size="8.00" fill="#1c2021">name = &#39;Group1&#39;</text>
</g>
<!-- N33&#45;&gt;N35 -->
<g id="edge4" class="edge"><title>N33&#45;&gt;N35</title>
<path fill="none" stroke="#204a87" stroke-width="2" d="M243.046,-186.049C215.839,-179.56 179.566,-169.859 148.625,-158 128.928,-150.451 107.916,-140.211 90.4516,-131.044"/>
<polygon fill="#204a87" stroke="#204a87" points="83.6955,-127.459 91.9025,-127.993 87.2423,-128.775 90.5549,-130.533 90.3205,-130.974 90.0861,-131.416 86.7736,-129.658 88.7385,-133.956 83.6955,-127.459 83.6955,-127.459"/>
<text text-anchor="middle" x="165.188" y="-149.653" font-family="FreeSans" font-size="8.00" fill="#204a87">canHave</text>
</g>
<!-- N33&#45;&gt;N32 -->
<g id="edge5" class="edge"><title>N33&#45;&gt;N32</title>
<path fill="none" stroke="#204a87" stroke-width="2" d="M291.811,-176.339C296.941,-164.085 303.717,-147.898 309.34,-134.465"/>
<polygon fill="#204a87" stroke="#204a87" points="312.327,-127.329 312.545,-135.55 311.341,-130.981 309.893,-134.44 309.431,-134.247 308.97,-134.054 310.418,-130.595 306.318,-132.944 312.327,-127.329 312.327,-127.329"/>
<text text-anchor="middle" x="321.188" y="-149.653" font-family="FreeSans" font-size="8.00" fill="#204a87">canHave</text>
</g>
<!-- N33&#45;&gt;N39 -->
<g id="edge6" class="edge"><title>N33&#45;&gt;N39</title>
<path fill="none" stroke="#a40000" stroke-width="2" d="M274.337,-176.477C268.67,-166.708 260.885,-154.932 252,-146 246.991,-140.964 241.193,-136.229 235.265,-131.937"/>
<polygon fill="#a40000" stroke="#a40000" points="228.813,-127.459 236.899,-128.962 232.179,-129.186 235.26,-131.324 234.975,-131.735 234.69,-132.146 231.609,-130.008 233.05,-134.508 228.813,-127.459 228.813,-127.459"/>
<text text-anchor="middle" x="267.955" y="-149.653" font-family="FreeSans" font-size="8.00" fill="#a40000">isA</text>
</g>
<!-- N37 -->
<g id="node8" class="node"><title>N37</title>
<path fill="#ffffff" stroke="#2e3436" stroke-width="1.5" d="M147.598,-352.694C147.598,-352.694 198.402,-352.694 198.402,-352.694 204.402,-352.694 210.402,-358.694 210.402,-364.694 210.402,-364.694 210.402,-379.306 210.402,-379.306 210.402,-385.306 204.402,-391.306 198.402,-391.306 198.402,-391.306 147.598,-391.306 147.598,-391.306 141.598,-391.306 135.598,-385.306 135.598,-379.306 135.598,-379.306 135.598,-364.694 135.598,-364.694 135.598,-358.694 141.598,-352.694 147.598,-352.694"/>
<text text-anchor="middle" x="173" y="-379.306" font-family="FreeSans" font-size="8.00" fill="#1c2021">Node[37]</text>
<polyline fill="none" stroke="#2e3436" stroke-width="1.5" points="135.598,-372 210.402,-372 "/>
<text text-anchor="start" x="143.598" y="-360" font-family="FreeSans" font-size="8.00" fill="#1c2021">name = &#39;User1&#39;</text>
</g>
<!-- N37&#45;&gt;N33 -->
<g id="edge11" class="edge"><title>N37&#45;&gt;N33</title>
<path fill="none" stroke="#8f5902" stroke-width="2" d="M179.043,-352.627C186.788,-330.513 201.537,-292.768 220.723,-264 231.192,-248.301 245.445,-232.847 257.774,-220.744"/>
<polygon fill="#8f5902" stroke="#8f5902" points="263.282,-215.43 260.227,-223.067 260.93,-218.394 258.231,-220.997 257.884,-220.638 257.537,-220.278 260.236,-217.674 255.541,-218.209 263.282,-215.43 263.282,-215.43"/>
<text text-anchor="middle" x="224.639" y="-281.653" font-family="FreeSans" font-size="8.00" fill="#8f5902">in</text>
</g>
<!-- N37&#45;&gt;N34 -->
<g id="edge12" class="edge"><title>N37&#45;&gt;N34</title>
<path fill="none" stroke="#8f5902" stroke-width="2" d="M166.24,-352.322C156.631,-325.892 138.368,-276.106 122,-234 120.561,-230.299 119.016,-226.402 117.483,-222.582"/>
<polygon fill="#8f5902" stroke="#8f5902" points="114.582,-215.402 120.521,-221.092 116.45,-218.692 117.855,-222.169 117.391,-222.356 116.928,-222.543 115.523,-219.066 114.262,-223.62 114.582,-215.402 114.582,-215.402"/>
<text text-anchor="middle" x="151.639" y="-281.653" font-family="FreeSans" font-size="8.00" fill="#8f5902">in</text>
</g>
<!-- N37&#45;&gt;N31 -->
<g id="edge13" class="edge"><title>N37&#45;&gt;N31</title>
<path fill="none" stroke="#5c3566" stroke-width="2" d="M135.494,-367.695C110.417,-363.601 78.3313,-354.449 57.5586,-334 51.2874,-327.827 47.391,-319.199 44.9702,-310.901"/>
<polygon fill="#5c3566" stroke="#5c3566" points="43.1361,-303.453 48.2065,-309.928 44.5182,-306.974 45.4149,-310.615 44.9294,-310.735 44.4439,-310.855 43.5472,-307.213 41.6523,-311.542 43.1361,-303.453 43.1361,-303.453"/>
<text text-anchor="middle" x="88.7207" y="-325.653" font-family="FreeSans" font-size="8.00" fill="#5c3566">hasRoleInGroup</text>
</g>
<!-- N38 -->
<g id="node9" class="node"><title>N38</title>
<path fill="#ffffff" stroke="#2e3436" stroke-width="1.5" d="M254.023,-264.694C254.023,-264.694 313.977,-264.694 313.977,-264.694 319.977,-264.694 325.977,-270.694 325.977,-276.694 325.977,-276.694 325.977,-291.306 325.977,-291.306 325.977,-297.306 319.977,-303.306 313.977,-303.306 313.977,-303.306 254.023,-303.306 254.023,-303.306 248.023,-303.306 242.023,-297.306 242.023,-291.306 242.023,-291.306 242.023,-276.694 242.023,-276.694 242.023,-270.694 248.023,-264.694 254.023,-264.694"/>
<text text-anchor="middle" x="284" y="-291.306" font-family="FreeSans" font-size="8.00" fill="#1c2021">Node[38]</text>
<polyline fill="none" stroke="#2e3436" stroke-width="1.5" points="242.023,-284 325.977,-284 "/>
<text text-anchor="start" x="250.023" y="-272" font-family="FreeSans" font-size="8.00" fill="#1c2021">name = &#39;U1G1R2&#39;</text>
</g>
<!-- N37&#45;&gt;N38 -->
<g id="edge14" class="edge"><title>N37&#45;&gt;N38</title>
<path fill="none" stroke="#5c3566" stroke-width="2" d="M201.745,-352.658C210.349,-346.904 219.698,-340.384 228,-334 238.347,-326.044 249.249,-316.736 258.656,-308.382"/>
<polygon fill="#5c3566" stroke="#5c3566" points="264.302,-303.325 260.968,-310.843 261.843,-306.199 259.049,-308.701 258.716,-308.329 258.382,-307.956 261.175,-305.454 256.464,-305.815 264.302,-303.325 264.302,-303.325"/>
<text text-anchor="middle" x="273.721" y="-325.653" font-family="FreeSans" font-size="8.00" fill="#5c3566">hasRoleInGroup</text>
</g>
<!-- N38&#45;&gt;N32 -->
<g id="edge15" class="edge"><title>N38&#45;&gt;N32</title>
<path fill="none" stroke="#2e3436" stroke-width="2" d="M310.379,-264.633C316.795,-259.208 323.187,-252.864 328,-246 336.153,-234.372 335.919,-229.863 339,-216 345.768,-185.553 352.851,-175.908 344,-146 342.805,-141.962 341.016,-137.951 338.943,-134.142"/>
<polygon fill="#2e3436" stroke="#2e3436" points="334.972,-127.542 341.73,-132.229 337.333,-130.498 339.267,-133.711 338.838,-133.969 338.41,-134.226 336.477,-131.013 335.946,-135.709 334.972,-127.542 334.972,-127.542"/>
<text text-anchor="middle" x="362.102" y="-193.653" font-family="FreeSans" font-size="8.00" fill="#2e3436">hasRole</text>
</g>
<!-- N38&#45;&gt;N33 -->
<g id="edge16" class="edge"><title>N38&#45;&gt;N33</title>
<path fill="none" stroke="#4e9a06" stroke-width="2" d="M284,-264.339C284,-252.198 284,-236.197 284,-222.839"/>
<polygon fill="#4e9a06" stroke="#4e9a06" points="284,-215.329 287.375,-222.829 284.5,-219.079 284.5,-222.829 284,-222.829 283.5,-222.829 283.5,-219.079 280.625,-222.829 284,-215.329 284,-215.329"/>
<text text-anchor="middle" x="302.715" y="-237.653" font-family="FreeSans" font-size="8.00" fill="#4e9a06">hasGroup</text>
</g>
</g>
</svg>
