<?xml version="1.0" encoding="UTF-8" standalone="no"?>
<!DOCTYPE svg PUBLIC "-//W3C//DTD SVG 1.1//EN"
 "http://www.w3.org/Graphics/SVG/1.1/DTD/svg11.dtd">
<!-- Generated by graphviz version 2.38.0 (20140413.2041)
 -->
<!-- Title: g Pages: 1 -->
<svg width="241pt" height="127pt"
 viewBox="0.00 0.00 241.40 127.42" xmlns="http://www.w3.org/2000/svg" xmlns:xlink="http://www.w3.org/1999/xlink">
<g id="graph0" class="graph" transform="scale(1 1) rotate(0) translate(4 123.422)">
<title>g</title>
<polygon fill="white" stroke="none" points="-4,4 -4,-123.422 237.4,-123.422 237.4,4 -4,4"/>
<!-- N14 -->
<g id="node1" class="node"><title>N14</title>
<path fill="#ffffff" stroke="#2e3436" stroke-width="1.5" d="M12,-0.5C12,-0.5 90.0234,-0.5 90.0234,-0.5 96.0234,-0.5 102.023,-6.5 102.023,-12.5 102.023,-12.5 102.023,-24.5 102.023,-24.5 102.023,-30.5 96.0234,-36.5 90.0234,-36.5 90.0234,-36.5 12,-36.5 12,-36.5 6,-36.5 0,-30.5 0,-24.5 0,-24.5 0,-12.5 0,-12.5 0,-6.5 6,-0.5 12,-0.5"/>
<text text-anchor="start" x="8" y="-17.1" font-family="FreeSans" font-size="8.00" fill="#1c2021">Node[14]name = &#39;you&#39;</text>
</g>
<!-- N15 -->
<g id="node2" class="node"><title>N15</title>
<path fill="#ffffff" stroke="#2e3436" stroke-width="1.5" d="M142.623,-0.5C142.623,-0.5 221.4,-0.5 221.4,-0.5 227.4,-0.5 233.4,-6.5 233.4,-12.5 233.4,-12.5 233.4,-24.5 233.4,-24.5 233.4,-30.5 227.4,-36.5 221.4,-36.5 221.4,-36.5 142.623,-36.5 142.623,-36.5 136.623,-36.5 130.623,-30.5 130.623,-24.5 130.623,-24.5 130.623,-12.5 130.623,-12.5 130.623,-6.5 136.623,-0.5 142.623,-0.5"/>
<text text-anchor="start" x="138.623" y="-17.1" font-family="FreeSans" font-size="8.00" fill="#1c2021">Node[15]name = &#39;him&#39;</text>
</g>
<!-- N16 -->
<g id="node3" class="node"><title>N16</title>
<path fill="#ffffff" stroke="#2e3436" stroke-width="1.5" d="M82.8438,-82.9219C82.8438,-82.9219 149.18,-82.9219 149.18,-82.9219 155.18,-82.9219 161.18,-88.9219 161.18,-94.9219 161.18,-94.9219 161.18,-106.922 161.18,-106.922 161.18,-112.922 155.18,-118.922 149.18,-118.922 149.18,-118.922 82.8438,-118.922 82.8438,-118.922 76.8438,-118.922 70.8438,-112.922 70.8438,-106.922 70.8438,-106.922 70.8438,-94.9219 70.8438,-94.9219 70.8438,-88.9219 76.8438,-82.9219 82.8438,-82.9219"/>
<text text-anchor="start" x="78.8438" y="-99.5219" font-family="FreeSans" font-size="8.00" fill="#1c2021">Node[16]name = &#39;I&#39;</text>
</g>
<!-- N16&#45;&gt;N14 -->
<g id="edge1" class="edge"><title>N16&#45;&gt;N14</title>
<path fill="none" stroke="#2e3436" stroke-width="2" d="M102.227,-82.8665C92.7474,-71.1378 80.0454,-55.4222 69.6629,-42.5764"/>
<polygon fill="#2e3436" stroke="#2e3436" stroke-width="2" points="64.7767,-36.5308 72.116,-40.2423 67.5228,-39.133 69.88,-42.0496 69.4912,-42.3639 69.1023,-42.6782 66.7451,-39.7616 66.8663,-44.4854 64.7767,-36.5308 64.7767,-36.5308"/>
<text text-anchor="middle" x="96.3398" y="-58.0219" font-family="FreeSans" font-size="8.00" fill="#2e3436">know</text>
</g>
<!-- N16&#45;&gt;N15 -->
<g id="edge2" class="edge"><title>N16&#45;&gt;N15</title>
<path fill="none" stroke="#2e3436" stroke-width="2" d="M130.009,-82.8665C139.634,-71.1378 152.531,-55.4222 163.074,-42.5764"/>
<polygon fill="#2e3436" stroke="#2e3436" stroke-width="2" points="168.035,-36.5308 165.886,-44.4695 166.043,-39.7468 163.664,-42.6456 163.277,-42.3284 162.891,-42.0112 165.27,-39.1124 160.668,-40.1874 168.035,-36.5308 168.035,-36.5308"/>
<text text-anchor="middle" x="161.34" y="-58.0219" font-family="FreeSans" font-size="8.00" fill="#2e3436">know</text>
</g>
</g>
</svg>
