<?xml version="1.0" encoding="UTF-8" standalone="no"?>
<!DOCTYPE svg PUBLIC "-//W3C//DTD SVG 1.1//EN"
 "http://www.w3.org/Graphics/SVG/1.1/DTD/svg11.dtd">
<!-- Generated by graphviz version 2.38.0 (20140413.2041)
 -->
<!-- Title: g Pages: 1 -->
<svg width="382pt" height="45pt"
 viewBox="0.00 0.00 381.72 45.00" xmlns="http://www.w3.org/2000/svg" xmlns:xlink="http://www.w3.org/1999/xlink">
<g id="graph0" class="graph" transform="scale(1 1) rotate(0) translate(4 41)">
<title>g</title>
<polygon fill="white" stroke="none" points="-4,4 -4,-41 377.719,-41 377.719,4 -4,4"/>
<!-- N42 -->
<g id="node1" class="node"><title>N42</title>
<path fill="#ffffff" stroke="#2e3436" stroke-width="1.5" d="M12,-0.5C12,-0.5 87.7188,-0.5 87.7188,-0.5 93.7188,-0.5 99.7188,-6.5 99.7188,-12.5 99.7188,-12.5 99.7188,-24.5 99.7188,-24.5 99.7188,-30.5 93.7188,-36.5 87.7188,-36.5 87.7188,-36.5 12,-36.5 12,-36.5 6,-36.5 0,-30.5 0,-24.5 0,-24.5 0,-12.5 0,-12.5 0,-6.5 6,-0.5 12,-0.5"/>
<text text-anchor="start" x="8" y="-17.1" font-family="FreeSans" font-size="8.00" fill="#1c2021">Node[42]name = &#39;Ian&#39;</text>
</g>
<!-- N43 -->
<g id="node2" class="node"><title>N43</title>
<path fill="#ffffff" stroke="#2e3436" stroke-width="1.5" d="M141.062,-0.5C141.062,-0.5 224.656,-0.5 224.656,-0.5 230.656,-0.5 236.656,-6.5 236.656,-12.5 236.656,-12.5 236.656,-24.5 236.656,-24.5 236.656,-30.5 230.656,-36.5 224.656,-36.5 224.656,-36.5 141.062,-36.5 141.062,-36.5 135.062,-36.5 129.062,-30.5 129.062,-24.5 129.062,-24.5 129.062,-12.5 129.062,-12.5 129.062,-6.5 135.062,-0.5 141.062,-0.5"/>
<text text-anchor="start" x="137.062" y="-17.1" font-family="FreeSans" font-size="8.00" fill="#1c2021">Node[43]name = &#39;Peter&#39;</text>
</g>
<!-- N44 -->
<g id="node3" class="node"><title>N44</title>
<path fill="#ffffff" stroke="#2e3436" stroke-width="1.5" d="M278,-0.5C278,-0.5 361.719,-0.5 361.719,-0.5 367.719,-0.5 373.719,-6.5 373.719,-12.5 373.719,-12.5 373.719,-24.5 373.719,-24.5 373.719,-30.5 367.719,-36.5 361.719,-36.5 361.719,-36.5 278,-36.5 278,-36.5 272,-36.5 266,-30.5 266,-24.5 266,-24.5 266,-12.5 266,-12.5 266,-6.5 272,-0.5 278,-0.5"/>
<text text-anchor="start" x="274" y="-17.1" font-family="FreeSans" font-size="8.00" fill="#1c2021">Node[44]name = &#39;Bikes&#39;</text>
</g>
</g>
</svg>
