<?xml version="1.0" encoding="UTF-8" standalone="no"?>
<!DOCTYPE svg PUBLIC "-//W3C//DTD SVG 1.1//EN"
 "http://www.w3.org/Graphics/SVG/1.1/DTD/svg11.dtd">
<!-- Generated by graphviz version 2.30.1 (20130318.1259)
 -->
<!-- Title: g Pages: 1 -->
<svg width="175pt" height="224pt"
 viewBox="0.00 0.00 175.00 224.00" xmlns="http://www.w3.org/2000/svg" xmlns:xlink="http://www.w3.org/1999/xlink">
<g id="graph0" class="graph" transform="scale(1 1) rotate(0) translate(4 220)">
<title>g</title>
<polygon fill="white" stroke="white" points="-4,5 -4,-220 172,-220 172,5 -4,5"/>
<!-- N21 -->
<g id="node1" class="node"><title>N21</title>
<path fill="#ffffff" stroke="#2e3436" stroke-width="1.5" d="M112.01,-0.69375C112.01,-0.69375 155.99,-0.69375 155.99,-0.69375 161.99,-0.69375 167.99,-6.69375 167.99,-12.6938 167.99,-12.6938 167.99,-27.3063 167.99,-27.3063 167.99,-33.3062 161.99,-39.3062 155.99,-39.3062 155.99,-39.3062 112.01,-39.3062 112.01,-39.3062 106.01,-39.3062 100.01,-33.3062 100.01,-27.3062 100.01,-27.3062 100.01,-12.6937 100.01,-12.6937 100.01,-6.69375 106.01,-0.69375 112.01,-0.69375"/>
<text text-anchor="middle" x="134" y="-27.3062" font-family="FreeSans" font-size="8.00" fill="#1c2021">Node[21]</text>
<polyline fill="none" stroke="#2e3436" stroke-width="1.5" points="100.01,-20 167.99,-20 "/>
<text text-anchor="start" x="108.01" y="-8" font-family="FreeSans" font-size="8.00" fill="#1c2021">name = &#39;cats&#39;</text>
</g>
<!-- N22 -->
<g id="node2" class="node"><title>N22</title>
<path fill="#ffffff" stroke="#2e3436" stroke-width="1.5" d="M11.2949,-0.69375C11.2949,-0.69375 58.7051,-0.69375 58.7051,-0.69375 64.7051,-0.69375 70.7051,-6.69375 70.7051,-12.6938 70.7051,-12.6938 70.7051,-27.3063 70.7051,-27.3063 70.7051,-33.3062 64.7051,-39.3062 58.7051,-39.3062 58.7051,-39.3062 11.2949,-39.3062 11.2949,-39.3062 5.29492,-39.3062 -0.705078,-33.3062 -0.705078,-27.3062 -0.705078,-27.3062 -0.705078,-12.6937 -0.705078,-12.6937 -0.705078,-6.69375 5.29492,-0.69375 11.2949,-0.69375"/>
<text text-anchor="middle" x="35" y="-27.3062" font-family="FreeSans" font-size="8.00" fill="#1c2021">Node[22]</text>
<polyline fill="none" stroke="#2e3436" stroke-width="1.5" points="-0.705078,-20 70.7051,-20 "/>
<text text-anchor="start" x="7.29492" y="-8" font-family="FreeSans" font-size="8.00" fill="#1c2021">name = &#39;dogs&#39;</text>
</g>
<!-- N23 -->
<g id="node3" class="node"><title>N23</title>
<path fill="#ffffff" stroke="#2e3436" stroke-width="1.5" d="M85.6504,-176.694C85.6504,-176.694 116.35,-176.694 116.35,-176.694 122.35,-176.694 128.35,-182.694 128.35,-188.694 128.35,-188.694 128.35,-203.306 128.35,-203.306 128.35,-209.306 122.35,-215.306 116.35,-215.306 116.35,-215.306 85.6504,-215.306 85.6504,-215.306 79.6504,-215.306 73.6504,-209.306 73.6504,-203.306 73.6504,-203.306 73.6504,-188.694 73.6504,-188.694 73.6504,-182.694 79.6504,-176.694 85.6504,-176.694"/>
<text text-anchor="middle" x="101" y="-203.306" font-family="FreeSans" font-size="8.00" fill="#1c2021">Node[23]</text>
<polyline fill="none" stroke="#2e3436" stroke-width="1.5" points="73.6504,-196 128.35,-196 "/>
<text text-anchor="start" x="81.6504" y="-184" font-family="FreeSans" font-size="8.00" fill="#1c2021">name = &#39;I&#39;</text>
</g>
<!-- N24 -->
<g id="node4" class="node"><title>N24</title>
<path fill="#ffffff" stroke="#2e3436" stroke-width="1.5" d="M23.873,-88.6937C23.873,-88.6937 64.127,-88.6937 64.127,-88.6937 70.127,-88.6937 76.127,-94.6937 76.127,-100.694 76.127,-100.694 76.127,-115.306 76.127,-115.306 76.127,-121.306 70.127,-127.306 64.127,-127.306 64.127,-127.306 23.873,-127.306 23.873,-127.306 17.873,-127.306 11.873,-121.306 11.873,-115.306 11.873,-115.306 11.873,-100.694 11.873,-100.694 11.873,-94.6937 17.873,-88.6937 23.873,-88.6937"/>
<text text-anchor="middle" x="44" y="-115.306" font-family="FreeSans" font-size="8.00" fill="#1c2021">Node[24]</text>
<polyline fill="none" stroke="#2e3436" stroke-width="1.5" points="11.873,-108 76.127,-108 "/>
<text text-anchor="start" x="19.873" y="-96" font-family="FreeSans" font-size="8.00" fill="#1c2021">name = &#39;Joe&#39;</text>
</g>
<!-- N23&#45;&gt;N24 -->
<g id="edge1" class="edge"><title>N23&#45;&gt;N24</title>
<path fill="none" stroke="#2e3436" stroke-width="2" d="M88.6318,-176.339C80.3593,-163.858 69.3828,-147.297 60.3855,-133.722"/>
<polygon fill="#2e3436" stroke="#2e3436" points="56.1482,-127.329 63.1049,-131.716 58.6367,-130.178 60.7085,-133.304 60.2917,-133.58 59.8749,-133.857 57.8032,-130.731 57.4785,-135.445 56.1482,-127.329 56.1482,-127.329"/>
<text text-anchor="middle" x="86.3594" y="-149.653" font-family="FreeSans" font-size="8.00" fill="#2e3436">know</text>
</g>
<!-- N23&#45;&gt;N21 -->
<g id="edge2" class="edge"><title>N23&#45;&gt;N21</title>
<path fill="none" stroke="#4e9a06" stroke-width="2" d="M104.532,-176.379C110.437,-145.244 122.328,-82.5442 129.06,-47.0485"/>
<polygon fill="#4e9a06" stroke="#4e9a06" points="130.494,-39.4872 132.412,-47.4847 130.286,-43.2647 129.587,-46.949 129.096,-46.8558 128.605,-46.7626 129.304,-43.0783 125.78,-46.2269 130.494,-39.4872 130.494,-39.4872"/>
<text text-anchor="middle" x="126.879" y="-105.653" font-family="FreeSans" font-size="8.00" fill="#4e9a06">like</text>
</g>
<!-- N24&#45;&gt;N21 -->
<g id="edge3" class="edge"><title>N24&#45;&gt;N21</title>
<path fill="none" stroke="#4e9a06" stroke-width="2" d="M63.5287,-88.3393C76.9469,-75.5174 94.8704,-58.3905 109.283,-44.6182"/>
<polygon fill="#4e9a06" stroke="#4e9a06" points="114.819,-39.3289 111.728,-46.9504 112.453,-42.2811 109.742,-44.8718 109.396,-44.5103 109.051,-44.1488 111.762,-41.5581 107.065,-42.0702 114.819,-39.3289 114.819,-39.3289"/>
<text text-anchor="middle" x="101.879" y="-61.6531" font-family="FreeSans" font-size="8.00" fill="#4e9a06">like</text>
</g>
<!-- N24&#45;&gt;N22 -->
<g id="edge4" class="edge"><title>N24&#45;&gt;N22</title>
<path fill="none" stroke="#4e9a06" stroke-width="2" d="M42.0471,-88.3393C40.7766,-76.1982 39.102,-60.1972 37.7041,-46.8392"/>
<polygon fill="#4e9a06" stroke="#4e9a06" points="36.9181,-39.3289 41.0555,-46.4368 37.8058,-43.0064 38.1961,-46.7361 37.6988,-46.7881 37.2016,-46.8402 36.8112,-43.1105 34.3422,-47.1394 36.9181,-39.3289 36.9181,-39.3289"/>
<text text-anchor="middle" x="47.8789" y="-61.6531" font-family="FreeSans" font-size="8.00" fill="#4e9a06">like</text>
</g>
</g>
</svg>
