<?xml version="1.0" encoding="UTF-8" standalone="no"?>
<!DOCTYPE svg PUBLIC "-//W3C//DTD SVG 1.1//EN"
 "http://www.w3.org/Graphics/SVG/1.1/DTD/svg11.dtd">
<!-- Generated by graphviz version 2.38.0 (20140413.2041)
 -->
<!-- Title: g Pages: 1 -->
<svg width="105pt" height="127pt"
 viewBox="0.00 0.00 104.96 127.42" xmlns="http://www.w3.org/2000/svg" xmlns:xlink="http://www.w3.org/1999/xlink">
<g id="graph0" class="graph" transform="scale(1 1) rotate(0) translate(4 123.422)">
<title>g</title>
<polygon fill="white" stroke="none" points="-4,4 -4,-123.422 100.965,-123.422 100.965,4 -4,4"/>
<!-- N0 -->
<g id="node1" class="node"><title>N0</title>
<path fill="#ffffff" stroke="#2e3436" stroke-width="1.5" d="M12,-0.5C12,-0.5 84.9648,-0.5 84.9648,-0.5 90.9648,-0.5 96.9648,-6.5 96.9648,-12.5 96.9648,-12.5 96.9648,-24.5 96.9648,-24.5 96.9648,-30.5 90.9648,-36.5 84.9648,-36.5 84.9648,-36.5 12,-36.5 12,-36.5 6,-36.5 0,-30.5 0,-24.5 0,-24.5 0,-12.5 0,-12.5 0,-6.5 6,-0.5 12,-0.5"/>
<text text-anchor="start" x="8" y="-17.1" font-family="FreeSans" font-size="8.00" fill="#1c2021">Node[0]name = &#39;you&#39;</text>
</g>
<!-- N1 -->
<g id="node2" class="node"><title>N1</title>
<path fill="#ffffff" stroke="#2e3436" stroke-width="1.5" d="M17.8438,-82.9219C17.8438,-82.9219 79.1211,-82.9219 79.1211,-82.9219 85.1211,-82.9219 91.1211,-88.9219 91.1211,-94.9219 91.1211,-94.9219 91.1211,-106.922 91.1211,-106.922 91.1211,-112.922 85.1211,-118.922 79.1211,-118.922 79.1211,-118.922 17.8438,-118.922 17.8438,-118.922 11.8438,-118.922 5.84375,-112.922 5.84375,-106.922 5.84375,-106.922 5.84375,-94.9219 5.84375,-94.9219 5.84375,-88.9219 11.8438,-82.9219 17.8438,-82.9219"/>
<text text-anchor="start" x="13.8438" y="-99.5219" font-family="FreeSans" font-size="8.00" fill="#1c2021">Node[1]name = &#39;I&#39;</text>
</g>
<!-- N1&#45;&gt;N0 -->
<g id="edge1" class="edge"><title>N1&#45;&gt;N0</title>
<path fill="none" stroke="#2e3436" stroke-width="2" d="M48.4824,-82.8665C48.4824,-71.671 48.4824,-56.8427 48.4824,-44.3452"/>
<polygon fill="#2e3436" stroke="#2e3436" stroke-width="2" points="48.4824,-36.5308 51.8575,-44.0308 48.9825,-40.2808 48.9825,-44.0308 48.4825,-44.0308 47.9825,-44.0308 47.9825,-40.2808 45.1075,-44.0309 48.4824,-36.5308 48.4824,-36.5308"/>
<text text-anchor="middle" x="58.8105" y="-58.0219" font-family="FreeSans" font-size="8.00" fill="#2e3436">know</text>
</g>
</g>
</svg>
