<?xml version="1.0" encoding="UTF-8" standalone="no"?>
<!DOCTYPE svg PUBLIC "-//W3C//DTD SVG 1.1//EN"
 "http://www.w3.org/Graphics/SVG/1.1/DTD/svg11.dtd">
<!-- Generated by graphviz version 2.38.0 (20140413.2041)
 -->
<!-- Title: g Pages: 1 -->
<svg width="116pt" height="210pt"
 viewBox="0.00 0.00 115.72 209.84" xmlns="http://www.w3.org/2000/svg" xmlns:xlink="http://www.w3.org/1999/xlink">
<g id="graph0" class="graph" transform="scale(1 1) rotate(0) translate(4 205.844)">
<title>g</title>
<polygon fill="white" stroke="none" points="-4,4 -4,-205.844 111.719,-205.844 111.719,4 -4,4"/>
<!-- N39 -->
<g id="node1" class="node"><title>N39</title>
<path fill="#ffffff" stroke="#2e3436" stroke-width="1.5" d="M16,-165.344C16,-165.344 91.7188,-165.344 91.7188,-165.344 97.7188,-165.344 103.719,-171.344 103.719,-177.344 103.719,-177.344 103.719,-189.344 103.719,-189.344 103.719,-195.344 97.7188,-201.344 91.7188,-201.344 91.7188,-201.344 16,-201.344 16,-201.344 10,-201.344 4,-195.344 4,-189.344 4,-189.344 4,-177.344 4,-177.344 4,-171.344 10,-165.344 16,-165.344"/>
<text text-anchor="start" x="12" y="-181.944" font-family="FreeSans" font-size="8.00" fill="#1c2021">Node[39]name = &#39;Ian&#39;</text>
</g>
<!-- N40 -->
<g id="node2" class="node"><title>N40</title>
<path fill="#ffffff" stroke="#2e3436" stroke-width="1.5" d="M12.0625,-82.9219C12.0625,-82.9219 95.6562,-82.9219 95.6562,-82.9219 101.656,-82.9219 107.656,-88.9219 107.656,-94.9219 107.656,-94.9219 107.656,-106.922 107.656,-106.922 107.656,-112.922 101.656,-118.922 95.6562,-118.922 95.6562,-118.922 12.0625,-118.922 12.0625,-118.922 6.0625,-118.922 0.0625,-112.922 0.0625,-106.922 0.0625,-106.922 0.0625,-94.9219 0.0625,-94.9219 0.0625,-88.9219 6.0625,-82.9219 12.0625,-82.9219"/>
<text text-anchor="start" x="8.0625" y="-99.5219" font-family="FreeSans" font-size="8.00" fill="#1c2021">Node[40]name = &#39;Peter&#39;</text>
</g>
<!-- N39&#45;&gt;N40 -->
<g id="edge1" class="edge"><title>N39&#45;&gt;N40</title>
<path fill="none" stroke="#2e3436" stroke-width="2" d="M34.3807,-165.288C29.5702,-159.922 25.0649,-153.612 22.5039,-146.844 19.6176,-139.216 22.183,-131.658 26.8716,-124.979"/>
<polygon fill="#2e3436" stroke="#2e3436" stroke-width="2" points="31.679,-119.115 29.5337,-127.055 29.688,-122.332 27.3104,-125.232 26.9238,-124.915 26.5371,-124.598 28.9147,-121.698 24.3138,-122.775 31.679,-119.115 31.679,-119.115"/>
<text text-anchor="middle" x="35.0371" y="-140.444" font-family="FreeSans" font-size="8.00" fill="#2e3436">knows</text>
</g>
<!-- N40&#45;&gt;N39 -->
<g id="edge2" class="edge"><title>N40&#45;&gt;N39</title>
<path fill="none" stroke="#2e3436" stroke-width="2" d="M53.8594,-118.953C53.8594,-130.143 53.8594,-144.97 53.8594,-157.471"/>
<polygon fill="#2e3436" stroke="#2e3436" stroke-width="2" points="53.8594,-165.288 50.4845,-157.788 53.3594,-161.538 53.3595,-157.788 53.8595,-157.788 54.3595,-157.788 54.3594,-161.538 57.2345,-157.788 53.8594,-165.288 53.8594,-165.288"/>
<text text-anchor="middle" x="66.0371" y="-140.444" font-family="FreeSans" font-size="8.00" fill="#2e3436">knows</text>
</g>
<!-- N41 -->
<g id="node3" class="node"><title>N41</title>
<path fill="#ffffff" stroke="#2e3436" stroke-width="1.5" d="M12,-0.5C12,-0.5 95.7188,-0.5 95.7188,-0.5 101.719,-0.5 107.719,-6.5 107.719,-12.5 107.719,-12.5 107.719,-24.5 107.719,-24.5 107.719,-30.5 101.719,-36.5 95.7188,-36.5 95.7188,-36.5 12,-36.5 12,-36.5 6,-36.5 0,-30.5 0,-24.5 0,-24.5 0,-12.5 0,-12.5 0,-6.5 6,-0.5 12,-0.5"/>
<text text-anchor="start" x="8" y="-17.1" font-family="FreeSans" font-size="8.00" fill="#1c2021">Node[41]name = &#39;Bikes&#39;</text>
</g>
<!-- N40&#45;&gt;N41 -->
<g id="edge3" class="edge"><title>N40&#45;&gt;N41</title>
<path fill="none" stroke="#4e9a06" stroke-width="2" d="M53.8594,-82.8665C53.8594,-71.671 53.8594,-56.8427 53.8594,-44.3452"/>
<polygon fill="#4e9a06" stroke="#4e9a06" stroke-width="2" points="53.8594,-36.5308 57.2345,-44.0308 54.3594,-40.2808 54.3595,-44.0308 53.8595,-44.0308 53.3595,-44.0308 53.3594,-40.2808 50.4845,-44.0309 53.8594,-36.5308 53.8594,-36.5308"/>
<text text-anchor="middle" x="62.5586" y="-58.0219" font-family="FreeSans" font-size="8.00" fill="#4e9a06">likes</text>
</g>
</g>
</svg>
