<?xml version="1.0" encoding="UTF-8" standalone="no"?>
<!DOCTYPE svg PUBLIC "-//W3C//DTD SVG 1.1//EN"
 "http://www.w3.org/Graphics/SVG/1.1/DTD/svg11.dtd">
<!-- Generated by graphviz version 2.30.1 (20130318.1259)
 -->
<!-- Title: g Pages: 1 -->
<svg width="274pt" height="48pt"
 viewBox="0.00 0.00 274.00 48.00" xmlns="http://www.w3.org/2000/svg" xmlns:xlink="http://www.w3.org/1999/xlink">
<g id="graph0" class="graph" transform="scale(1 1) rotate(0) translate(4 44)">
<title>g</title>
<polygon fill="white" stroke="white" points="-4,5 -4,-44 271,-44 271,5 -4,5"/>
<!-- N43 -->
<g id="node1" class="node"><title>N43</title>
<path fill="#ffffff" stroke="#2e3436" stroke-width="1.5" d="M11.959,-0.69375C11.959,-0.69375 52.041,-0.69375 52.041,-0.69375 58.041,-0.69375 64.041,-6.69375 64.041,-12.6938 64.041,-12.6938 64.041,-27.3063 64.041,-27.3063 64.041,-33.3062 58.041,-39.3062 52.041,-39.3062 52.041,-39.3062 11.959,-39.3062 11.959,-39.3062 5.95898,-39.3062 -0.0410156,-33.3062 -0.0410156,-27.3062 -0.0410156,-27.3062 -0.0410156,-12.6937 -0.0410156,-12.6937 -0.0410156,-6.69375 5.95898,-0.69375 11.959,-0.69375"/>
<text text-anchor="middle" x="32" y="-27.3062" font-family="FreeSans" font-size="8.00" fill="#1c2021">Node[43]</text>
<polyline fill="none" stroke="#2e3436" stroke-width="1.5" points="-0.0410156,-20 64.041,-20 "/>
<text text-anchor="start" x="7.95898" y="-8" font-family="FreeSans" font-size="8.00" fill="#1c2021">name = &#39;Ian&#39;</text>
</g>
<!-- N44 -->
<g id="node2" class="node"><title>N44</title>
<path fill="#ffffff" stroke="#2e3436" stroke-width="1.5" d="M105.002,-0.69375C105.002,-0.69375 152.998,-0.69375 152.998,-0.69375 158.998,-0.69375 164.998,-6.69375 164.998,-12.6938 164.998,-12.6938 164.998,-27.3063 164.998,-27.3063 164.998,-33.3062 158.998,-39.3062 152.998,-39.3062 152.998,-39.3062 105.002,-39.3062 105.002,-39.3062 99.002,-39.3062 93.002,-33.3062 93.002,-27.3062 93.002,-27.3062 93.002,-12.6937 93.002,-12.6937 93.002,-6.69375 99.002,-0.69375 105.002,-0.69375"/>
<text text-anchor="middle" x="129" y="-27.3062" font-family="FreeSans" font-size="8.00" fill="#1c2021">Node[44]</text>
<polyline fill="none" stroke="#2e3436" stroke-width="1.5" points="93.002,-20 164.998,-20 "/>
<text text-anchor="start" x="101.002" y="-8" font-family="FreeSans" font-size="8.00" fill="#1c2021">name = &#39;Peter&#39;</text>
</g>
<!-- N45 -->
<g id="node3" class="node"><title>N45</title>
<path fill="#ffffff" stroke="#2e3436" stroke-width="1.5" d="M205.74,-0.69375C205.74,-0.69375 254.26,-0.69375 254.26,-0.69375 260.26,-0.69375 266.26,-6.69375 266.26,-12.6938 266.26,-12.6938 266.26,-27.3063 266.26,-27.3063 266.26,-33.3062 260.26,-39.3062 254.26,-39.3062 254.26,-39.3062 205.74,-39.3062 205.74,-39.3062 199.74,-39.3062 193.74,-33.3062 193.74,-27.3062 193.74,-27.3062 193.74,-12.6937 193.74,-12.6937 193.74,-6.69375 199.74,-0.69375 205.74,-0.69375"/>
<text text-anchor="middle" x="230" y="-27.3062" font-family="FreeSans" font-size="8.00" fill="#1c2021">Node[45]</text>
<polyline fill="none" stroke="#2e3436" stroke-width="1.5" points="193.74,-20 266.26,-20 "/>
<text text-anchor="start" x="201.74" y="-8" font-family="FreeSans" font-size="8.00" fill="#1c2021">name = &#39;Bikes&#39;</text>
</g>
</g>
</svg>
