<?xml version="1.0" encoding="UTF-8" standalone="no"?>
<!DOCTYPE svg PUBLIC "-//W3C//DTD SVG 1.1//EN"
 "http://www.w3.org/Graphics/SVG/1.1/DTD/svg11.dtd">
<!-- Generated by graphviz version 2.30.1 (20130318.1259)
 -->
<!-- Title: g Pages: 1 -->
<svg width="253pt" height="248pt"
 viewBox="0.00 0.00 252.83 248.00" xmlns="http://www.w3.org/2000/svg" xmlns:xlink="http://www.w3.org/1999/xlink">
<g id="graph0" class="graph" transform="scale(1 1) rotate(0) translate(4 244)">
<title>g</title>
<polygon fill="white" stroke="white" points="-4,5 -4,-244 249.828,-244 249.828,5 -4,5"/>
<!-- N72 -->
<g id="node1" class="node"><title>N72</title>
<path fill="#ffffff" stroke="#2e3436" stroke-width="1.5" d="M109.91,-200.694C109.91,-200.694 164.09,-200.694 164.09,-200.694 170.09,-200.694 176.09,-206.694 176.09,-212.694 176.09,-212.694 176.09,-227.306 176.09,-227.306 176.09,-233.306 170.09,-239.306 164.09,-239.306 164.09,-239.306 109.91,-239.306 109.91,-239.306 103.91,-239.306 97.9102,-233.306 97.9102,-227.306 97.9102,-227.306 97.9102,-212.694 97.9102,-212.694 97.9102,-206.694 103.91,-200.694 109.91,-200.694"/>
<text text-anchor="middle" x="137" y="-227.306" font-family="FreeSans" font-size="8.00" fill="#1c2021">Node[72]</text>
<polyline fill="none" stroke="#2e3436" stroke-width="1.5" points="97.9102,-220 176.09,-220 "/>
<text text-anchor="start" x="105.91" y="-208" font-family="FreeSans" font-size="8.00" fill="#1c2021">name = &#39;source&#39;</text>
</g>
<!-- N74 -->
<g id="node2" class="node"><title>N74</title>
<path fill="#ffffff" stroke="#2e3436" stroke-width="1.5" d="M11.4922,-100.694C11.4922,-100.694 66.5078,-100.694 66.5078,-100.694 72.5078,-100.694 78.5078,-106.694 78.5078,-112.694 78.5078,-112.694 78.5078,-127.306 78.5078,-127.306 78.5078,-133.306 72.5078,-139.306 66.5078,-139.306 66.5078,-139.306 11.4922,-139.306 11.4922,-139.306 5.49219,-139.306 -0.507812,-133.306 -0.507812,-127.306 -0.507812,-127.306 -0.507812,-112.694 -0.507812,-112.694 -0.507812,-106.694 5.49219,-100.694 11.4922,-100.694"/>
<text text-anchor="middle" x="39" y="-127.306" font-family="FreeSans" font-size="8.00" fill="#1c2021">Node[74]</text>
<polyline fill="none" stroke="#2e3436" stroke-width="1.5" points="-0.507812,-120 78.5078,-120 "/>
<text text-anchor="start" x="7.49219" y="-108" font-family="FreeSans" font-size="8.00" fill="#1c2021">name = &#39;middle&#39;</text>
</g>
<!-- N72&#45;&gt;N74 -->
<g id="edge1" class="edge"><title>N72&#45;&gt;N74</title>
<path fill="none" stroke="#2e3436" stroke-width="2" d="M97.7996,-204.354C86.5167,-198.697 74.9113,-191.302 66.1719,-182 56.8369,-172.064 50.3447,-158.385 46.0532,-146.498"/>
<polygon fill="#2e3436" stroke="#2e3436" points="43.6598,-139.378 49.2487,-145.412 45.3286,-142.774 46.5235,-146.328 46.0496,-146.487 45.5756,-146.647 44.3808,-143.092 42.8505,-147.563 43.6598,-139.378 43.6598,-139.378"/>
<text text-anchor="middle" x="91.4141" y="-173.306" font-family="FreeSans" font-size="8.00" fill="#2e3436">CONNECTED</text>
<text text-anchor="start" x="67" y="-162" font-family="FreeSans" font-size="8.00" fill="#2e3436">capacity = 0</text>
</g>
<!-- N73 -->
<g id="node3" class="node"><title>N73</title>
<path fill="#ffffff" stroke="#2e3436" stroke-width="1.5" d="M114.787,-0.69375C114.787,-0.69375 159.213,-0.69375 159.213,-0.69375 165.213,-0.69375 171.213,-6.69375 171.213,-12.6938 171.213,-12.6938 171.213,-27.3063 171.213,-27.3063 171.213,-33.3062 165.213,-39.3062 159.213,-39.3062 159.213,-39.3062 114.787,-39.3062 114.787,-39.3062 108.787,-39.3062 102.787,-33.3062 102.787,-27.3062 102.787,-27.3062 102.787,-12.6937 102.787,-12.6937 102.787,-6.69375 108.787,-0.69375 114.787,-0.69375"/>
<text text-anchor="middle" x="137" y="-27.3062" font-family="FreeSans" font-size="8.00" fill="#1c2021">Node[73]</text>
<polyline fill="none" stroke="#2e3436" stroke-width="1.5" points="102.787,-20 171.213,-20 "/>
<text text-anchor="start" x="110.787" y="-8" font-family="FreeSans" font-size="8.00" fill="#1c2021">name = &#39;sink&#39;</text>
</g>
<!-- N72&#45;&gt;N73 -->
<g id="edge2" class="edge"><title>N72&#45;&gt;N73</title>
<path fill="none" stroke="#2e3436" stroke-width="2" d="M137,-200.373C137,-164.904 137,-87.5974 137,-47.0333"/>
<polygon fill="#2e3436" stroke="#2e3436" points="137,-39.4336 140.375,-46.9336 137.5,-43.1836 137.5,-46.9336 137,-46.9336 136.5,-46.9336 136.5,-43.1836 133.625,-46.9337 137,-39.4336 137,-39.4336"/>
<text text-anchor="middle" x="161.414" y="-123.306" font-family="FreeSans" font-size="8.00" fill="#2e3436">CONNECTED</text>
<text text-anchor="start" x="137" y="-112" font-family="FreeSans" font-size="8.00" fill="#2e3436">capacity = 0</text>
</g>
<!-- N72&#45;&gt;N73 -->
<g id="edge3" class="edge"><title>N72&#45;&gt;N73</title>
<path fill="none" stroke="#2e3436" stroke-width="2" d="M154.691,-200.672C167.833,-185.701 184.694,-163.28 192,-140 197.323,-123.038 197.323,-116.962 192,-100 185.608,-79.6301 171.899,-59.9174 159.767,-45.2786"/>
<polygon fill="#2e3436" stroke="#2e3436" points="154.691,-39.3283 162.126,-42.8434 157.505,-41.8566 159.939,-44.7094 159.559,-45.034 159.178,-45.3585 156.744,-42.5057 156.991,-47.2245 154.691,-39.3283 154.691,-39.3283"/>
<text text-anchor="middle" x="220.414" y="-123.306" font-family="FreeSans" font-size="8.00" fill="#2e3436">CONNECTED</text>
<text text-anchor="start" x="196" y="-112" font-family="FreeSans" font-size="8.00" fill="#2e3436">capacity = 0</text>
</g>
<!-- N74&#45;&gt;N73 -->
<g id="edge4" class="edge"><title>N74&#45;&gt;N73</title>
<path fill="none" stroke="#2e3436" stroke-width="2" d="M43.6598,-100.622C47.7722,-87.4541 54.8995,-69.998 66.1719,-58 74.354,-49.2912 85.0482,-42.2542 95.6378,-36.7498"/>
<polygon fill="#2e3436" stroke="#2e3436" points="102.554,-33.3518 97.3109,-39.6882 99.4089,-35.4542 96.0432,-37.1078 95.8227,-36.659 95.6022,-36.2103 98.9679,-34.5567 94.3344,-33.6299 102.554,-33.3518 102.554,-33.3518"/>
<text text-anchor="middle" x="91.4141" y="-73.3063" font-family="FreeSans" font-size="8.00" fill="#2e3436">CONNECTED</text>
<text text-anchor="start" x="67" y="-62" font-family="FreeSans" font-size="8.00" fill="#2e3436">capacity = 2</text>
</g>
</g>
</svg>
