<?xml version="1.0" encoding="UTF-8" standalone="no"?>
<!DOCTYPE svg PUBLIC "-//W3C//DTD SVG 1.1//EN"
 "http://www.w3.org/Graphics/SVG/1.1/DTD/svg11.dtd">
<!-- Generated by graphviz version 2.38.0 (20140413.2041)
 -->
<!-- Title: g Pages: 1 -->
<svg width="110pt" height="127pt"
 viewBox="0.00 0.00 110.02 127.42" xmlns="http://www.w3.org/2000/svg" xmlns:xlink="http://www.w3.org/1999/xlink">
<g id="graph0" class="graph" transform="scale(1 1) rotate(0) translate(4 123.422)">
<title>g</title>
<polygon fill="white" stroke="none" points="-4,4 -4,-123.422 106.023,-123.422 106.023,4 -4,4"/>
<!-- N28 -->
<g id="node1" class="node"><title>N28</title>
<path fill="#ffffff" stroke="#2e3436" stroke-width="1.5" d="M13.0332,-0.5C13.0332,-0.5 88.9902,-0.5 88.9902,-0.5 94.9902,-0.5 100.99,-6.5 100.99,-12.5 100.99,-12.5 100.99,-24.5 100.99,-24.5 100.99,-30.5 94.9902,-36.5 88.9902,-36.5 88.9902,-36.5 13.0332,-36.5 13.0332,-36.5 7.0332,-36.5 1.0332,-30.5 1.0332,-24.5 1.0332,-24.5 1.0332,-12.5 1.0332,-12.5 1.0332,-6.5 7.0332,-0.5 13.0332,-0.5"/>
<text text-anchor="start" x="9.0332" y="-17.1" font-family="FreeSans" font-size="8.00" fill="#1c2021">Node[28]name = &#39;me&#39;</text>
</g>
<!-- N29 -->
<g id="node2" class="node"><title>N29</title>
<path fill="#ffffff" stroke="#2e3436" stroke-width="1.5" d="M12,-82.9219C12,-82.9219 90.0234,-82.9219 90.0234,-82.9219 96.0234,-82.9219 102.023,-88.9219 102.023,-94.9219 102.023,-94.9219 102.023,-106.922 102.023,-106.922 102.023,-112.922 96.0234,-118.922 90.0234,-118.922 90.0234,-118.922 12,-118.922 12,-118.922 6,-118.922 0,-112.922 0,-106.922 0,-106.922 0,-94.9219 0,-94.9219 0,-88.9219 6,-82.9219 12,-82.9219"/>
<text text-anchor="start" x="8" y="-99.5219" font-family="FreeSans" font-size="8.00" fill="#1c2021">Node[29]name = &#39;you&#39;</text>
</g>
<!-- N29&#45;&gt;N28 -->
<g id="edge1" class="edge"><title>N29&#45;&gt;N28</title>
<path fill="none" stroke="#2e3436" stroke-width="2" d="M51.0117,-82.8665C51.0117,-71.671 51.0117,-56.8427 51.0117,-44.3452"/>
<polygon fill="#2e3436" stroke="#2e3436" stroke-width="2" points="51.0117,-36.5308 54.3868,-44.0308 51.5118,-40.2808 51.5118,-44.0308 51.0118,-44.0308 50.5118,-44.0308 50.5118,-40.2808 47.6368,-44.0309 51.0117,-36.5308 51.0117,-36.5308"/>
<text text-anchor="middle" x="63.1895" y="-58.0219" font-family="FreeSans" font-size="8.00" fill="#2e3436">knows</text>
</g>
</g>
</svg>
