<?xml version="1.0" encoding="UTF-8" standalone="no"?>
<!DOCTYPE svg PUBLIC "-//W3C//DTD SVG 1.1//EN"
 "http://www.w3.org/Graphics/SVG/1.1/DTD/svg11.dtd">
<!-- Generated by graphviz version 2.30.1 (20130318.1259)
 -->
<!-- Title: g Pages: 1 -->
<svg width="170pt" height="136pt"
 viewBox="0.00 0.00 170.00 136.00" xmlns="http://www.w3.org/2000/svg" xmlns:xlink="http://www.w3.org/1999/xlink">
<g id="graph0" class="graph" transform="scale(1 1) rotate(0) translate(4 132)">
<title>g</title>
<polygon fill="white" stroke="white" points="-4,5 -4,-132 167,-132 167,5 -4,5"/>
<!-- N15 -->
<g id="node1" class="node"><title>N15</title>
<path fill="#ffffff" stroke="#2e3436" stroke-width="1.5" d="M11.7734,-0.69375C11.7734,-0.69375 54.2266,-0.69375 54.2266,-0.69375 60.2266,-0.69375 66.2266,-6.69375 66.2266,-12.6938 66.2266,-12.6938 66.2266,-27.3063 66.2266,-27.3063 66.2266,-33.3062 60.2266,-39.3062 54.2266,-39.3062 54.2266,-39.3062 11.7734,-39.3062 11.7734,-39.3062 5.77344,-39.3062 -0.226562,-33.3062 -0.226562,-27.3062 -0.226562,-27.3062 -0.226562,-12.6937 -0.226562,-12.6937 -0.226562,-6.69375 5.77344,-0.69375 11.7734,-0.69375"/>
<text text-anchor="middle" x="33" y="-27.3062" font-family="FreeSans" font-size="8.00" fill="#1c2021">Node[15]</text>
<polyline fill="none" stroke="#2e3436" stroke-width="1.5" points="-0.226562,-20 66.2266,-20 "/>
<text text-anchor="start" x="7.77344" y="-8" font-family="FreeSans" font-size="8.00" fill="#1c2021">name = &#39;you&#39;</text>
</g>
<!-- N16 -->
<g id="node2" class="node"><title>N16</title>
<path fill="#ffffff" stroke="#2e3436" stroke-width="1.5" d="M107.43,-0.69375C107.43,-0.69375 150.57,-0.69375 150.57,-0.69375 156.57,-0.69375 162.57,-6.69375 162.57,-12.6938 162.57,-12.6938 162.57,-27.3063 162.57,-27.3063 162.57,-33.3062 156.57,-39.3062 150.57,-39.3062 150.57,-39.3062 107.43,-39.3062 107.43,-39.3062 101.43,-39.3062 95.4297,-33.3062 95.4297,-27.3062 95.4297,-27.3062 95.4297,-12.6937 95.4297,-12.6937 95.4297,-6.69375 101.43,-0.69375 107.43,-0.69375"/>
<text text-anchor="middle" x="129" y="-27.3062" font-family="FreeSans" font-size="8.00" fill="#1c2021">Node[16]</text>
<polyline fill="none" stroke="#2e3436" stroke-width="1.5" points="95.4297,-20 162.57,-20 "/>
<text text-anchor="start" x="103.43" y="-8" font-family="FreeSans" font-size="8.00" fill="#1c2021">name = &#39;him&#39;</text>
</g>
<!-- N17 -->
<g id="node3" class="node"><title>N17</title>
<path fill="#ffffff" stroke="#2e3436" stroke-width="1.5" d="M65.6504,-88.6937C65.6504,-88.6937 96.3496,-88.6937 96.3496,-88.6937 102.35,-88.6937 108.35,-94.6937 108.35,-100.694 108.35,-100.694 108.35,-115.306 108.35,-115.306 108.35,-121.306 102.35,-127.306 96.3496,-127.306 96.3496,-127.306 65.6504,-127.306 65.6504,-127.306 59.6504,-127.306 53.6504,-121.306 53.6504,-115.306 53.6504,-115.306 53.6504,-100.694 53.6504,-100.694 53.6504,-94.6937 59.6504,-88.6937 65.6504,-88.6937"/>
<text text-anchor="middle" x="81" y="-115.306" font-family="FreeSans" font-size="8.00" fill="#1c2021">Node[17]</text>
<polyline fill="none" stroke="#2e3436" stroke-width="1.5" points="53.6504,-108 108.35,-108 "/>
<text text-anchor="start" x="61.6504" y="-96" font-family="FreeSans" font-size="8.00" fill="#1c2021">name = &#39;I&#39;</text>
</g>
<!-- N17&#45;&gt;N15 -->
<g id="edge1" class="edge"><title>N17&#45;&gt;N15</title>
<path fill="none" stroke="#2e3436" stroke-width="2" d="M70.5847,-88.3393C63.6816,-75.9713 54.5429,-59.5976 47.0054,-46.093"/>
<polygon fill="#2e3436" stroke="#2e3436" points="43.2301,-39.3289 49.8324,-44.233 45.4943,-42.3597 47.322,-45.6342 46.8854,-45.8779 46.4488,-46.1215 44.6211,-42.847 43.9383,-47.5227 43.2301,-39.3289 43.2301,-39.3289"/>
<text text-anchor="middle" x="70.3594" y="-61.6531" font-family="FreeSans" font-size="8.00" fill="#2e3436">know</text>
</g>
<!-- N17&#45;&gt;N16 -->
<g id="edge2" class="edge"><title>N17&#45;&gt;N16</title>
<path fill="none" stroke="#2e3436" stroke-width="2" d="M91.4153,-88.3393C98.3184,-75.9713 107.457,-59.5976 114.995,-46.093"/>
<polygon fill="#2e3436" stroke="#2e3436" points="118.77,-39.3289 118.062,-47.5227 117.379,-42.847 115.551,-46.1215 115.115,-45.8779 114.678,-45.6342 116.506,-42.3597 112.168,-44.233 118.77,-39.3289 118.77,-39.3289"/>
<text text-anchor="middle" x="118.359" y="-61.6531" font-family="FreeSans" font-size="8.00" fill="#2e3436">know</text>
</g>
</g>
</svg>
