<?xml version="1.0" encoding="UTF-8" standalone="no"?>
<!DOCTYPE svg PUBLIC "-//W3C//DTD SVG 1.1//EN"
 "http://www.w3.org/Graphics/SVG/1.1/DTD/svg11.dtd">
<!-- Generated by graphviz version 2.38.0 (20140413.2041)
 -->
<!-- Title: g Pages: 1 -->
<svg width="367pt" height="137pt"
 viewBox="0.00 0.00 366.66 136.84" xmlns="http://www.w3.org/2000/svg" xmlns:xlink="http://www.w3.org/1999/xlink">
<g id="graph0" class="graph" transform="scale(1 1) rotate(0) translate(4 132.844)">
<title>g</title>
<polygon fill="white" stroke="none" points="-4,4 -4,-132.844 362.656,-132.844 362.656,4 -4,4"/>
<!-- N6 -->
<g id="node1" class="node"><title>N6</title>
<path fill="#ffffff" stroke="#2e3436" stroke-width="1.5" d="M13.9609,-0.5C13.9609,-0.5 88.5742,-0.5 88.5742,-0.5 94.5742,-0.5 100.574,-6.5 100.574,-12.5 100.574,-12.5 100.574,-24.5 100.574,-24.5 100.574,-30.5 94.5742,-36.5 88.5742,-36.5 88.5742,-36.5 13.9609,-36.5 13.9609,-36.5 7.96094,-36.5 1.96094,-30.5 1.96094,-24.5 1.96094,-24.5 1.96094,-12.5 1.96094,-12.5 1.96094,-6.5 7.96094,-0.5 13.9609,-0.5"/>
<text text-anchor="start" x="9.96094" y="-17.1" font-family="FreeSans" font-size="8.00" fill="#1c2021">Node[6]name = &#39;Test&#39;</text>
</g>
<!-- N7 -->
<g id="node2" class="node"><title>N7</title>
<path fill="#ffffff" stroke="#2e3436" stroke-width="1.5" d="M12,-92.3438C12,-92.3438 90.5352,-92.3438 90.5352,-92.3438 96.5352,-92.3438 102.535,-98.3438 102.535,-104.344 102.535,-104.344 102.535,-116.344 102.535,-116.344 102.535,-122.344 96.5352,-128.344 90.5352,-128.344 90.5352,-128.344 12,-128.344 12,-128.344 6,-128.344 0,-122.344 0,-116.344 0,-116.344 0,-104.344 0,-104.344 0,-98.3438 6,-92.3438 12,-92.3438"/>
<text text-anchor="start" x="8" y="-108.944" font-family="FreeSans" font-size="8.00" fill="#1c2021">Node[7]name = &#39;Peter&#39;</text>
</g>
<!-- N7&#45;&gt;N6 -->
<g id="edge1" class="edge"><title>N7&#45;&gt;N6</title>
<path fill="none" stroke="#2e3436" stroke-width="2" d="M51.2676,-92.021C51.2676,-78.4732 51.2676,-59.4575 51.2676,-44.2969"/>
<polygon fill="#2e3436" stroke="#2e3436" stroke-width="2" points="51.2676,-36.7696 54.6427,-44.2696 51.7676,-40.5196 51.7677,-44.2696 51.2677,-44.2696 50.7677,-44.2696 50.7676,-40.5196 47.8927,-44.2696 51.2676,-36.7696 51.2676,-36.7696"/>
<text text-anchor="middle" x="54.2734" y="-62.7328" font-family="FreeSans" font-size="8.00" fill="#2e3436">is</text>
</g>
<!-- N8 -->
<g id="node3" class="node"><title>N8</title>
<path fill="#ffffff" stroke="#2e3436" stroke-width="1.5" d="M211.629,-92.3438C211.629,-92.3438 272.906,-92.3438 272.906,-92.3438 278.906,-92.3438 284.906,-98.3438 284.906,-104.344 284.906,-104.344 284.906,-116.344 284.906,-116.344 284.906,-122.344 278.906,-128.344 272.906,-128.344 272.906,-128.344 211.629,-128.344 211.629,-128.344 205.629,-128.344 199.629,-122.344 199.629,-116.344 199.629,-116.344 199.629,-104.344 199.629,-104.344 199.629,-98.3438 205.629,-92.3438 211.629,-92.3438"/>
<text text-anchor="start" x="207.629" y="-108.944" font-family="FreeSans" font-size="8.00" fill="#1c2021">Node[8]name = &#39;I&#39;</text>
</g>
<!-- N9 -->
<g id="node4" class="node"><title>N9</title>
<path fill="#ffffff" stroke="#2e3436" stroke-width="1.5" d="M141.785,-0.5C141.785,-0.5 214.75,-0.5 214.75,-0.5 220.75,-0.5 226.75,-6.5 226.75,-12.5 226.75,-12.5 226.75,-24.5 226.75,-24.5 226.75,-30.5 220.75,-36.5 214.75,-36.5 214.75,-36.5 141.785,-36.5 141.785,-36.5 135.785,-36.5 129.785,-30.5 129.785,-24.5 129.785,-24.5 129.785,-12.5 129.785,-12.5 129.785,-6.5 135.785,-0.5 141.785,-0.5"/>
<text text-anchor="start" x="137.785" y="-17.1" font-family="FreeSans" font-size="8.00" fill="#1c2021">Node[9]name = &#39;you&#39;</text>
</g>
<!-- N8&#45;&gt;N9 -->
<g id="edge2" class="edge"><title>N8&#45;&gt;N9</title>
<path fill="none" stroke="#4e9a06" stroke-width="2" d="M229.928,-92.021C220.011,-78.1003 205.983,-58.4066 195.046,-43.054"/>
<polygon fill="#4e9a06" stroke="#4e9a06" stroke-width="2" points="190.57,-36.7696 197.67,-40.92 193.153,-39.5338 195.328,-42.5881 194.921,-42.8782 194.514,-43.1683 192.338,-40.114 192.172,-44.8364 190.57,-36.7696 190.57,-36.7696"/>
<text text-anchor="middle" x="241.24" y="-67.4437" font-family="FreeSans" font-size="8.00" fill="#4e9a06">know</text>
<text text-anchor="start" x="216.268" y="-58.0219" font-family="FreeSans" font-size="8.00" fill="#4e9a06">weight = 0.5</text>
</g>
<!-- N10 -->
<g id="node5" class="node"><title>N10</title>
<path fill="#ffffff" stroke="#2e3436" stroke-width="1.5" d="M267.879,-0.5C267.879,-0.5 346.656,-0.5 346.656,-0.5 352.656,-0.5 358.656,-6.5 358.656,-12.5 358.656,-12.5 358.656,-24.5 358.656,-24.5 358.656,-30.5 352.656,-36.5 346.656,-36.5 346.656,-36.5 267.879,-36.5 267.879,-36.5 261.879,-36.5 255.879,-30.5 255.879,-24.5 255.879,-24.5 255.879,-12.5 255.879,-12.5 255.879,-6.5 261.879,-0.5 267.879,-0.5"/>
<text text-anchor="start" x="263.879" y="-17.1" font-family="FreeSans" font-size="8.00" fill="#1c2021">Node[10]name = &#39;him&#39;</text>
</g>
<!-- N8&#45;&gt;N10 -->
<g id="edge3" class="edge"><title>N8&#45;&gt;N10</title>
<path fill="none" stroke="#4e9a06" stroke-width="2" d="M258.291,-92.1078C263.287,-86.447 268.684,-80.0201 273.268,-73.8438 280.489,-64.1137 287.717,-52.8305 293.641,-43.0752"/>
<polygon fill="#4e9a06" stroke="#4e9a06" stroke-width="2" points="297.517,-36.6035 296.559,-44.7719 296.019,-40.0775 294.092,-43.2945 293.663,-43.0376 293.234,-42.7807 295.161,-39.5636 290.768,-41.3033 297.517,-36.6035 297.517,-36.6035"/>
<text text-anchor="middle" x="310.24" y="-67.4437" font-family="FreeSans" font-size="8.00" fill="#4e9a06">know</text>
<text text-anchor="start" x="285.268" y="-58.0219" font-family="FreeSans" font-size="8.00" fill="#4e9a06">weight = 0.8</text>
</g>
</g>
</svg>
