<?xml version="1.0" encoding="UTF-8" standalone="no"?>
<!DOCTYPE svg PUBLIC "-//W3C//DTD SVG 1.1//EN"
 "http://www.w3.org/Graphics/SVG/1.1/DTD/svg11.dtd">
<!-- Generated by graphviz version 2.38.0 (20140413.2041)
 -->
<!-- Title: g Pages: 1 -->
<svg width="354pt" height="292pt"
 viewBox="0.00 0.00 353.75 292.27" xmlns="http://www.w3.org/2000/svg" xmlns:xlink="http://www.w3.org/1999/xlink">
<g id="graph0" class="graph" transform="scale(1 1) rotate(0) translate(4 288.266)">
<title>g</title>
<polygon fill="white" stroke="none" points="-4,4 -4,-288.266 349.752,-288.266 349.752,4 -4,4"/>
<!-- N57 -->
<g id="node1" class="node"><title>N57</title>
<path fill="#ffffff" stroke="#2e3436" stroke-width="1.5" d="M49.2383,-82.9219C49.2383,-82.9219 124.809,-82.9219 124.809,-82.9219 130.809,-82.9219 136.809,-88.9219 136.809,-94.9219 136.809,-94.9219 136.809,-106.922 136.809,-106.922 136.809,-112.922 130.809,-118.922 124.809,-118.922 124.809,-118.922 49.2383,-118.922 49.2383,-118.922 43.2383,-118.922 37.2383,-112.922 37.2383,-106.922 37.2383,-106.922 37.2383,-94.9219 37.2383,-94.9219 37.2383,-88.9219 43.2383,-82.9219 49.2383,-82.9219"/>
<text text-anchor="start" x="45.2383" y="-99.5219" font-family="FreeSans" font-size="8.00" fill="#1c2021">Node[57]name = &#39;Bill&#39;</text>
</g>
<!-- N59 -->
<g id="node2" class="node"><title>N59</title>
<path fill="#ffffff" stroke="#2e3436" stroke-width="1.5" d="M12,-0.5C12,-0.5 104.047,-0.5 104.047,-0.5 110.047,-0.5 116.047,-6.5 116.047,-12.5 116.047,-12.5 116.047,-24.5 116.047,-24.5 116.047,-30.5 110.047,-36.5 104.047,-36.5 104.047,-36.5 12,-36.5 12,-36.5 6,-36.5 0,-30.5 0,-24.5 0,-24.5 0,-12.5 0,-12.5 0,-6.5 6,-0.5 12,-0.5"/>
<text text-anchor="start" x="8" y="-17.1" font-family="FreeSans" font-size="8.00" fill="#1c2021">Node[59]name = &#39;Derrick&#39;</text>
</g>
<!-- N57&#45;&gt;N59 -->
<g id="edge1" class="edge"><title>N57&#45;&gt;N59</title>
<path fill="none" stroke="#2e3436" stroke-width="2" d="M80.4164,-82.6196C78.2369,-76.8437 75.8206,-70.3656 73.668,-64.4219 71.2829,-57.8364 68.761,-50.6838 66.4548,-44.0628"/>
<polygon fill="#2e3436" stroke="#2e3436" stroke-width="2" points="63.8677,-36.6002 69.5132,-42.5809 65.5684,-39.9796 66.7968,-43.5227 66.3244,-43.6865 65.852,-43.8502 64.6236,-40.3071 63.1356,-44.792 63.8677,-36.6002 63.8677,-36.6002"/>
<text text-anchor="middle" x="86.2012" y="-58.0219" font-family="FreeSans" font-size="8.00" fill="#2e3436">knows</text>
</g>
<!-- N60 -->
<g id="node3" class="node"><title>N60</title>
<path fill="#ffffff" stroke="#2e3436" stroke-width="1.5" d="M157.164,-0.5C157.164,-0.5 232.883,-0.5 232.883,-0.5 238.883,-0.5 244.883,-6.5 244.883,-12.5 244.883,-12.5 244.883,-24.5 244.883,-24.5 244.883,-30.5 238.883,-36.5 232.883,-36.5 232.883,-36.5 157.164,-36.5 157.164,-36.5 151.164,-36.5 145.164,-30.5 145.164,-24.5 145.164,-24.5 145.164,-12.5 145.164,-12.5 145.164,-6.5 151.164,-0.5 157.164,-0.5"/>
<text text-anchor="start" x="153.164" y="-17.1" font-family="FreeSans" font-size="8.00" fill="#1c2021">Node[60]name = &#39;Ian&#39;</text>
</g>
<!-- N57&#45;&gt;N60 -->
<g id="edge2" class="edge"><title>N57&#45;&gt;N60</title>
<path fill="none" stroke="#2e3436" stroke-width="2" d="M109.927,-82.8665C126.251,-70.7113 148.325,-54.274 165.9,-41.1867"/>
<polygon fill="#2e3436" stroke="#2e3436" stroke-width="2" points="172.152,-36.5308 168.153,-43.7172 169.443,-39.1716 166.436,-41.4113 166.137,-41.0102 165.838,-40.6092 168.846,-38.3695 164.121,-38.3033 172.152,-36.5308 172.152,-36.5308"/>
<text text-anchor="middle" x="157.201" y="-58.0219" font-family="FreeSans" font-size="8.00" fill="#2e3436">knows</text>
</g>
<!-- N58 -->
<g id="node4" class="node"><title>N58</title>
<path fill="#ffffff" stroke="#2e3436" stroke-width="1.5" d="M153.799,-165.344C153.799,-165.344 234.248,-165.344 234.248,-165.344 240.248,-165.344 246.248,-171.344 246.248,-177.344 246.248,-177.344 246.248,-189.344 246.248,-189.344 246.248,-195.344 240.248,-201.344 234.248,-201.344 234.248,-201.344 153.799,-201.344 153.799,-201.344 147.799,-201.344 141.799,-195.344 141.799,-189.344 141.799,-189.344 141.799,-177.344 141.799,-177.344 141.799,-171.344 147.799,-165.344 153.799,-165.344"/>
<text text-anchor="start" x="149.799" y="-181.944" font-family="FreeSans" font-size="8.00" fill="#1c2021">Node[58]name = &#39;Sara&#39;</text>
</g>
<!-- N58&#45;&gt;N57 -->
<g id="edge3" class="edge"><title>N58&#45;&gt;N57</title>
<path fill="none" stroke="#2e3436" stroke-width="2" d="M171.331,-165.288C155.159,-153.133 133.29,-136.696 115.877,-123.609"/>
<polygon fill="#2e3436" stroke="#2e3436" stroke-width="2" points="109.683,-118.953 117.706,-120.761 112.981,-120.806 115.978,-123.059 115.678,-123.459 115.378,-123.859 112.38,-121.605 113.65,-126.157 109.683,-118.953 109.683,-118.953"/>
<text text-anchor="middle" x="156.201" y="-140.444" font-family="FreeSans" font-size="8.00" fill="#2e3436">knows</text>
</g>
<!-- N58&#45;&gt;N60 -->
<g id="edge4" class="edge"><title>N58&#45;&gt;N60</title>
<path fill="none" stroke="#2e3436" stroke-width="2" d="M194.129,-165.224C194.306,-136.346 194.665,-77.837 194.87,-44.4082"/>
<polygon fill="#2e3436" stroke="#2e3436" stroke-width="2" points="194.917,-36.8801 198.245,-44.4007 195.394,-40.6331 195.371,-44.383 194.871,-44.38 194.371,-44.3769 194.394,-40.627 191.496,-44.3592 194.917,-36.8801 194.917,-36.8801"/>
<text text-anchor="middle" x="207.201" y="-99.2328" font-family="FreeSans" font-size="8.00" fill="#2e3436">knows</text>
</g>
<!-- N61 -->
<g id="node5" class="node"><title>N61</title>
<path fill="#ffffff" stroke="#2e3436" stroke-width="1.5" d="M260.295,-82.9219C260.295,-82.9219 333.752,-82.9219 333.752,-82.9219 339.752,-82.9219 345.752,-88.9219 345.752,-94.9219 345.752,-94.9219 345.752,-106.922 345.752,-106.922 345.752,-112.922 339.752,-118.922 333.752,-118.922 333.752,-118.922 260.295,-118.922 260.295,-118.922 254.295,-118.922 248.295,-112.922 248.295,-106.922 248.295,-106.922 248.295,-94.9219 248.295,-94.9219 248.295,-88.9219 254.295,-82.9219 260.295,-82.9219"/>
<text text-anchor="start" x="256.295" y="-99.5219" font-family="FreeSans" font-size="8.00" fill="#1c2021">Node[61]name = &#39;Jill&#39;</text>
</g>
<!-- N58&#45;&gt;N61 -->
<g id="edge5" class="edge"><title>N58&#45;&gt;N61</title>
<path fill="none" stroke="#2e3436" stroke-width="2" d="M215.867,-165.288C231.435,-153.133 252.487,-136.696 269.248,-123.609"/>
<polygon fill="#2e3436" stroke="#2e3436" stroke-width="2" points="275.211,-118.953 271.377,-126.229 272.563,-121.655 269.607,-123.962 269.3,-123.568 268.992,-123.174 271.948,-120.866 267.223,-120.908 275.211,-118.953 275.211,-118.953"/>
<text text-anchor="middle" x="263.201" y="-140.444" font-family="FreeSans" font-size="8.00" fill="#2e3436">knows</text>
</g>
<!-- N62 -->
<g id="node6" class="node"><title>N62</title>
<path fill="#ffffff" stroke="#2e3436" stroke-width="1.5" d="M88.0781,-247.766C88.0781,-247.766 163.969,-247.766 163.969,-247.766 169.969,-247.766 175.969,-253.766 175.969,-259.766 175.969,-259.766 175.969,-271.766 175.969,-271.766 175.969,-277.766 169.969,-283.766 163.969,-283.766 163.969,-283.766 88.0781,-283.766 88.0781,-283.766 82.0781,-283.766 76.0781,-277.766 76.0781,-271.766 76.0781,-271.766 76.0781,-259.766 76.0781,-259.766 76.0781,-253.766 82.0781,-247.766 88.0781,-247.766"/>
<text text-anchor="start" x="84.0781" y="-264.366" font-family="FreeSans" font-size="8.00" fill="#1c2021">Node[62]name = &#39;Joe&#39;</text>
</g>
<!-- N62&#45;&gt;N57 -->
<g id="edge6" class="edge"><title>N62&#45;&gt;N57</title>
<path fill="none" stroke="#2e3436" stroke-width="2" d="M118.631,-247.705C113.482,-235.214 106.818,-217.741 102.668,-201.844 96.0898,-176.646 91.8828,-147.107 89.5073,-126.714"/>
<polygon fill="#2e3436" stroke="#2e3436" stroke-width="2" points="88.6569,-119.108 92.8445,-126.186 89.5706,-122.779 89.9873,-126.506 89.4904,-126.561 88.9935,-126.617 88.5768,-122.89 86.1363,-126.937 88.6569,-119.108 88.6569,-119.108"/>
<text text-anchor="middle" x="115.201" y="-181.655" font-family="FreeSans" font-size="8.00" fill="#2e3436">knows</text>
</g>
<!-- N62&#45;&gt;N58 -->
<g id="edge7" class="edge"><title>N62&#45;&gt;N58</title>
<path fill="none" stroke="#2e3436" stroke-width="2" d="M140.444,-247.71C150.362,-235.982 163.65,-220.266 174.511,-207.42"/>
<polygon fill="#2e3436" stroke="#2e3436" stroke-width="2" points="179.623,-201.375 177.358,-209.281 177.584,-204.561 175.162,-207.425 174.781,-207.102 174.399,-206.779 176.82,-203.915 172.203,-204.923 179.623,-201.375 179.623,-201.375"/>
<text text-anchor="middle" x="177.201" y="-222.866" font-family="FreeSans" font-size="8.00" fill="#2e3436">knows</text>
</g>
</g>
</svg>
