<?xml version="1.0" encoding="UTF-8" standalone="no"?>
<!DOCTYPE svg PUBLIC "-//W3C//DTD SVG 1.1//EN"
 "http://www.w3.org/Graphics/SVG/1.1/DTD/svg11.dtd">
<!-- Generated by graphviz version 2.38.0 (20140413.2041)
 -->
<!-- Title: g Pages: 1 -->
<svg width="247pt" height="210pt"
 viewBox="0.00 0.00 246.95 209.84" xmlns="http://www.w3.org/2000/svg" xmlns:xlink="http://www.w3.org/1999/xlink">
<g id="graph0" class="graph" transform="scale(1 1) rotate(0) translate(4 205.844)">
<title>g</title>
<polygon fill="white" stroke="none" points="-4,4 -4,-205.844 242.953,-205.844 242.953,4 -4,4"/>
<!-- N20 -->
<g id="node1" class="node"><title>N20</title>
<path fill="#ffffff" stroke="#2e3436" stroke-width="1.5" d="M12,-0.5C12,-0.5 91.2383,-0.5 91.2383,-0.5 97.2383,-0.5 103.238,-6.5 103.238,-12.5 103.238,-12.5 103.238,-24.5 103.238,-24.5 103.238,-30.5 97.2383,-36.5 91.2383,-36.5 91.2383,-36.5 12,-36.5 12,-36.5 6,-36.5 0,-30.5 0,-24.5 0,-24.5 0,-12.5 0,-12.5 0,-6.5 6,-0.5 12,-0.5"/>
<text text-anchor="start" x="8" y="-17.1" font-family="FreeSans" font-size="8.00" fill="#1c2021">Node[20]name = &#39;cats&#39;</text>
</g>
<!-- N21 -->
<g id="node2" class="node"><title>N21</title>
<path fill="#ffffff" stroke="#2e3436" stroke-width="1.5" d="M144.285,-0.5C144.285,-0.5 226.953,-0.5 226.953,-0.5 232.953,-0.5 238.953,-6.5 238.953,-12.5 238.953,-12.5 238.953,-24.5 238.953,-24.5 238.953,-30.5 232.953,-36.5 226.953,-36.5 226.953,-36.5 144.285,-36.5 144.285,-36.5 138.285,-36.5 132.285,-30.5 132.285,-24.5 132.285,-24.5 132.285,-12.5 132.285,-12.5 132.285,-6.5 138.285,-0.5 144.285,-0.5"/>
<text text-anchor="start" x="140.285" y="-17.1" font-family="FreeSans" font-size="8.00" fill="#1c2021">Node[21]name = &#39;dogs&#39;</text>
</g>
<!-- N22 -->
<g id="node3" class="node"><title>N22</title>
<path fill="#ffffff" stroke="#2e3436" stroke-width="1.5" d="M53.4512,-165.344C53.4512,-165.344 119.787,-165.344 119.787,-165.344 125.787,-165.344 131.787,-171.344 131.787,-177.344 131.787,-177.344 131.787,-189.344 131.787,-189.344 131.787,-195.344 125.787,-201.344 119.787,-201.344 119.787,-201.344 53.4512,-201.344 53.4512,-201.344 47.4512,-201.344 41.4512,-195.344 41.4512,-189.344 41.4512,-189.344 41.4512,-177.344 41.4512,-177.344 41.4512,-171.344 47.4512,-165.344 53.4512,-165.344"/>
<text text-anchor="start" x="49.4512" y="-181.944" font-family="FreeSans" font-size="8.00" fill="#1c2021">Node[22]name = &#39;I&#39;</text>
</g>
<!-- N22&#45;&gt;N20 -->
<g id="edge2" class="edge"><title>N22&#45;&gt;N20</title>
<path fill="none" stroke="#4e9a06" stroke-width="2" d="M80.4704,-165.178C76.1689,-152.636 70.563,-135.145 66.9199,-119.422 61.0449,-94.0651 56.8416,-64.5511 54.345,-44.2076"/>
<polygon fill="#4e9a06" stroke="#4e9a06" stroke-width="2" points="53.441,-36.6221 57.6799,-43.67 54.3813,-40.2866 54.8251,-44.0103 54.3286,-44.0694 53.8321,-44.1286 53.3883,-40.4049 50.9773,-44.4688 53.441,-36.6221 53.441,-36.6221"/>
<text text-anchor="middle" x="74.4688" y="-99.2328" font-family="FreeSans" font-size="8.00" fill="#4e9a06">like</text>
</g>
<!-- N23 -->
<g id="node4" class="node"><title>N23</title>
<path fill="#ffffff" stroke="#2e3436" stroke-width="1.5" d="M106.674,-82.9219C106.674,-82.9219 182.564,-82.9219 182.564,-82.9219 188.564,-82.9219 194.564,-88.9219 194.564,-94.9219 194.564,-94.9219 194.564,-106.922 194.564,-106.922 194.564,-112.922 188.564,-118.922 182.564,-118.922 182.564,-118.922 106.674,-118.922 106.674,-118.922 100.674,-118.922 94.6738,-112.922 94.6738,-106.922 94.6738,-106.922 94.6738,-94.9219 94.6738,-94.9219 94.6738,-88.9219 100.674,-82.9219 106.674,-82.9219"/>
<text text-anchor="start" x="102.674" y="-99.5219" font-family="FreeSans" font-size="8.00" fill="#1c2021">Node[23]name = &#39;Joe&#39;</text>
</g>
<!-- N22&#45;&gt;N23 -->
<g id="edge1" class="edge"><title>N22&#45;&gt;N23</title>
<path fill="none" stroke="#2e3436" stroke-width="2" d="M98.9194,-165.288C107.301,-153.666 118.506,-138.13 127.723,-125.349"/>
<polygon fill="#2e3436" stroke="#2e3436" stroke-width="2" points="132.337,-118.953 130.687,-127.01 130.549,-122.287 128.355,-125.328 127.949,-125.036 127.544,-124.743 129.737,-121.702 125.212,-123.062 132.337,-118.953 132.337,-118.953"/>
<text text-anchor="middle" x="129.947" y="-140.444" font-family="FreeSans" font-size="8.00" fill="#2e3436">know</text>
</g>
<!-- N23&#45;&gt;N20 -->
<g id="edge3" class="edge"><title>N23&#45;&gt;N20</title>
<path fill="none" stroke="#4e9a06" stroke-width="2" d="M124.896,-82.8665C110.963,-70.818 92.165,-54.5621 77.0969,-41.5319"/>
<polygon fill="#4e9a06" stroke="#4e9a06" stroke-width="2" points="71.3136,-36.5308 79.1943,-38.8838 74.4772,-38.6055 77.3137,-41.0584 76.9867,-41.4366 76.6596,-41.8148 73.8231,-39.3619 74.7791,-43.9895 71.3136,-36.5308 71.3136,-36.5308"/>
<text text-anchor="middle" x="108.469" y="-58.0219" font-family="FreeSans" font-size="8.00" fill="#4e9a06">like</text>
</g>
<!-- N23&#45;&gt;N21 -->
<g id="edge4" class="edge"><title>N23&#45;&gt;N21</title>
<path fill="none" stroke="#4e9a06" stroke-width="2" d="M153.314,-82.8665C159.185,-71.3511 167.015,-55.9924 173.496,-43.2799"/>
<polygon fill="#4e9a06" stroke="#4e9a06" stroke-width="2" points="176.937,-36.5308 176.537,-44.7455 175.679,-40.0988 173.976,-43.4397 173.53,-43.2126 173.085,-42.9855 174.788,-39.6446 170.523,-41.6797 176.937,-36.5308 176.937,-36.5308"/>
<text text-anchor="middle" x="173.469" y="-58.0219" font-family="FreeSans" font-size="8.00" fill="#4e9a06">like</text>
</g>
</g>
</svg>
