<?xml version="1.0" encoding="UTF-8" standalone="no"?>
<!DOCTYPE svg PUBLIC "-//W3C//DTD SVG 1.1//EN"
 "http://www.w3.org/Graphics/SVG/1.1/DTD/svg11.dtd">
<!-- Generated by graphviz version 2.38.0 (20140413.2041)
 -->
<!-- Title: g Pages: 1 -->
<svg width="241pt" height="127pt"
 viewBox="0.00 0.00 241.08 127.42" xmlns="http://www.w3.org/2000/svg" xmlns:xlink="http://www.w3.org/1999/xlink">
<g id="graph0" class="graph" transform="scale(1 1) rotate(0) translate(4 123.422)">
<title>g</title>
<polygon fill="white" stroke="none" points="-4,4 -4,-123.422 237.084,-123.422 237.084,4 -4,4"/>
<!-- N48 -->
<g id="node1" class="node"><title>N48</title>
<path fill="#ffffff" stroke="#2e3436" stroke-width="1.5" d="M12,-0.5C12,-0.5 92.4492,-0.5 92.4492,-0.5 98.4492,-0.5 104.449,-6.5 104.449,-12.5 104.449,-12.5 104.449,-24.5 104.449,-24.5 104.449,-30.5 98.4492,-36.5 92.4492,-36.5 92.4492,-36.5 12,-36.5 12,-36.5 6,-36.5 0,-30.5 0,-24.5 0,-24.5 0,-12.5 0,-12.5 0,-6.5 6,-0.5 12,-0.5"/>
<text text-anchor="start" x="8" y="-17.1" font-family="FreeSans" font-size="8.00" fill="#1c2021">Node[48]name = &#39;Sara&#39;</text>
</g>
<!-- N49 -->
<g id="node2" class="node"><title>N49</title>
<path fill="#ffffff" stroke="#2e3436" stroke-width="1.5" d="M145.365,-0.5C145.365,-0.5 221.084,-0.5 221.084,-0.5 227.084,-0.5 233.084,-6.5 233.084,-12.5 233.084,-12.5 233.084,-24.5 233.084,-24.5 233.084,-30.5 227.084,-36.5 221.084,-36.5 221.084,-36.5 145.365,-36.5 145.365,-36.5 139.365,-36.5 133.365,-30.5 133.365,-24.5 133.365,-24.5 133.365,-12.5 133.365,-12.5 133.365,-6.5 139.365,-0.5 145.365,-0.5"/>
<text text-anchor="start" x="141.365" y="-17.1" font-family="FreeSans" font-size="8.00" fill="#1c2021">Node[49]name = &#39;Ian&#39;</text>
</g>
<!-- N50 -->
<g id="node3" class="node"><title>N50</title>
<path fill="#ffffff" stroke="#2e3436" stroke-width="1.5" d="M71.2734,-82.9219C71.2734,-82.9219 163.176,-82.9219 163.176,-82.9219 169.176,-82.9219 175.176,-88.9219 175.176,-94.9219 175.176,-94.9219 175.176,-106.922 175.176,-106.922 175.176,-112.922 169.176,-118.922 163.176,-118.922 163.176,-118.922 71.2734,-118.922 71.2734,-118.922 65.2734,-118.922 59.2734,-112.922 59.2734,-106.922 59.2734,-106.922 59.2734,-94.9219 59.2734,-94.9219 59.2734,-88.9219 65.2734,-82.9219 71.2734,-82.9219"/>
<text text-anchor="start" x="67.2734" y="-99.5219" font-family="FreeSans" font-size="8.00" fill="#1c2021">Node[50]name = &#39;George&#39;</text>
</g>
<!-- N50&#45;&gt;N48 -->
<g id="edge1" class="edge"><title>N50&#45;&gt;N48</title>
<path fill="none" stroke="#2e3436" stroke-width="2" d="M103.44,-82.8665C93.9603,-71.1378 81.2583,-55.4222 70.8758,-42.5764"/>
<polygon fill="#2e3436" stroke="#2e3436" stroke-width="2" points="65.9896,-36.5308 73.3289,-40.2423 68.7357,-39.133 71.0929,-42.0496 70.7041,-42.3639 70.3152,-42.6782 67.9579,-39.7616 68.0792,-44.4854 65.9896,-36.5308 65.9896,-36.5308"/>
<text text-anchor="middle" x="99.4023" y="-58.0219" font-family="FreeSans" font-size="8.00" fill="#2e3436">knows</text>
</g>
<!-- N50&#45;&gt;N49 -->
<g id="edge2" class="edge"><title>N50&#45;&gt;N49</title>
<path fill="none" stroke="#2e3436" stroke-width="2" d="M131.222,-82.8665C140.847,-71.1378 153.744,-55.4222 164.286,-42.5764"/>
<polygon fill="#2e3436" stroke="#2e3436" stroke-width="2" points="169.248,-36.5308 167.099,-44.4695 167.255,-39.7468 164.876,-42.6456 164.49,-42.3284 164.103,-42.0112 166.482,-39.1124 161.881,-40.1874 169.248,-36.5308 169.248,-36.5308"/>
<text text-anchor="middle" x="163.402" y="-58.0219" font-family="FreeSans" font-size="8.00" fill="#2e3436">knows</text>
</g>
</g>
</svg>
