<?xml version="1.0" encoding="UTF-8" standalone="no"?>
<!DOCTYPE svg PUBLIC "-//W3C//DTD SVG 1.1//EN"
 "http://www.w3.org/Graphics/SVG/1.1/DTD/svg11.dtd">
<!-- Generated by graphviz version 2.30.1 (20130318.1259)
 -->
<!-- Title: g Pages: 1 -->
<svg width="169pt" height="136pt"
 viewBox="0.00 0.00 169.00 136.00" xmlns="http://www.w3.org/2000/svg" xmlns:xlink="http://www.w3.org/1999/xlink">
<g id="graph0" class="graph" transform="scale(1 1) rotate(0) translate(4 132)">
<title>g</title>
<polygon fill="white" stroke="white" points="-4,5 -4,-132 166,-132 166,5 -4,5"/>
<!-- N49 -->
<g id="node1" class="node"><title>N49</title>
<path fill="#ffffff" stroke="#2e3436" stroke-width="1.5" d="M11.5938,-0.69375C11.5938,-0.69375 56.4062,-0.69375 56.4062,-0.69375 62.4062,-0.69375 68.4062,-6.69375 68.4062,-12.6938 68.4062,-12.6938 68.4062,-27.3063 68.4062,-27.3063 68.4062,-33.3062 62.4062,-39.3062 56.4062,-39.3062 56.4062,-39.3062 11.5938,-39.3062 11.5938,-39.3062 5.59375,-39.3062 -0.40625,-33.3062 -0.40625,-27.3062 -0.40625,-27.3062 -0.40625,-12.6937 -0.40625,-12.6937 -0.40625,-6.69375 5.59375,-0.69375 11.5938,-0.69375"/>
<text text-anchor="middle" x="34" y="-27.3062" font-family="FreeSans" font-size="8.00" fill="#1c2021">Node[49]</text>
<polyline fill="none" stroke="#2e3436" stroke-width="1.5" points="-0.40625,-20 68.4062,-20 "/>
<text text-anchor="start" x="7.59375" y="-8" font-family="FreeSans" font-size="8.00" fill="#1c2021">name = &#39;Sara&#39;</text>
</g>
<!-- N50 -->
<g id="node2" class="node"><title>N50</title>
<path fill="#ffffff" stroke="#2e3436" stroke-width="1.5" d="M108.959,-0.69375C108.959,-0.69375 149.041,-0.69375 149.041,-0.69375 155.041,-0.69375 161.041,-6.69375 161.041,-12.6938 161.041,-12.6938 161.041,-27.3063 161.041,-27.3063 161.041,-33.3062 155.041,-39.3062 149.041,-39.3062 149.041,-39.3062 108.959,-39.3062 108.959,-39.3062 102.959,-39.3062 96.959,-33.3062 96.959,-27.3062 96.959,-27.3062 96.959,-12.6937 96.959,-12.6937 96.959,-6.69375 102.959,-0.69375 108.959,-0.69375"/>
<text text-anchor="middle" x="129" y="-27.3062" font-family="FreeSans" font-size="8.00" fill="#1c2021">Node[50]</text>
<polyline fill="none" stroke="#2e3436" stroke-width="1.5" points="96.959,-20 161.041,-20 "/>
<text text-anchor="start" x="104.959" y="-8" font-family="FreeSans" font-size="8.00" fill="#1c2021">name = &#39;Ian&#39;</text>
</g>
<!-- N51 -->
<g id="node3" class="node"><title>N51</title>
<path fill="#ffffff" stroke="#2e3436" stroke-width="1.5" d="M52.8672,-88.6937C52.8672,-88.6937 109.133,-88.6937 109.133,-88.6937 115.133,-88.6937 121.133,-94.6937 121.133,-100.694 121.133,-100.694 121.133,-115.306 121.133,-115.306 121.133,-121.306 115.133,-127.306 109.133,-127.306 109.133,-127.306 52.8672,-127.306 52.8672,-127.306 46.8672,-127.306 40.8672,-121.306 40.8672,-115.306 40.8672,-115.306 40.8672,-100.694 40.8672,-100.694 40.8672,-94.6937 46.8672,-88.6937 52.8672,-88.6937"/>
<text text-anchor="middle" x="81" y="-115.306" font-family="FreeSans" font-size="8.00" fill="#1c2021">Node[51]</text>
<polyline fill="none" stroke="#2e3436" stroke-width="1.5" points="40.8672,-108 121.133,-108 "/>
<text text-anchor="start" x="48.8672" y="-96" font-family="FreeSans" font-size="8.00" fill="#1c2021">name = &#39;George&#39;</text>
</g>
<!-- N51&#45;&gt;N49 -->
<g id="edge1" class="edge"><title>N51&#45;&gt;N49</title>
<path fill="none" stroke="#2e3436" stroke-width="2" d="M70.8017,-88.3393C64.0424,-75.9713 55.0941,-59.5976 47.7136,-46.093"/>
<polygon fill="#2e3436" stroke="#2e3436" points="44.0169,-39.3289 50.5753,-44.2916 46.2541,-42.3797 48.0525,-45.6704 47.6137,-45.9102 47.175,-46.1499 45.3766,-42.8593 44.6521,-47.5287 44.0169,-39.3289 44.0169,-39.3289"/>
<text text-anchor="middle" x="73.3984" y="-61.6531" font-family="FreeSans" font-size="8.00" fill="#2e3436">knows</text>
</g>
<!-- N51&#45;&gt;N50 -->
<g id="edge2" class="edge"><title>N51&#45;&gt;N50</title>
<path fill="none" stroke="#2e3436" stroke-width="2" d="M91.4153,-88.3393C98.3184,-75.9713 107.457,-59.5976 114.995,-46.093"/>
<polygon fill="#2e3436" stroke="#2e3436" points="118.77,-39.3289 118.062,-47.5227 117.379,-42.847 115.551,-46.1215 115.115,-45.8779 114.678,-45.6342 116.506,-42.3597 112.168,-44.233 118.77,-39.3289 118.77,-39.3289"/>
<text text-anchor="middle" x="120.398" y="-61.6531" font-family="FreeSans" font-size="8.00" fill="#2e3436">knows</text>
</g>
</g>
</svg>
