<?xml version="1.0" encoding="UTF-8" standalone="no"?>
<!DOCTYPE svg PUBLIC "-//W3C//DTD SVG 1.1//EN"
 "http://www.w3.org/Graphics/SVG/1.1/DTD/svg11.dtd">
<!-- Generated by graphviz version 2.30.1 (20130318.1259)
 -->
<!-- Title: g Pages: 1 -->
<svg width="151pt" height="136pt"
 viewBox="0.00 0.00 151.00 136.00" xmlns="http://www.w3.org/2000/svg" xmlns:xlink="http://www.w3.org/1999/xlink">
<g id="graph0" class="graph" transform="scale(1 1) rotate(0) translate(4 132)">
<title>g</title>
<polygon fill="white" stroke="white" points="-4,5 -4,-132 148,-132 148,5 -4,5"/>
<!-- N0 -->
<g id="node1" class="node"><title>N0</title>
<path fill="#ffffff" stroke="#2e3436" stroke-width="1.5" d="M12,-88.6937C12,-88.6937 42,-88.6937 42,-88.6937 48,-88.6937 54,-94.6937 54,-100.694 54,-100.694 54,-115.306 54,-115.306 54,-121.306 48,-127.306 42,-127.306 42,-127.306 12,-127.306 12,-127.306 6,-127.306 0,-121.306 0,-115.306 0,-115.306 0,-100.694 0,-100.694 0,-94.6937 6,-88.6937 12,-88.6937"/>
<text text-anchor="middle" x="26.7891" y="-115.306" font-family="FreeSans" font-size="8.00" fill="#1c2021">Node[0]</text>
<polyline fill="none" stroke="#2e3436" stroke-width="1.5" points="0,-108 53.5781,-108 "/>
<text text-anchor="middle" x="26.7891" y="-96" font-family="FreeSans" font-size="8.00" fill="#1c2021"> </text>
</g>
<!-- N1 -->
<g id="node2" class="node"><title>N1</title>
<path fill="#ffffff" stroke="#2e3436" stroke-width="1.5" d="M88.7734,-0.69375C88.7734,-0.69375 131.227,-0.69375 131.227,-0.69375 137.227,-0.69375 143.227,-6.69375 143.227,-12.6938 143.227,-12.6938 143.227,-27.3063 143.227,-27.3063 143.227,-33.3062 137.227,-39.3062 131.227,-39.3062 131.227,-39.3062 88.7734,-39.3062 88.7734,-39.3062 82.7734,-39.3062 76.7734,-33.3062 76.7734,-27.3062 76.7734,-27.3062 76.7734,-12.6937 76.7734,-12.6937 76.7734,-6.69375 82.7734,-0.69375 88.7734,-0.69375"/>
<text text-anchor="middle" x="110" y="-27.3062" font-family="FreeSans" font-size="8.00" fill="#1c2021">Node[1]</text>
<polyline fill="none" stroke="#2e3436" stroke-width="1.5" points="76.7734,-20 143.227,-20 "/>
<text text-anchor="start" x="84.7734" y="-8" font-family="FreeSans" font-size="8.00" fill="#1c2021">name = &#39;you&#39;</text>
</g>
<!-- N2 -->
<g id="node3" class="node"><title>N2</title>
<path fill="#ffffff" stroke="#2e3436" stroke-width="1.5" d="M94.6504,-88.6937C94.6504,-88.6937 125.35,-88.6937 125.35,-88.6937 131.35,-88.6937 137.35,-94.6937 137.35,-100.694 137.35,-100.694 137.35,-115.306 137.35,-115.306 137.35,-121.306 131.35,-127.306 125.35,-127.306 125.35,-127.306 94.6504,-127.306 94.6504,-127.306 88.6504,-127.306 82.6504,-121.306 82.6504,-115.306 82.6504,-115.306 82.6504,-100.694 82.6504,-100.694 82.6504,-94.6937 88.6504,-88.6937 94.6504,-88.6937"/>
<text text-anchor="middle" x="110" y="-115.306" font-family="FreeSans" font-size="8.00" fill="#1c2021">Node[2]</text>
<polyline fill="none" stroke="#2e3436" stroke-width="1.5" points="82.6504,-108 137.35,-108 "/>
<text text-anchor="start" x="90.6504" y="-96" font-family="FreeSans" font-size="8.00" fill="#1c2021">name = &#39;I&#39;</text>
</g>
<!-- N2&#45;&gt;N1 -->
<g id="edge1" class="edge"><title>N2&#45;&gt;N1</title>
<path fill="none" stroke="#2e3436" stroke-width="2" d="M110,-88.3393C110,-76.1982 110,-60.1972 110,-46.8392"/>
<polygon fill="#2e3436" stroke="#2e3436" points="110,-39.3289 113.375,-46.8288 110.5,-43.0788 110.5,-46.8288 110,-46.8289 109.5,-46.8289 109.5,-43.0789 106.625,-46.8289 110,-39.3289 110,-39.3289"/>
<text text-anchor="middle" x="120.359" y="-61.6531" font-family="FreeSans" font-size="8.00" fill="#2e3436">know</text>
</g>
</g>
</svg>
