<?xml version="1.0" encoding="UTF-8" standalone="no"?>
<!DOCTYPE svg PUBLIC "-//W3C//DTD SVG 1.1//EN"
 "http://www.w3.org/Graphics/SVG/1.1/DTD/svg11.dtd">
<!-- Generated by graphviz version 2.30.1 (20130318.1259)
 -->
<!-- Title: g Pages: 1 -->
<svg width="80pt" height="224pt"
 viewBox="0.00 0.00 80.00 224.00" xmlns="http://www.w3.org/2000/svg" xmlns:xlink="http://www.w3.org/1999/xlink">
<g id="graph0" class="graph" transform="scale(1 1) rotate(0) translate(4 220)">
<title>g</title>
<polygon fill="white" stroke="white" points="-4,5 -4,-220 77,-220 77,5 -4,5"/>
<!-- N46 -->
<g id="node1" class="node"><title>N46</title>
<path fill="#ffffff" stroke="#2e3436" stroke-width="1.5" d="M11.127,-176.694C11.127,-176.694 60.873,-176.694 60.873,-176.694 66.873,-176.694 72.873,-182.694 72.873,-188.694 72.873,-188.694 72.873,-203.306 72.873,-203.306 72.873,-209.306 66.873,-215.306 60.873,-215.306 60.873,-215.306 11.127,-215.306 11.127,-215.306 5.12695,-215.306 -0.873047,-209.306 -0.873047,-203.306 -0.873047,-203.306 -0.873047,-188.694 -0.873047,-188.694 -0.873047,-182.694 5.12695,-176.694 11.127,-176.694"/>
<text text-anchor="middle" x="36" y="-203.306" font-family="FreeSans" font-size="8.00" fill="#1c2021">Node[46]</text>
<polyline fill="none" stroke="#2e3436" stroke-width="1.5" points="-0.873047,-196 72.873,-196 "/>
<text text-anchor="start" x="7.12695" y="-184" font-family="FreeSans" font-size="8.00" fill="#1c2021">name = &#39;Marie&#39;</text>
</g>
<!-- N48 -->
<g id="node2" class="node"><title>N48</title>
<path fill="#ffffff" stroke="#2e3436" stroke-width="1.5" d="M12.002,-88.6937C12.002,-88.6937 59.998,-88.6937 59.998,-88.6937 65.998,-88.6937 71.998,-94.6937 71.998,-100.694 71.998,-100.694 71.998,-115.306 71.998,-115.306 71.998,-121.306 65.998,-127.306 59.998,-127.306 59.998,-127.306 12.002,-127.306 12.002,-127.306 6.00195,-127.306 0.00195312,-121.306 0.00195312,-115.306 0.00195312,-115.306 0.00195312,-100.694 0.00195312,-100.694 0.00195312,-94.6937 6.00195,-88.6937 12.002,-88.6937"/>
<text text-anchor="middle" x="36" y="-115.306" font-family="FreeSans" font-size="8.00" fill="#1c2021">Node[48]</text>
<polyline fill="none" stroke="#2e3436" stroke-width="1.5" points="0.00195312,-108 71.998,-108 "/>
<text text-anchor="start" x="8.00195" y="-96" font-family="FreeSans" font-size="8.00" fill="#1c2021">name = &#39;Peter&#39;</text>
</g>
<!-- N46&#45;&gt;N48 -->
<g id="edge1" class="edge"><title>N46&#45;&gt;N48</title>
<path fill="none" stroke="#2e3436" stroke-width="2" d="M36,-176.339C36,-164.198 36,-148.197 36,-134.839"/>
<polygon fill="#2e3436" stroke="#2e3436" points="36,-127.329 39.3751,-134.829 36.5,-131.079 36.5001,-134.829 36.0001,-134.829 35.5001,-134.829 35.5,-131.079 32.6251,-134.829 36,-127.329 36,-127.329"/>
<text text-anchor="middle" x="44.918" y="-149.653" font-family="FreeSans" font-size="8.00" fill="#2e3436">likes</text>
</g>
<!-- N47 -->
<g id="node3" class="node"><title>N47</title>
<path fill="#ffffff" stroke="#2e3436" stroke-width="1.5" d="M15.959,-0.69375C15.959,-0.69375 56.041,-0.69375 56.041,-0.69375 62.041,-0.69375 68.041,-6.69375 68.041,-12.6938 68.041,-12.6938 68.041,-27.3063 68.041,-27.3063 68.041,-33.3062 62.041,-39.3062 56.041,-39.3062 56.041,-39.3062 15.959,-39.3062 15.959,-39.3062 9.95898,-39.3062 3.95898,-33.3062 3.95898,-27.3062 3.95898,-27.3062 3.95898,-12.6937 3.95898,-12.6937 3.95898,-6.69375 9.95898,-0.69375 15.959,-0.69375"/>
<text text-anchor="middle" x="36" y="-27.3062" font-family="FreeSans" font-size="8.00" fill="#1c2021">Node[47]</text>
<polyline fill="none" stroke="#2e3436" stroke-width="1.5" points="3.95898,-20 68.041,-20 "/>
<text text-anchor="start" x="11.959" y="-8" font-family="FreeSans" font-size="8.00" fill="#1c2021">name = &#39;Ian&#39;</text>
</g>
<!-- N48&#45;&gt;N47 -->
<g id="edge3" class="edge"><title>N48&#45;&gt;N47</title>
<path fill="none" stroke="#4e9a06" stroke-width="2" d="M15.5754,-88.3709C10.9492,-82.9479 6.67579,-76.6711 4.20312,-70 1.06409,-61.5311 3.95773,-53.0242 9.06643,-45.5307"/>
<polygon fill="#4e9a06" stroke="#4e9a06" points="13.7949,-39.4977 11.8247,-47.4826 11.8752,-42.7576 9.56188,-45.7091 9.16834,-45.4007 8.77481,-45.0922 11.0881,-42.1407 6.51199,-43.3187 13.7949,-39.4977 13.7949,-39.4977"/>
<text text-anchor="middle" x="17.3984" y="-61.6531" font-family="FreeSans" font-size="8.00" fill="#4e9a06">knows</text>
</g>
<!-- N47&#45;&gt;N48 -->
<g id="edge2" class="edge"><title>N47&#45;&gt;N48</title>
<path fill="none" stroke="#4e9a06" stroke-width="2" d="M36,-39.3289C36,-51.3988 36,-67.3882 36,-80.7939"/>
<polygon fill="#4e9a06" stroke="#4e9a06" points="36,-88.3393 32.6251,-80.8392 35.5,-84.5893 35.5001,-80.8393 36.0001,-80.8393 36.5001,-80.8393 36.5,-84.5893 39.3751,-80.8393 36,-88.3393 36,-88.3393"/>
<text text-anchor="middle" x="48.3984" y="-61.6531" font-family="FreeSans" font-size="8.00" fill="#4e9a06">knows</text>
</g>
</g>
</svg>
