<?xml version="1.0" encoding="UTF-8" standalone="no"?>
<!DOCTYPE svg PUBLIC "-//W3C//DTD SVG 1.1//EN"
 "http://www.w3.org/Graphics/SVG/1.1/DTD/svg11.dtd">
<!-- Generated by graphviz version 2.30.1 (20130318.1259)
 -->
<!-- Title: g Pages: 1 -->
<svg width="267pt" height="312pt"
 viewBox="0.00 0.00 267.00 312.00" xmlns="http://www.w3.org/2000/svg" xmlns:xlink="http://www.w3.org/1999/xlink">
<g id="graph0" class="graph" transform="scale(1 1) rotate(0) translate(4 308)">
<title>g</title>
<polygon fill="white" stroke="white" points="-4,5 -4,-308 264,-308 264,5 -4,5"/>
<!-- N58 -->
<g id="node1" class="node"><title>N58</title>
<path fill="#ffffff" stroke="#2e3436" stroke-width="1.5" d="M32.0332,-88.6937C32.0332,-88.6937 71.9668,-88.6937 71.9668,-88.6937 77.9668,-88.6937 83.9668,-94.6937 83.9668,-100.694 83.9668,-100.694 83.9668,-115.306 83.9668,-115.306 83.9668,-121.306 77.9668,-127.306 71.9668,-127.306 71.9668,-127.306 32.0332,-127.306 32.0332,-127.306 26.0332,-127.306 20.0332,-121.306 20.0332,-115.306 20.0332,-115.306 20.0332,-100.694 20.0332,-100.694 20.0332,-94.6937 26.0332,-88.6937 32.0332,-88.6937"/>
<text text-anchor="middle" x="52" y="-115.306" font-family="FreeSans" font-size="8.00" fill="#1c2021">Node[58]</text>
<polyline fill="none" stroke="#2e3436" stroke-width="1.5" points="20.0332,-108 83.9668,-108 "/>
<text text-anchor="start" x="28.0332" y="-96" font-family="FreeSans" font-size="8.00" fill="#1c2021">name = &#39;Bill&#39;</text>
</g>
<!-- N60 -->
<g id="node2" class="node"><title>N60</title>
<path fill="#ffffff" stroke="#2e3436" stroke-width="1.5" d="M11.7617,-0.69375C11.7617,-0.69375 68.2383,-0.69375 68.2383,-0.69375 74.2383,-0.69375 80.2383,-6.69375 80.2383,-12.6938 80.2383,-12.6938 80.2383,-27.3063 80.2383,-27.3063 80.2383,-33.3062 74.2383,-39.3062 68.2383,-39.3062 68.2383,-39.3062 11.7617,-39.3062 11.7617,-39.3062 5.76172,-39.3062 -0.238281,-33.3062 -0.238281,-27.3062 -0.238281,-27.3062 -0.238281,-12.6937 -0.238281,-12.6937 -0.238281,-6.69375 5.76172,-0.69375 11.7617,-0.69375"/>
<text text-anchor="middle" x="40" y="-27.3062" font-family="FreeSans" font-size="8.00" fill="#1c2021">Node[60]</text>
<polyline fill="none" stroke="#2e3436" stroke-width="1.5" points="-0.238281,-20 80.2383,-20 "/>
<text text-anchor="start" x="7.76172" y="-8" font-family="FreeSans" font-size="8.00" fill="#1c2021">name = &#39;Derrick&#39;</text>
</g>
<!-- N58&#45;&gt;N60 -->
<g id="edge1" class="edge"><title>N58&#45;&gt;N60</title>
<path fill="none" stroke="#2e3436" stroke-width="2" d="M43.6465,-88.5432C41.4195,-82.7313 39.3227,-76.207 38.2031,-70 36.8937,-62.7404 36.6766,-54.781 36.9624,-47.4274"/>
<polygon fill="#2e3436" stroke="#2e3436" points="37.442,-39.7475 40.3429,-47.4433 37.7073,-43.5214 37.4735,-47.2641 36.9745,-47.2329 36.4754,-47.2017 36.7092,-43.459 33.606,-47.0225 37.442,-39.7475 37.442,-39.7475"/>
<text text-anchor="middle" x="51.3984" y="-61.6531" font-family="FreeSans" font-size="8.00" fill="#2e3436">knows</text>
</g>
<!-- N61 -->
<g id="node3" class="node"><title>N61</title>
<path fill="#ffffff" stroke="#2e3436" stroke-width="1.5" d="M121.959,-0.69375C121.959,-0.69375 162.041,-0.69375 162.041,-0.69375 168.041,-0.69375 174.041,-6.69375 174.041,-12.6938 174.041,-12.6938 174.041,-27.3063 174.041,-27.3063 174.041,-33.3062 168.041,-39.3062 162.041,-39.3062 162.041,-39.3062 121.959,-39.3062 121.959,-39.3062 115.959,-39.3062 109.959,-33.3062 109.959,-27.3062 109.959,-27.3062 109.959,-12.6937 109.959,-12.6937 109.959,-6.69375 115.959,-0.69375 121.959,-0.69375"/>
<text text-anchor="middle" x="142" y="-27.3062" font-family="FreeSans" font-size="8.00" fill="#1c2021">Node[61]</text>
<polyline fill="none" stroke="#2e3436" stroke-width="1.5" points="109.959,-20 174.041,-20 "/>
<text text-anchor="start" x="117.959" y="-8" font-family="FreeSans" font-size="8.00" fill="#1c2021">name = &#39;Ian&#39;</text>
</g>
<!-- N58&#45;&gt;N61 -->
<g id="edge2" class="edge"><title>N58&#45;&gt;N61</title>
<path fill="none" stroke="#2e3436" stroke-width="2" d="M68.1782,-88.2905C76.5545,-78.9117 87.1172,-67.5483 97.2031,-58 101.942,-53.5141 107.146,-48.9328 112.277,-44.5907"/>
<polygon fill="#2e3436" stroke="#2e3436" points="118.236,-39.6235 114.636,-47.0182 115.676,-42.4087 112.796,-44.8098 112.475,-44.4258 112.155,-44.0417 115.036,-41.6406 110.314,-41.8333 118.236,-39.6235 118.236,-39.6235"/>
<text text-anchor="middle" x="110.398" y="-61.6531" font-family="FreeSans" font-size="8.00" fill="#2e3436">knows</text>
</g>
<!-- N59 -->
<g id="node4" class="node"><title>N59</title>
<path fill="#ffffff" stroke="#2e3436" stroke-width="1.5" d="M118.594,-176.694C118.594,-176.694 163.406,-176.694 163.406,-176.694 169.406,-176.694 175.406,-182.694 175.406,-188.694 175.406,-188.694 175.406,-203.306 175.406,-203.306 175.406,-209.306 169.406,-215.306 163.406,-215.306 163.406,-215.306 118.594,-215.306 118.594,-215.306 112.594,-215.306 106.594,-209.306 106.594,-203.306 106.594,-203.306 106.594,-188.694 106.594,-188.694 106.594,-182.694 112.594,-176.694 118.594,-176.694"/>
<text text-anchor="middle" x="141" y="-203.306" font-family="FreeSans" font-size="8.00" fill="#1c2021">Node[59]</text>
<polyline fill="none" stroke="#2e3436" stroke-width="1.5" points="106.594,-196 175.406,-196 "/>
<text text-anchor="start" x="114.594" y="-184" font-family="FreeSans" font-size="8.00" fill="#1c2021">name = &#39;Sara&#39;</text>
</g>
<!-- N59&#45;&gt;N58 -->
<g id="edge3" class="edge"><title>N59&#45;&gt;N58</title>
<path fill="none" stroke="#2e3436" stroke-width="2" d="M117.799,-176.318C111.009,-170.607 103.674,-164.195 97.2031,-158 89.2083,-150.347 80.879,-141.574 73.5807,-133.586"/>
<polygon fill="#2e3436" stroke="#2e3436" points="68.2232,-127.662 75.7571,-130.961 71.1094,-130.108 73.6248,-132.889 73.2539,-133.225 72.8831,-133.56 70.3677,-130.779 70.7508,-135.489 68.2232,-127.662 68.2232,-127.662"/>
<text text-anchor="middle" x="110.398" y="-149.653" font-family="FreeSans" font-size="8.00" fill="#2e3436">knows</text>
</g>
<!-- N59&#45;&gt;N61 -->
<g id="edge4" class="edge"><title>N59&#45;&gt;N61</title>
<path fill="none" stroke="#2e3436" stroke-width="2" d="M141.107,-176.379C141.286,-145.244 141.646,-82.5442 141.85,-47.0485"/>
<polygon fill="#2e3436" stroke="#2e3436" points="141.894,-39.4872 145.225,-47.0065 142.372,-43.24 142.351,-46.9899 141.851,-46.987 141.351,-46.9842 141.372,-43.2342 138.476,-46.9676 141.894,-39.4872 141.894,-39.4872"/>
<text text-anchor="middle" x="154.398" y="-105.653" font-family="FreeSans" font-size="8.00" fill="#2e3436">knows</text>
</g>
<!-- N62 -->
<g id="node5" class="node"><title>N62</title>
<path fill="#ffffff" stroke="#2e3436" stroke-width="1.5" d="M210.09,-88.6937C210.09,-88.6937 247.91,-88.6937 247.91,-88.6937 253.91,-88.6937 259.91,-94.6937 259.91,-100.694 259.91,-100.694 259.91,-115.306 259.91,-115.306 259.91,-121.306 253.91,-127.306 247.91,-127.306 247.91,-127.306 210.09,-127.306 210.09,-127.306 204.09,-127.306 198.09,-121.306 198.09,-115.306 198.09,-115.306 198.09,-100.694 198.09,-100.694 198.09,-94.6937 204.09,-88.6937 210.09,-88.6937"/>
<text text-anchor="middle" x="229" y="-115.306" font-family="FreeSans" font-size="8.00" fill="#1c2021">Node[62]</text>
<polyline fill="none" stroke="#2e3436" stroke-width="1.5" points="198.09,-108 259.91,-108 "/>
<text text-anchor="start" x="206.09" y="-96" font-family="FreeSans" font-size="8.00" fill="#1c2021">name = &#39;Jill&#39;</text>
</g>
<!-- N59&#45;&gt;N62 -->
<g id="edge5" class="edge"><title>N59&#45;&gt;N62</title>
<path fill="none" stroke="#2e3436" stroke-width="2" d="M160.095,-176.339C173.215,-163.517 190.74,-146.391 204.833,-132.618"/>
<polygon fill="#2e3436" stroke="#2e3436" points="210.245,-127.329 207.24,-134.985 207.912,-130.307 205.23,-132.928 204.881,-132.571 204.531,-132.213 207.213,-129.592 202.522,-130.157 210.245,-127.329 210.245,-127.329"/>
<text text-anchor="middle" x="203.398" y="-149.653" font-family="FreeSans" font-size="8.00" fill="#2e3436">knows</text>
</g>
<!-- N63 -->
<g id="node6" class="node"><title>N63</title>
<path fill="#ffffff" stroke="#2e3436" stroke-width="1.5" d="M64.873,-264.694C64.873,-264.694 105.127,-264.694 105.127,-264.694 111.127,-264.694 117.127,-270.694 117.127,-276.694 117.127,-276.694 117.127,-291.306 117.127,-291.306 117.127,-297.306 111.127,-303.306 105.127,-303.306 105.127,-303.306 64.873,-303.306 64.873,-303.306 58.873,-303.306 52.873,-297.306 52.873,-291.306 52.873,-291.306 52.873,-276.694 52.873,-276.694 52.873,-270.694 58.873,-264.694 64.873,-264.694"/>
<text text-anchor="middle" x="85" y="-291.306" font-family="FreeSans" font-size="8.00" fill="#1c2021">Node[63]</text>
<polyline fill="none" stroke="#2e3436" stroke-width="1.5" points="52.873,-284 117.127,-284 "/>
<text text-anchor="start" x="60.873" y="-272" font-family="FreeSans" font-size="8.00" fill="#1c2021">name = &#39;Joe&#39;</text>
</g>
<!-- N63&#45;&gt;N58 -->
<g id="edge6" class="edge"><title>N63&#45;&gt;N58</title>
<path fill="none" stroke="#2e3436" stroke-width="2" d="M79.4974,-264.654C75.6367,-251.266 70.5809,-232.63 67.2031,-216 61.6483,-188.651 57.4163,-156.963 54.845,-135.21"/>
<polygon fill="#2e3436" stroke="#2e3436" points="53.9734,-127.671 58.1875,-134.734 54.9008,-131.339 55.3316,-135.064 54.8349,-135.122 54.3382,-135.179 53.9075,-131.454 51.4822,-135.509 53.9734,-127.671 53.9734,-127.671"/>
<text text-anchor="middle" x="80.3984" y="-193.653" font-family="FreeSans" font-size="8.00" fill="#2e3436">knows</text>
</g>
<!-- N63&#45;&gt;N59 -->
<g id="edge7" class="edge"><title>N63&#45;&gt;N59</title>
<path fill="none" stroke="#2e3436" stroke-width="2" d="M97.1512,-264.339C105.279,-251.858 116.062,-235.297 124.902,-221.722"/>
<polygon fill="#2e3436" stroke="#2e3436" points="129.065,-215.329 127.801,-223.456 127.438,-218.744 125.391,-221.887 124.972,-221.614 124.553,-221.341 126.6,-218.199 122.144,-219.772 129.065,-215.329 129.065,-215.329"/>
<text text-anchor="middle" x="129.398" y="-237.653" font-family="FreeSans" font-size="8.00" fill="#2e3436">knows</text>
</g>
</g>
</svg>
