<?xml version="1.0" encoding="UTF-8" standalone="no"?>
<!DOCTYPE svg PUBLIC "-//W3C//DTD SVG 1.1//EN"
 "http://www.w3.org/Graphics/SVG/1.1/DTD/svg11.dtd">
<!-- Generated by graphviz version 2.38.0 (20140413.2041)
 -->
<!-- Title: g Pages: 1 -->
<svg width="438pt" height="375pt"
 viewBox="0.00 0.00 437.71 374.69" xmlns="http://www.w3.org/2000/svg" xmlns:xlink="http://www.w3.org/1999/xlink">
<g id="graph0" class="graph" transform="scale(1 1) rotate(0) translate(4 370.688)">
<title>g</title>
<polygon fill="white" stroke="none" points="-4,4 -4,-370.688 433.711,-370.688 433.711,4 -4,4"/>
<!-- N30 -->
<g id="node1" class="node"><title>N30</title>
<path fill="#ffffff" stroke="#2e3436" stroke-width="1.5" d="M12,-247.766C12,-247.766 107.59,-247.766 107.59,-247.766 113.59,-247.766 119.59,-253.766 119.59,-259.766 119.59,-259.766 119.59,-271.766 119.59,-271.766 119.59,-277.766 113.59,-283.766 107.59,-283.766 107.59,-283.766 12,-283.766 12,-283.766 6,-283.766 0,-277.766 0,-271.766 0,-271.766 0,-259.766 0,-259.766 0,-253.766 6,-247.766 12,-247.766"/>
<text text-anchor="start" x="8" y="-264.366" font-family="FreeSans" font-size="8.00" fill="#1c2021">Node[30]name = &#39;U1G2R1&#39;</text>
</g>
<!-- N34 -->
<g id="node2" class="node"><title>N34</title>
<path fill="#ffffff" stroke="#2e3436" stroke-width="1.5" d="M44.8789,-82.9219C44.8789,-82.9219 130.711,-82.9219 130.711,-82.9219 136.711,-82.9219 142.711,-88.9219 142.711,-94.9219 142.711,-94.9219 142.711,-106.922 142.711,-106.922 142.711,-112.922 136.711,-118.922 130.711,-118.922 130.711,-118.922 44.8789,-118.922 44.8789,-118.922 38.8789,-118.922 32.8789,-112.922 32.8789,-106.922 32.8789,-106.922 32.8789,-94.9219 32.8789,-94.9219 32.8789,-88.9219 38.8789,-82.9219 44.8789,-82.9219"/>
<text text-anchor="start" x="40.8789" y="-99.5219" font-family="FreeSans" font-size="8.00" fill="#1c2021">Node[34]name = &#39;Role1&#39;</text>
</g>
<!-- N30&#45;&gt;N34 -->
<g id="edge1" class="edge"><title>N30&#45;&gt;N34</title>
<path fill="none" stroke="#2e3436" stroke-width="2" d="M55.005,-247.479C50.1971,-227.305 44.4897,-193.103 51.9707,-164.844 55.6817,-150.826 63.3226,-136.664 70.5981,-125.335"/>
<polygon fill="#2e3436" stroke="#2e3436" stroke-width="2" points="74.8072,-119.015 73.4592,-127.128 73.1448,-122.413 71.0662,-125.534 70.65,-125.257 70.2339,-124.98 72.3124,-121.859 67.8409,-123.387 74.8072,-119.015 74.8072,-119.015"/>
<text text-anchor="middle" x="67.707" y="-181.655" font-family="FreeSans" font-size="8.00" fill="#2e3436">hasRole</text>
</g>
<!-- N33 -->
<g id="node3" class="node"><title>N33</title>
<path fill="#ffffff" stroke="#2e3436" stroke-width="1.5" d="M108.266,-165.344C108.266,-165.344 201.324,-165.344 201.324,-165.344 207.324,-165.344 213.324,-171.344 213.324,-177.344 213.324,-177.344 213.324,-189.344 213.324,-189.344 213.324,-195.344 207.324,-201.344 201.324,-201.344 201.324,-201.344 108.266,-201.344 108.266,-201.344 102.266,-201.344 96.2656,-195.344 96.2656,-189.344 96.2656,-189.344 96.2656,-177.344 96.2656,-177.344 96.2656,-171.344 102.266,-165.344 108.266,-165.344"/>
<text text-anchor="start" x="104.266" y="-181.944" font-family="FreeSans" font-size="8.00" fill="#1c2021">Node[33]name = &#39;Group2&#39;</text>
</g>
<!-- N30&#45;&gt;N33 -->
<g id="edge2" class="edge"><title>N30&#45;&gt;N33</title>
<path fill="none" stroke="#4e9a06" stroke-width="2" d="M79.942,-247.71C94.1745,-235.662 113.377,-219.406 128.769,-206.376"/>
<polygon fill="#4e9a06" stroke="#4e9a06" stroke-width="2" points="134.677,-201.375 131.133,-208.796 132.138,-204.179 129.276,-206.602 128.953,-206.22 128.63,-205.839 131.492,-203.416 126.772,-203.645 134.677,-201.375 134.677,-201.375"/>
<text text-anchor="middle" x="132.32" y="-222.866" font-family="FreeSans" font-size="8.00" fill="#4e9a06">hasGroup</text>
</g>
<!-- N35 -->
<g id="node5" class="node"><title>N35</title>
<path fill="#ffffff" stroke="#2e3436" stroke-width="1.5" d="M220.408,-0.5C220.408,-0.5 301.182,-0.5 301.182,-0.5 307.182,-0.5 313.182,-6.5 313.182,-12.5 313.182,-12.5 313.182,-24.5 313.182,-24.5 313.182,-30.5 307.182,-36.5 301.182,-36.5 301.182,-36.5 220.408,-36.5 220.408,-36.5 214.408,-36.5 208.408,-30.5 208.408,-24.5 208.408,-24.5 208.408,-12.5 208.408,-12.5 208.408,-6.5 214.408,-0.5 220.408,-0.5"/>
<text text-anchor="start" x="216.408" y="-17.1" font-family="FreeSans" font-size="8.00" fill="#1c2021">Node[35]name = &#39;Role&#39;</text>
</g>
<!-- N34&#45;&gt;N35 -->
<g id="edge10" class="edge"><title>N34&#45;&gt;N35</title>
<path fill="none" stroke="#a40000" stroke-width="2" d="M124.484,-82.8665C151.549,-70.2848 188.483,-53.1153 217.079,-39.8218"/>
<polygon fill="#a40000" stroke="#a40000" stroke-width="2" points="224.159,-36.5308 218.781,-42.7529 220.969,-38.5651 217.569,-40.1459 217.358,-39.6925 217.147,-39.2391 220.548,-37.6582 215.935,-36.632 224.159,-36.5308 224.159,-36.5308"/>
<text text-anchor="middle" x="185.561" y="-58.0219" font-family="FreeSans" font-size="8.00" fill="#a40000">isA</text>
</g>
<!-- N33&#45;&gt;N34 -->
<g id="edge8" class="edge"><title>N33&#45;&gt;N34</title>
<path fill="none" stroke="#204a87" stroke-width="2" d="M103.53,-165.194C95.9341,-160.433 89.1045,-154.417 84.4434,-146.844 80.8488,-141.004 80.1099,-133.894 80.6922,-127.069"/>
<polygon fill="#204a87" stroke="#204a87" stroke-width="2" points="81.8907,-119.282 84.0855,-127.208 81.8144,-123.065 81.2439,-126.771 80.7498,-126.695 80.2556,-126.619 80.826,-122.912 77.414,-126.181 81.8907,-119.282 81.8907,-119.282"/>
<text text-anchor="middle" x="100.971" y="-140.444" font-family="FreeSans" font-size="8.00" fill="#204a87">canHave</text>
</g>
<!-- N31 -->
<g id="node4" class="node"><title>N31</title>
<path fill="#ffffff" stroke="#2e3436" stroke-width="1.5" d="M331.879,-82.9219C331.879,-82.9219 417.711,-82.9219 417.711,-82.9219 423.711,-82.9219 429.711,-88.9219 429.711,-94.9219 429.711,-94.9219 429.711,-106.922 429.711,-106.922 429.711,-112.922 423.711,-118.922 417.711,-118.922 417.711,-118.922 331.879,-118.922 331.879,-118.922 325.879,-118.922 319.879,-112.922 319.879,-106.922 319.879,-106.922 319.879,-94.9219 319.879,-94.9219 319.879,-88.9219 325.879,-82.9219 331.879,-82.9219"/>
<text text-anchor="start" x="327.879" y="-99.5219" font-family="FreeSans" font-size="8.00" fill="#1c2021">Node[31]name = &#39;Role2&#39;</text>
</g>
<!-- N33&#45;&gt;N31 -->
<g id="edge7" class="edge"><title>N33&#45;&gt;N31</title>
<path fill="none" stroke="#204a87" stroke-width="2" d="M191.323,-165.312C210.993,-156.447 235.804,-145.751 258.443,-137.422 275.699,-131.073 294.675,-124.936 312.206,-119.602"/>
<polygon fill="#204a87" stroke="#204a87" stroke-width="2" points="319.621,-117.367 313.414,-122.763 316.175,-118.928 312.585,-120.01 312.44,-119.532 312.296,-119.053 315.886,-117.971 311.466,-116.3 319.621,-117.367 319.621,-117.367"/>
<text text-anchor="middle" x="274.971" y="-140.444" font-family="FreeSans" font-size="8.00" fill="#204a87">canHave</text>
</g>
<!-- N38 -->
<g id="node7" class="node"><title>N38</title>
<path fill="#ffffff" stroke="#2e3436" stroke-width="1.5" d="M188.795,-82.9219C188.795,-82.9219 276.795,-82.9219 276.795,-82.9219 282.795,-82.9219 288.795,-88.9219 288.795,-94.9219 288.795,-94.9219 288.795,-106.922 288.795,-106.922 288.795,-112.922 282.795,-118.922 276.795,-118.922 276.795,-118.922 188.795,-118.922 188.795,-118.922 182.795,-118.922 176.795,-112.922 176.795,-106.922 176.795,-106.922 176.795,-94.9219 176.795,-94.9219 176.795,-88.9219 182.795,-82.9219 188.795,-82.9219"/>
<text text-anchor="start" x="184.795" y="-99.5219" font-family="FreeSans" font-size="8.00" fill="#1c2021">Node[38]name = &#39;Group&#39;</text>
</g>
<!-- N33&#45;&gt;N38 -->
<g id="edge9" class="edge"><title>N33&#45;&gt;N38</title>
<path fill="none" stroke="#a40000" stroke-width="2" d="M148.706,-165.302C146.609,-156.329 145.947,-145.536 151.264,-137.422 155.928,-130.304 162.364,-124.605 169.592,-120.044"/>
<polygon fill="#a40000" stroke="#a40000" stroke-width="2" points="176.425,-116.168 171.567,-122.804 173.41,-118.453 170.149,-120.304 169.902,-119.869 169.655,-119.434 172.917,-117.583 168.237,-116.933 176.425,-116.168 176.425,-116.168"/>
<text text-anchor="middle" x="157.561" y="-140.444" font-family="FreeSans" font-size="8.00" fill="#a40000">isA</text>
</g>
<!-- N31&#45;&gt;N35 -->
<g id="edge3" class="edge"><title>N31&#45;&gt;N35</title>
<path fill="none" stroke="#a40000" stroke-width="2" d="M350.618,-82.8665C333.388,-70.7113 310.088,-54.274 291.536,-41.1867"/>
<polygon fill="#a40000" stroke="#a40000" stroke-width="2" points="284.937,-36.5308 293.011,-38.0964 288.289,-38.284 291.353,-40.4457 291.065,-40.8542 290.777,-41.2628 287.713,-39.1011 289.12,-43.6121 284.937,-36.5308 284.937,-36.5308"/>
<text text-anchor="middle" x="327.561" y="-58.0219" font-family="FreeSans" font-size="8.00" fill="#a40000">isA</text>
</g>
<!-- N32 -->
<g id="node6" class="node"><title>N32</title>
<path fill="#ffffff" stroke="#2e3436" stroke-width="1.5" d="M265.266,-165.344C265.266,-165.344 358.324,-165.344 358.324,-165.344 364.324,-165.344 370.324,-171.344 370.324,-177.344 370.324,-177.344 370.324,-189.344 370.324,-189.344 370.324,-195.344 364.324,-201.344 358.324,-201.344 358.324,-201.344 265.266,-201.344 265.266,-201.344 259.266,-201.344 253.266,-195.344 253.266,-189.344 253.266,-189.344 253.266,-177.344 253.266,-177.344 253.266,-171.344 259.266,-165.344 265.266,-165.344"/>
<text text-anchor="start" x="261.266" y="-181.944" font-family="FreeSans" font-size="8.00" fill="#1c2021">Node[32]name = &#39;Group1&#39;</text>
</g>
<!-- N32&#45;&gt;N34 -->
<g id="edge4" class="edge"><title>N32&#45;&gt;N34</title>
<path fill="none" stroke="#204a87" stroke-width="2" d="M253.058,-165.427C234.799,-159.858 214.681,-153.404 196.443,-146.844 175.489,-139.306 152.661,-130.034 133.363,-121.875"/>
<polygon fill="#204a87" stroke="#204a87" stroke-width="2" points="126.423,-118.925 134.646,-118.753 130.07,-119.932 133.521,-121.399 133.326,-121.859 133.13,-122.319 129.679,-120.852 132.005,-124.965 126.423,-118.925 126.423,-118.925"/>
<text text-anchor="middle" x="212.971" y="-140.444" font-family="FreeSans" font-size="8.00" fill="#204a87">canHave</text>
</g>
<!-- N32&#45;&gt;N31 -->
<g id="edge5" class="edge"><title>N32&#45;&gt;N31</title>
<path fill="none" stroke="#204a87" stroke-width="2" d="M328.21,-165.039C333.36,-159.375 338.959,-152.963 343.795,-146.844 349.193,-140.014 354.709,-132.3 359.564,-125.217"/>
<polygon fill="#204a87" stroke="#204a87" stroke-width="2" points="363.813,-118.933 362.408,-127.036 362.127,-122.319 360.026,-125.425 359.612,-125.145 359.198,-124.865 361.298,-121.759 356.816,-123.255 363.813,-118.933 363.813,-118.933"/>
<text text-anchor="middle" x="367.971" y="-140.444" font-family="FreeSans" font-size="8.00" fill="#204a87">canHave</text>
</g>
<!-- N32&#45;&gt;N38 -->
<g id="edge6" class="edge"><title>N32&#45;&gt;N38</title>
<path fill="none" stroke="#a40000" stroke-width="2" d="M309.588,-165.079C307.701,-156.041 304.215,-145.257 297.795,-137.422 293.366,-132.017 287.888,-127.308 282.007,-123.241"/>
<polygon fill="#a40000" stroke="#a40000" stroke-width="2" points="275.496,-119.079 283.633,-120.275 278.925,-120.678 282.085,-122.698 281.815,-123.119 281.546,-123.54 278.387,-121.52 279.997,-125.962 275.496,-119.079 275.496,-119.079"/>
<text text-anchor="middle" x="309.561" y="-140.444" font-family="FreeSans" font-size="8.00" fill="#a40000">isA</text>
</g>
<!-- N36 -->
<g id="node8" class="node"><title>N36</title>
<path fill="#ffffff" stroke="#2e3436" stroke-width="1.5" d="M166.764,-330.188C166.764,-330.188 252.826,-330.188 252.826,-330.188 258.826,-330.188 264.826,-336.188 264.826,-342.188 264.826,-342.188 264.826,-354.188 264.826,-354.188 264.826,-360.188 258.826,-366.188 252.826,-366.188 252.826,-366.188 166.764,-366.188 166.764,-366.188 160.764,-366.188 154.764,-360.188 154.764,-354.188 154.764,-354.188 154.764,-342.188 154.764,-342.188 154.764,-336.188 160.764,-330.188 166.764,-330.188"/>
<text text-anchor="start" x="162.764" y="-346.788" font-family="FreeSans" font-size="8.00" fill="#1c2021">Node[36]name = &#39;User1&#39;</text>
</g>
<!-- N36&#45;&gt;N30 -->
<g id="edge13" class="edge"><title>N36&#45;&gt;N30</title>
<path fill="none" stroke="#5c3566" stroke-width="2" d="M154.608,-337.418C134.535,-332.063 112.449,-323.926 94.7324,-311.688 86.6034,-306.072 79.4942,-297.989 73.8484,-290.223"/>
<polygon fill="#5c3566" stroke="#5c3566" stroke-width="2" points="69.4598,-283.836 76.4886,-288.106 71.9955,-286.643 74.119,-289.734 73.7069,-290.017 73.2948,-290.301 71.1713,-287.21 70.9252,-291.929 69.4598,-283.836 69.4598,-283.836"/>
<text text-anchor="middle" x="125.326" y="-305.288" font-family="FreeSans" font-size="8.00" fill="#5c3566">hasRoleInGroup</text>
</g>
<!-- N36&#45;&gt;N33 -->
<g id="edge12" class="edge"><title>N36&#45;&gt;N33</title>
<path fill="none" stroke="#8f5902" stroke-width="2" d="M204.013,-330.068C194.218,-301.068 174.331,-242.187 163.065,-208.83"/>
<polygon fill="#8f5902" stroke="#8f5902" stroke-width="2" points="160.665,-201.724 166.263,-207.75 162.339,-205.117 163.539,-208.67 163.065,-208.83 162.591,-208.99 161.391,-205.437 159.867,-209.91 160.665,-201.724 160.665,-201.724"/>
<text text-anchor="middle" x="191.434" y="-264.077" font-family="FreeSans" font-size="8.00" fill="#8f5902">in</text>
</g>
<!-- N36&#45;&gt;N32 -->
<g id="edge11" class="edge"><title>N36&#45;&gt;N32</title>
<path fill="none" stroke="#8f5902" stroke-width="2" d="M216.427,-329.835C224.643,-309.3 239.749,-274.465 257.518,-247.266 266.79,-233.072 278.987,-218.651 289.469,-207.201"/>
<polygon fill="#8f5902" stroke="#8f5902" stroke-width="2" points="294.77,-201.502 292.134,-209.292 292.582,-204.588 290.028,-207.334 289.662,-206.994 289.296,-206.653 291.85,-203.907 287.191,-204.695 294.77,-201.502 294.77,-201.502"/>
<text text-anchor="middle" x="261.434" y="-264.077" font-family="FreeSans" font-size="8.00" fill="#8f5902">in</text>
</g>
<!-- N37 -->
<g id="node9" class="node"><title>N37</title>
<path fill="#ffffff" stroke="#2e3436" stroke-width="1.5" d="M291,-247.766C291,-247.766 386.59,-247.766 386.59,-247.766 392.59,-247.766 398.59,-253.766 398.59,-259.766 398.59,-259.766 398.59,-271.766 398.59,-271.766 398.59,-277.766 392.59,-283.766 386.59,-283.766 386.59,-283.766 291,-283.766 291,-283.766 285,-283.766 279,-277.766 279,-271.766 279,-271.766 279,-259.766 279,-259.766 279,-253.766 285,-247.766 291,-247.766"/>
<text text-anchor="start" x="287" y="-264.366" font-family="FreeSans" font-size="8.00" fill="#1c2021">Node[37]name = &#39;U1G1R2&#39;</text>
</g>
<!-- N36&#45;&gt;N37 -->
<g id="edge14" class="edge"><title>N36&#45;&gt;N37</title>
<path fill="none" stroke="#5c3566" stroke-width="2" d="M237.153,-330.132C256.992,-317.764 283.943,-300.962 305.108,-287.767"/>
<polygon fill="#5c3566" stroke="#5c3566" stroke-width="2" points="311.477,-283.796 306.898,-290.628 308.559,-286.205 305.377,-288.189 305.112,-287.764 304.848,-287.34 308.03,-285.356 303.327,-284.9 311.477,-283.796 311.477,-283.796"/>
<text text-anchor="middle" x="313.326" y="-305.288" font-family="FreeSans" font-size="8.00" fill="#5c3566">hasRoleInGroup</text>
</g>
<!-- N37&#45;&gt;N31 -->
<g id="edge15" class="edge"><title>N37&#45;&gt;N31</title>
<path fill="none" stroke="#2e3436" stroke-width="2" d="M356.405,-247.614C367.059,-235.888 379.565,-219.347 384.795,-201.844 393.027,-174.292 396.838,-165.536 390.795,-137.422 389.981,-133.636 388.731,-129.767 387.279,-126.042"/>
<polygon fill="#2e3436" stroke="#2e3436" stroke-width="2" points="384.303,-119.114 390.365,-124.673 386.243,-122.362 387.723,-125.808 387.264,-126.005 386.804,-126.202 385.324,-122.757 384.163,-127.337 384.303,-119.114 384.303,-119.114"/>
<text text-anchor="middle" x="408.707" y="-181.655" font-family="FreeSans" font-size="8.00" fill="#2e3436">hasRole</text>
</g>
<!-- N37&#45;&gt;N32 -->
<g id="edge16" class="edge"><title>N37&#45;&gt;N32</title>
<path fill="none" stroke="#4e9a06" stroke-width="2" d="M333.069,-247.71C329.274,-236.408 324.237,-221.404 320.017,-208.833"/>
<polygon fill="#4e9a06" stroke="#4e9a06" stroke-width="2" points="317.513,-201.375 323.099,-207.41 319.18,-204.77 320.374,-208.325 319.9,-208.485 319.426,-208.644 318.232,-205.089 316.7,-209.559 317.513,-201.375 317.513,-201.375"/>
<text text-anchor="middle" x="345.32" y="-222.866" font-family="FreeSans" font-size="8.00" fill="#4e9a06">hasGroup</text>
</g>
</g>
</svg>
