<?xml version="1.0" encoding="UTF-8" standalone="no"?>
<!DOCTYPE svg PUBLIC "-//W3C//DTD SVG 1.1//EN"
 "http://www.w3.org/Graphics/SVG/1.1/DTD/svg11.dtd">
<!-- Generated by graphviz version 2.30.1 (20130318.1259)
 -->
<!-- Title: g Pages: 1 -->
<svg width="74pt" height="136pt"
 viewBox="0.00 0.00 74.00 136.00" xmlns="http://www.w3.org/2000/svg" xmlns:xlink="http://www.w3.org/1999/xlink">
<g id="graph0" class="graph" transform="scale(1 1) rotate(0) translate(4 132)">
<title>g</title>
<polygon fill="white" stroke="white" points="-4,5 -4,-132 71,-132 71,5 -4,5"/>
<!-- N29 -->
<g id="node1" class="node"><title>N29</title>
<path fill="#ffffff" stroke="#2e3436" stroke-width="1.5" d="M12.8398,-0.69375C12.8398,-0.69375 53.1602,-0.69375 53.1602,-0.69375 59.1602,-0.69375 65.1602,-6.69375 65.1602,-12.6938 65.1602,-12.6938 65.1602,-27.3063 65.1602,-27.3063 65.1602,-33.3062 59.1602,-39.3062 53.1602,-39.3062 53.1602,-39.3062 12.8398,-39.3062 12.8398,-39.3062 6.83984,-39.3062 0.839844,-33.3062 0.839844,-27.3062 0.839844,-27.3062 0.839844,-12.6937 0.839844,-12.6937 0.839844,-6.69375 6.83984,-0.69375 12.8398,-0.69375"/>
<text text-anchor="middle" x="33" y="-27.3062" font-family="FreeSans" font-size="8.00" fill="#1c2021">Node[29]</text>
<polyline fill="none" stroke="#2e3436" stroke-width="1.5" points="0.839844,-20 65.1602,-20 "/>
<text text-anchor="start" x="8.83984" y="-8" font-family="FreeSans" font-size="8.00" fill="#1c2021">name = &#39;me&#39;</text>
</g>
<!-- N30 -->
<g id="node2" class="node"><title>N30</title>
<path fill="#ffffff" stroke="#2e3436" stroke-width="1.5" d="M11.7734,-88.6937C11.7734,-88.6937 54.2266,-88.6937 54.2266,-88.6937 60.2266,-88.6937 66.2266,-94.6937 66.2266,-100.694 66.2266,-100.694 66.2266,-115.306 66.2266,-115.306 66.2266,-121.306 60.2266,-127.306 54.2266,-127.306 54.2266,-127.306 11.7734,-127.306 11.7734,-127.306 5.77344,-127.306 -0.226562,-121.306 -0.226562,-115.306 -0.226562,-115.306 -0.226562,-100.694 -0.226562,-100.694 -0.226562,-94.6937 5.77344,-88.6937 11.7734,-88.6937"/>
<text text-anchor="middle" x="33" y="-115.306" font-family="FreeSans" font-size="8.00" fill="#1c2021">Node[30]</text>
<polyline fill="none" stroke="#2e3436" stroke-width="1.5" points="-0.226562,-108 66.2266,-108 "/>
<text text-anchor="start" x="7.77344" y="-96" font-family="FreeSans" font-size="8.00" fill="#1c2021">name = &#39;you&#39;</text>
</g>
<!-- N30&#45;&gt;N29 -->
<g id="edge1" class="edge"><title>N30&#45;&gt;N29</title>
<path fill="none" stroke="#2e3436" stroke-width="2" d="M33,-88.3393C33,-76.1982 33,-60.1972 33,-46.8392"/>
<polygon fill="#2e3436" stroke="#2e3436" points="33,-39.3289 36.3751,-46.8288 33.5,-43.0788 33.5001,-46.8288 33.0001,-46.8289 32.5001,-46.8289 32.5,-43.0789 29.6251,-46.8289 33,-39.3289 33,-39.3289"/>
<text text-anchor="middle" x="45.3984" y="-61.6531" font-family="FreeSans" font-size="8.00" fill="#2e3436">knows</text>
</g>
</g>
</svg>
