<?xml version="1.0" encoding="UTF-8" standalone="no"?>
<!DOCTYPE svg PUBLIC "-//W3C//DTD SVG 1.1//EN"
 "http://www.w3.org/Graphics/SVG/1.1/DTD/svg11.dtd">
<!-- Generated by graphviz version 2.30.1 (20130318.1259)
 -->
<!-- Title: g Pages: 1 -->
<svg width="74pt" height="136pt"
 viewBox="0.00 0.00 74.00 136.00" xmlns="http://www.w3.org/2000/svg" xmlns:xlink="http://www.w3.org/1999/xlink">
<g id="graph0" class="graph" transform="scale(1 1) rotate(0) translate(4 132)">
<title>g</title>
<polygon fill="white" stroke="white" points="-4,5 -4,-132 71,-132 71,5 -4,5"/>
<!-- N75 -->
<g id="node1" class="node"><title>N75</title>
<path fill="#ffffff" stroke="#2e3436" stroke-width="1.5" d="M11.7734,-0.69375C11.7734,-0.69375 54.2266,-0.69375 54.2266,-0.69375 60.2266,-0.69375 66.2266,-6.69375 66.2266,-12.6938 66.2266,-12.6938 66.2266,-27.3063 66.2266,-27.3063 66.2266,-33.3062 60.2266,-39.3062 54.2266,-39.3062 54.2266,-39.3062 11.7734,-39.3062 11.7734,-39.3062 5.77344,-39.3062 -0.226562,-33.3062 -0.226562,-27.3062 -0.226562,-27.3062 -0.226562,-12.6937 -0.226562,-12.6937 -0.226562,-6.69375 5.77344,-0.69375 11.7734,-0.69375"/>
<text text-anchor="middle" x="33" y="-27.3062" font-family="FreeSans" font-size="8.00" fill="#1c2021">Node[75]</text>
<polyline fill="none" stroke="#2e3436" stroke-width="1.5" points="-0.226562,-20 66.2266,-20 "/>
<text text-anchor="start" x="7.77344" y="-8" font-family="FreeSans" font-size="8.00" fill="#1c2021">name = &#39;you&#39;</text>
</g>
<!-- N76 -->
<g id="node2" class="node"><title>N76</title>
<path fill="#ffffff" stroke="#2e3436" stroke-width="1.5" d="M17.6504,-88.6937C17.6504,-88.6937 48.3496,-88.6937 48.3496,-88.6937 54.3496,-88.6937 60.3496,-94.6937 60.3496,-100.694 60.3496,-100.694 60.3496,-115.306 60.3496,-115.306 60.3496,-121.306 54.3496,-127.306 48.3496,-127.306 48.3496,-127.306 17.6504,-127.306 17.6504,-127.306 11.6504,-127.306 5.65039,-121.306 5.65039,-115.306 5.65039,-115.306 5.65039,-100.694 5.65039,-100.694 5.65039,-94.6937 11.6504,-88.6937 17.6504,-88.6937"/>
<text text-anchor="middle" x="33" y="-115.306" font-family="FreeSans" font-size="8.00" fill="#1c2021">Node[76]</text>
<polyline fill="none" stroke="#2e3436" stroke-width="1.5" points="5.65039,-108 60.3496,-108 "/>
<text text-anchor="start" x="13.6504" y="-96" font-family="FreeSans" font-size="8.00" fill="#1c2021">name = &#39;I&#39;</text>
</g>
<!-- N76&#45;&gt;N75 -->
<g id="edge1" class="edge"><title>N76&#45;&gt;N75</title>
<path fill="none" stroke="#2e3436" stroke-width="2" d="M33,-88.3393C33,-76.1982 33,-60.1972 33,-46.8392"/>
<polygon fill="#2e3436" stroke="#2e3436" points="33,-39.3289 36.3751,-46.8288 33.5,-43.0788 33.5001,-46.8288 33.0001,-46.8289 32.5001,-46.8289 32.5,-43.0789 29.6251,-46.8289 33,-39.3289 33,-39.3289"/>
<text text-anchor="middle" x="43.3594" y="-61.6531" font-family="FreeSans" font-size="8.00" fill="#2e3436">know</text>
</g>
</g>
</svg>
