<?xml version="1.0" encoding="UTF-8" standalone="no"?>
<!DOCTYPE svg PUBLIC "-//W3C//DTD SVG 1.1//EN"
 "http://www.w3.org/Graphics/SVG/1.1/DTD/svg11.dtd">
<!-- Generated by graphviz version 2.30.1 (20130318.1259)
 -->
<!-- Title: g Pages: 1 -->
<svg width="269pt" height="148pt"
 viewBox="0.00 0.00 269.00 148.00" xmlns="http://www.w3.org/2000/svg" xmlns:xlink="http://www.w3.org/1999/xlink">
<g id="graph0" class="graph" transform="scale(1 1) rotate(0) translate(4 144)">
<title>g</title>
<polygon fill="white" stroke="white" points="-4,5 -4,-144 266,-144 266,5 -4,5"/>
<!-- N7 -->
<g id="node1" class="node"><title>N7</title>
<path fill="#ffffff" stroke="#2e3436" stroke-width="1.5" d="M12.5098,-0.69375C12.5098,-0.69375 57.4902,-0.69375 57.4902,-0.69375 63.4902,-0.69375 69.4902,-6.69375 69.4902,-12.6938 69.4902,-12.6938 69.4902,-27.3063 69.4902,-27.3063 69.4902,-33.3062 63.4902,-39.3062 57.4902,-39.3062 57.4902,-39.3062 12.5098,-39.3062 12.5098,-39.3062 6.50977,-39.3062 0.509766,-33.3062 0.509766,-27.3062 0.509766,-27.3062 0.509766,-12.6937 0.509766,-12.6937 0.509766,-6.69375 6.50977,-0.69375 12.5098,-0.69375"/>
<text text-anchor="middle" x="35" y="-27.3062" font-family="FreeSans" font-size="8.00" fill="#1c2021">Node[7]</text>
<polyline fill="none" stroke="#2e3436" stroke-width="1.5" points="0.509766,-20 69.4902,-20 "/>
<text text-anchor="start" x="8.50977" y="-8" font-family="FreeSans" font-size="8.00" fill="#1c2021">name = &#39;Test&#39;</text>
</g>
<!-- N8 -->
<g id="node2" class="node"><title>N8</title>
<path fill="#ffffff" stroke="#2e3436" stroke-width="1.5" d="M11.002,-100.694C11.002,-100.694 58.998,-100.694 58.998,-100.694 64.998,-100.694 70.998,-106.694 70.998,-112.694 70.998,-112.694 70.998,-127.306 70.998,-127.306 70.998,-133.306 64.998,-139.306 58.998,-139.306 58.998,-139.306 11.002,-139.306 11.002,-139.306 5.00195,-139.306 -0.998047,-133.306 -0.998047,-127.306 -0.998047,-127.306 -0.998047,-112.694 -0.998047,-112.694 -0.998047,-106.694 5.00195,-100.694 11.002,-100.694"/>
<text text-anchor="middle" x="35" y="-127.306" font-family="FreeSans" font-size="8.00" fill="#1c2021">Node[8]</text>
<polyline fill="none" stroke="#2e3436" stroke-width="1.5" points="-0.998047,-120 70.998,-120 "/>
<text text-anchor="start" x="7.00195" y="-108" font-family="FreeSans" font-size="8.00" fill="#1c2021">name = &#39;Peter&#39;</text>
</g>
<!-- N8&#45;&gt;N7 -->
<g id="edge1" class="edge"><title>N8&#45;&gt;N7</title>
<path fill="none" stroke="#2e3436" stroke-width="2" d="M35,-100.567C35,-85.51 35,-64.0416 35,-47.1988"/>
<polygon fill="#2e3436" stroke="#2e3436" points="35,-39.3504 38.3751,-46.8504 35.5,-43.1004 35.5001,-46.8504 35.0001,-46.8504 34.5001,-46.8504 34.5,-43.1004 31.6251,-46.8504 35,-39.3504 35,-39.3504"/>
<text text-anchor="middle" x="38.1953" y="-67.6531" font-family="FreeSans" font-size="8.00" fill="#2e3436">is</text>
</g>
<!-- N9 -->
<g id="node3" class="node"><title>N9</title>
<path fill="#ffffff" stroke="#2e3436" stroke-width="1.5" d="M164.65,-100.694C164.65,-100.694 195.35,-100.694 195.35,-100.694 201.35,-100.694 207.35,-106.694 207.35,-112.694 207.35,-112.694 207.35,-127.306 207.35,-127.306 207.35,-133.306 201.35,-139.306 195.35,-139.306 195.35,-139.306 164.65,-139.306 164.65,-139.306 158.65,-139.306 152.65,-133.306 152.65,-127.306 152.65,-127.306 152.65,-112.694 152.65,-112.694 152.65,-106.694 158.65,-100.694 164.65,-100.694"/>
<text text-anchor="middle" x="180" y="-127.306" font-family="FreeSans" font-size="8.00" fill="#1c2021">Node[9]</text>
<polyline fill="none" stroke="#2e3436" stroke-width="1.5" points="152.65,-120 207.35,-120 "/>
<text text-anchor="start" x="160.65" y="-108" font-family="FreeSans" font-size="8.00" fill="#1c2021">name = &#39;I&#39;</text>
</g>
<!-- N10 -->
<g id="node4" class="node"><title>N10</title>
<path fill="#ffffff" stroke="#2e3436" stroke-width="1.5" d="M110.773,-0.69375C110.773,-0.69375 153.227,-0.69375 153.227,-0.69375 159.227,-0.69375 165.227,-6.69375 165.227,-12.6938 165.227,-12.6938 165.227,-27.3063 165.227,-27.3063 165.227,-33.3062 159.227,-39.3062 153.227,-39.3062 153.227,-39.3062 110.773,-39.3062 110.773,-39.3062 104.773,-39.3062 98.7734,-33.3062 98.7734,-27.3062 98.7734,-27.3062 98.7734,-12.6937 98.7734,-12.6937 98.7734,-6.69375 104.773,-0.69375 110.773,-0.69375"/>
<text text-anchor="middle" x="132" y="-27.3062" font-family="FreeSans" font-size="8.00" fill="#1c2021">Node[10]</text>
<polyline fill="none" stroke="#2e3436" stroke-width="1.5" points="98.7734,-20 165.227,-20 "/>
<text text-anchor="start" x="106.773" y="-8" font-family="FreeSans" font-size="8.00" fill="#1c2021">name = &#39;you&#39;</text>
</g>
<!-- N9&#45;&gt;N10 -->
<g id="edge2" class="edge"><title>N9&#45;&gt;N10</title>
<path fill="none" stroke="#4e9a06" stroke-width="2" d="M156.467,-100.618C150.939,-95.193 145.625,-88.8535 142.051,-82 136.54,-71.4319 133.919,-58.5543 132.717,-47.3593"/>
<polygon fill="#4e9a06" stroke="#4e9a06" points="132.072,-39.5621 136.054,-46.7583 132.88,-43.2581 133.189,-46.9954 132.691,-47.0366 132.192,-47.0778 131.883,-43.3405 129.327,-47.3148 132.072,-39.5621 132.072,-39.5621"/>
<text text-anchor="middle" x="167.975" y="-73.3063" font-family="FreeSans" font-size="8.00" fill="#4e9a06">know</text>
<text text-anchor="start" x="143" y="-62" font-family="FreeSans" font-size="8.00" fill="#4e9a06">weight = 0.5</text>
</g>
<!-- N11 -->
<g id="node5" class="node"><title>N11</title>
<path fill="#ffffff" stroke="#2e3436" stroke-width="1.5" d="M206.43,-0.69375C206.43,-0.69375 249.57,-0.69375 249.57,-0.69375 255.57,-0.69375 261.57,-6.69375 261.57,-12.6938 261.57,-12.6938 261.57,-27.3063 261.57,-27.3063 261.57,-33.3062 255.57,-39.3062 249.57,-39.3062 249.57,-39.3062 206.43,-39.3062 206.43,-39.3062 200.43,-39.3062 194.43,-33.3062 194.43,-27.3062 194.43,-27.3062 194.43,-12.6937 194.43,-12.6937 194.43,-6.69375 200.43,-0.69375 206.43,-0.69375"/>
<text text-anchor="middle" x="228" y="-27.3062" font-family="FreeSans" font-size="8.00" fill="#1c2021">Node[11]</text>
<polyline fill="none" stroke="#2e3436" stroke-width="1.5" points="194.43,-20 261.57,-20 "/>
<text text-anchor="start" x="202.43" y="-8" font-family="FreeSans" font-size="8.00" fill="#1c2021">name = &#39;him&#39;</text>
</g>
<!-- N9&#45;&gt;N11 -->
<g id="edge3" class="edge"><title>N9&#45;&gt;N11</title>
<path fill="none" stroke="#4e9a06" stroke-width="2" d="M189.028,-100.567C196.537,-85.2362 207.302,-63.2588 215.616,-46.2847"/>
<polygon fill="#4e9a06" stroke="#4e9a06" points="219.012,-39.3504 218.744,-47.5705 217.812,-42.9381 216.162,-46.3058 215.713,-46.0859 215.264,-45.8659 216.913,-42.4982 212.682,-44.6013 219.012,-39.3504 219.012,-39.3504"/>
<text text-anchor="middle" x="234.975" y="-73.3063" font-family="FreeSans" font-size="8.00" fill="#4e9a06">know</text>
<text text-anchor="start" x="210" y="-62" font-family="FreeSans" font-size="8.00" fill="#4e9a06">weight = 0.8</text>
</g>
</g>
</svg>
