<?xml version="1.0" encoding="UTF-8" standalone="no"?>
<!DOCTYPE svg PUBLIC "-//W3C//DTD SVG 1.1//EN"
 "http://www.w3.org/Graphics/SVG/1.1/DTD/svg11.dtd">
<!-- Generated by graphviz version 2.38.0 (20140413.2041)
 -->
<!-- Title: g Pages: 1 -->
<svg width="110pt" height="127pt"
 viewBox="0.00 0.00 110.02 127.42" xmlns="http://www.w3.org/2000/svg" xmlns:xlink="http://www.w3.org/1999/xlink">
<g id="graph0" class="graph" transform="scale(1 1) rotate(0) translate(4 123.422)">
<title>g</title>
<polygon fill="white" stroke="none" points="-4,4 -4,-123.422 106.023,-123.422 106.023,4 -4,4"/>
<!-- N74 -->
<g id="node1" class="node"><title>N74</title>
<path fill="#ffffff" stroke="#2e3436" stroke-width="1.5" d="M12,-0.5C12,-0.5 90.0234,-0.5 90.0234,-0.5 96.0234,-0.5 102.023,-6.5 102.023,-12.5 102.023,-12.5 102.023,-24.5 102.023,-24.5 102.023,-30.5 96.0234,-36.5 90.0234,-36.5 90.0234,-36.5 12,-36.5 12,-36.5 6,-36.5 0,-30.5 0,-24.5 0,-24.5 0,-12.5 0,-12.5 0,-6.5 6,-0.5 12,-0.5"/>
<text text-anchor="start" x="8" y="-17.1" font-family="FreeSans" font-size="8.00" fill="#1c2021">Node[74]name = &#39;you&#39;</text>
</g>
<!-- N75 -->
<g id="node2" class="node"><title>N75</title>
<path fill="#ffffff" stroke="#2e3436" stroke-width="1.5" d="M17.8438,-82.9219C17.8438,-82.9219 84.1797,-82.9219 84.1797,-82.9219 90.1797,-82.9219 96.1797,-88.9219 96.1797,-94.9219 96.1797,-94.9219 96.1797,-106.922 96.1797,-106.922 96.1797,-112.922 90.1797,-118.922 84.1797,-118.922 84.1797,-118.922 17.8438,-118.922 17.8438,-118.922 11.8438,-118.922 5.84375,-112.922 5.84375,-106.922 5.84375,-106.922 5.84375,-94.9219 5.84375,-94.9219 5.84375,-88.9219 11.8438,-82.9219 17.8438,-82.9219"/>
<text text-anchor="start" x="13.8438" y="-99.5219" font-family="FreeSans" font-size="8.00" fill="#1c2021">Node[75]name = &#39;I&#39;</text>
</g>
<!-- N75&#45;&gt;N74 -->
<g id="edge1" class="edge"><title>N75&#45;&gt;N74</title>
<path fill="none" stroke="#2e3436" stroke-width="2" d="M51.0117,-82.8665C51.0117,-71.671 51.0117,-56.8427 51.0117,-44.3452"/>
<polygon fill="#2e3436" stroke="#2e3436" stroke-width="2" points="51.0117,-36.5308 54.3868,-44.0308 51.5118,-40.2808 51.5118,-44.0308 51.0118,-44.0308 50.5118,-44.0308 50.5118,-40.2808 47.6368,-44.0309 51.0117,-36.5308 51.0117,-36.5308"/>
<text text-anchor="middle" x="61.3398" y="-58.0219" font-family="FreeSans" font-size="8.00" fill="#2e3436">know</text>
</g>
</g>
</svg>
