<?xml version="1.0" encoding="UTF-8" standalone="no"?>
<!DOCTYPE svg PUBLIC "-//W3C//DTD SVG 1.1//EN"
 "http://www.w3.org/Graphics/SVG/1.1/DTD/svg11.dtd">
<!-- Generated by graphviz version 2.38.0 (20140413.2041)
 -->
<!-- Title: g Pages: 1 -->
<svg width="287pt" height="229pt"
 viewBox="0.00 0.00 286.79 228.69" xmlns="http://www.w3.org/2000/svg" xmlns:xlink="http://www.w3.org/1999/xlink">
<g id="graph0" class="graph" transform="scale(1 1) rotate(0) translate(4 224.688)">
<title>g</title>
<polygon fill="white" stroke="none" points="-4,4 -4,-224.688 282.787,-224.688 282.787,4 -4,4"/>
<!-- N71 -->
<g id="node1" class="node"><title>N71</title>
<path fill="#ffffff" stroke="#2e3436" stroke-width="1.5" d="M127.607,-184.188C127.607,-184.188 217.045,-184.188 217.045,-184.188 223.045,-184.188 229.045,-190.188 229.045,-196.188 229.045,-196.188 229.045,-208.188 229.045,-208.188 229.045,-214.188 223.045,-220.188 217.045,-220.188 217.045,-220.188 127.607,-220.188 127.607,-220.188 121.607,-220.188 115.607,-214.188 115.607,-208.188 115.607,-208.188 115.607,-196.188 115.607,-196.188 115.607,-190.188 121.607,-184.188 127.607,-184.188"/>
<text text-anchor="start" x="123.607" y="-200.787" font-family="FreeSans" font-size="8.00" fill="#1c2021">Node[71]name = &#39;source&#39;</text>
</g>
<!-- N73 -->
<g id="node2" class="node"><title>N73</title>
<path fill="#ffffff" stroke="#2e3436" stroke-width="1.5" d="M12,-92.3438C12,-92.3438 102.652,-92.3438 102.652,-92.3438 108.652,-92.3438 114.652,-98.3438 114.652,-104.344 114.652,-104.344 114.652,-116.344 114.652,-116.344 114.652,-122.344 108.652,-128.344 102.652,-128.344 102.652,-128.344 12,-128.344 12,-128.344 6,-128.344 0,-122.344 0,-116.344 0,-116.344 0,-104.344 0,-104.344 0,-98.3438 6,-92.3438 12,-92.3438"/>
<text text-anchor="start" x="8" y="-108.944" font-family="FreeSans" font-size="8.00" fill="#1c2021">Node[73]name = &#39;middle&#39;</text>
</g>
<!-- N71&#45;&gt;N73 -->
<g id="edge1" class="edge"><title>N71&#45;&gt;N73</title>
<path fill="none" stroke="#2e3436" stroke-width="2" d="M131.07,-184.014C121.01,-178.877 110.631,-172.71 101.865,-165.688 90.9069,-156.908 80.7983,-145.036 72.9909,-134.629"/>
<polygon fill="#2e3436" stroke="#2e3436" stroke-width="2" points="68.44,-128.378 75.583,-132.455 71.0515,-131.115 73.2588,-134.147 72.8546,-134.441 72.4504,-134.736 70.2431,-131.704 70.1262,-136.428 68.44,-128.378 68.44,-128.378"/>
<text text-anchor="middle" x="126.557" y="-159.287" font-family="FreeSans" font-size="8.00" fill="#2e3436">CONNECTED</text>
<text text-anchor="start" x="102.326" y="-149.866" font-family="FreeSans" font-size="8.00" fill="#2e3436">capacity = 0</text>
</g>
<!-- N72 -->
<g id="node3" class="node"><title>N72</title>
<path fill="#ffffff" stroke="#2e3436" stroke-width="1.5" d="M132.514,-0.5C132.514,-0.5 212.139,-0.5 212.139,-0.5 218.139,-0.5 224.139,-6.5 224.139,-12.5 224.139,-12.5 224.139,-24.5 224.139,-24.5 224.139,-30.5 218.139,-36.5 212.139,-36.5 212.139,-36.5 132.514,-36.5 132.514,-36.5 126.514,-36.5 120.514,-30.5 120.514,-24.5 120.514,-24.5 120.514,-12.5 120.514,-12.5 120.514,-6.5 126.514,-0.5 132.514,-0.5"/>
<text text-anchor="start" x="128.514" y="-17.1" font-family="FreeSans" font-size="8.00" fill="#1c2021">Node[72]name = &#39;sink&#39;</text>
</g>
<!-- N71&#45;&gt;N72 -->
<g id="edge2" class="edge"><title>N71&#45;&gt;N72</title>
<path fill="none" stroke="#2e3436" stroke-width="2" d="M172.326,-184.095C172.326,-151.901 172.326,-82.1464 172.326,-44.6126"/>
<polygon fill="#2e3436" stroke="#2e3436" stroke-width="2" points="172.326,-36.6797 175.701,-44.1796 172.826,-40.4297 172.826,-44.1797 172.326,-44.1797 171.826,-44.1797 171.826,-40.4297 168.951,-44.1797 172.326,-36.6797 172.326,-36.6797"/>
<text text-anchor="middle" x="196.557" y="-113.366" font-family="FreeSans" font-size="8.00" fill="#2e3436">CONNECTED</text>
<text text-anchor="start" x="172.326" y="-103.944" font-family="FreeSans" font-size="8.00" fill="#2e3436">capacity = 0</text>
</g>
<!-- N71&#45;&gt;N72 -->
<g id="edge3" class="edge"><title>N71&#45;&gt;N72</title>
<path fill="none" stroke="#2e3436" stroke-width="2" d="M190.531,-184.125C203.576,-170.572 220.071,-150.374 227.326,-128.844 232.577,-113.26 232.577,-107.427 227.326,-91.8438 221.035,-73.1734 207.794,-55.504 195.881,-42.3014"/>
<polygon fill="#2e3436" stroke="#2e3436" stroke-width="2" points="190.531,-36.5622 198.114,-39.7466 193.454,-38.9642 196.011,-41.7071 195.645,-42.0481 195.279,-42.389 192.722,-39.6461 193.177,-44.3495 190.531,-36.5622 190.531,-36.5622"/>
<text text-anchor="middle" x="254.557" y="-113.366" font-family="FreeSans" font-size="8.00" fill="#2e3436">CONNECTED</text>
<text text-anchor="start" x="230.326" y="-103.944" font-family="FreeSans" font-size="8.00" fill="#2e3436">capacity = 0</text>
</g>
<!-- N73&#45;&gt;N72 -->
<g id="edge4" class="edge"><title>N73&#45;&gt;N72</title>
<path fill="none" stroke="#2e3436" stroke-width="2" d="M68.44,-92.3094C76.6389,-80.7122 88.6325,-65.6019 101.865,-55 108.713,-49.5133 116.547,-44.5495 124.443,-40.1906"/>
<polygon fill="#2e3436" stroke="#2e3436" stroke-width="2" points="131.07,-36.6731 126.028,-43.1703 127.992,-38.8728 124.68,-40.6308 124.446,-40.1892 124.211,-39.7475 127.524,-37.9895 122.863,-37.208 131.07,-36.6731 131.07,-36.6731"/>
<text text-anchor="middle" x="126.557" y="-67.4437" font-family="FreeSans" font-size="8.00" fill="#2e3436">CONNECTED</text>
<text text-anchor="start" x="102.326" y="-58.0219" font-family="FreeSans" font-size="8.00" fill="#2e3436">capacity = 2</text>
</g>
</g>
</svg>
