<?xml version="1.0" encoding="UTF-8" standalone="no"?>
<!DOCTYPE svg PUBLIC "-//W3C//DTD SVG 1.1//EN"
 "http://www.w3.org/Graphics/SVG/1.1/DTD/svg11.dtd">
<!-- Generated by graphviz version 2.30.1 (20130318.1259)
 -->
<!-- Title: g Pages: 1 -->
<svg width="80pt" height="218pt"
 viewBox="0.00 0.00 80.00 218.00" xmlns="http://www.w3.org/2000/svg" xmlns:xlink="http://www.w3.org/1999/xlink">
<g id="graph0" class="graph" transform="scale(1 1) rotate(0) translate(4 214)">
<title>g</title>
<polygon fill="white" stroke="white" points="-4,5 -4,-214 77,-214 77,5 -4,5"/>
<!-- N43 -->
<g id="node1" class="node"><title>N43</title>
<path fill="#ffffff" stroke="#2e3436" stroke-width="1.5" d="M15.959,-173C15.959,-173 56.041,-173 56.041,-173 62.041,-173 68.041,-179 68.041,-185 68.041,-185 68.041,-197 68.041,-197 68.041,-203 62.041,-209 56.041,-209 56.041,-209 15.959,-209 15.959,-209 9.95898,-209 3.95898,-203 3.95898,-197 3.95898,-197 3.95898,-185 3.95898,-185 3.95898,-179 9.95898,-173 15.959,-173"/>
<text text-anchor="start" x="11.959" y="-188.653" font-family="FreeSans" font-size="8.00" fill="#1c2021">name = &#39;Ian&#39;</text>
</g>
<!-- N44 -->
<g id="node2" class="node"><title>N44</title>
<path fill="#ffffff" stroke="#2e3436" stroke-width="1.5" d="M12.002,-87C12.002,-87 59.998,-87 59.998,-87 65.998,-87 71.998,-93 71.998,-99 71.998,-99 71.998,-111 71.998,-111 71.998,-117 65.998,-123 59.998,-123 59.998,-123 12.002,-123 12.002,-123 6.00195,-123 0.00195312,-117 0.00195312,-111 0.00195312,-111 0.00195312,-99 0.00195312,-99 0.00195312,-93 6.00195,-87 12.002,-87"/>
<text text-anchor="start" x="8.00195" y="-102.653" font-family="FreeSans" font-size="8.00" fill="#1c2021">name = &#39;Peter&#39;</text>
</g>
<!-- N43&#45;&gt;N44 -->
<g id="edge1" class="edge"><title>N43&#45;&gt;N44</title>
<path fill="none" stroke="#2e3436" stroke-width="2" d="M17.1813,-172.979C12.3358,-167.455 7.76802,-160.944 5.20312,-154 2.04049,-145.438 5.14928,-136.818 10.4229,-129.292"/>
<polygon fill="#2e3436" stroke="#2e3436" points="15.2717,-123.253 13.2078,-131.214 13.3138,-126.49 10.966,-129.414 10.5761,-129.101 10.1862,-128.788 12.534,-125.864 7.94439,-126.988 15.2717,-123.253 15.2717,-123.253"/>
<text text-anchor="middle" x="18.3984" y="-145.653" font-family="FreeSans" font-size="8.00" fill="#2e3436">knows</text>
</g>
<!-- N44&#45;&gt;N43 -->
<g id="edge2" class="edge"><title>N44&#45;&gt;N43</title>
<path fill="none" stroke="#2e3436" stroke-width="2" d="M36,-123.095C36,-135.154 36,-151.501 36,-165.018"/>
<polygon fill="#2e3436" stroke="#2e3436" points="36,-172.595 32.6251,-165.095 35.5,-168.845 35.5001,-165.095 36.0001,-165.095 36.5001,-165.095 36.5,-168.845 39.3751,-165.095 36,-172.595 36,-172.595"/>
<text text-anchor="middle" x="48.3984" y="-145.653" font-family="FreeSans" font-size="8.00" fill="#2e3436">knows</text>
</g>
<!-- N45 -->
<g id="node3" class="node"><title>N45</title>
<path fill="#ffffff" stroke="#2e3436" stroke-width="1.5" d="M11.7402,-1C11.7402,-1 60.2598,-1 60.2598,-1 66.2598,-1 72.2598,-7 72.2598,-13 72.2598,-13 72.2598,-25 72.2598,-25 72.2598,-31 66.2598,-37 60.2598,-37 60.2598,-37 11.7402,-37 11.7402,-37 5.74023,-37 -0.259766,-31 -0.259766,-25 -0.259766,-25 -0.259766,-13 -0.259766,-13 -0.259766,-7 5.74023,-1 11.7402,-1"/>
<text text-anchor="start" x="7.74023" y="-16.6531" font-family="FreeSans" font-size="8.00" fill="#1c2021">name = &#39;Bikes&#39;</text>
</g>
<!-- N44&#45;&gt;N45 -->
<g id="edge3" class="edge"><title>N44&#45;&gt;N45</title>
<path fill="none" stroke="#4e9a06" stroke-width="2" d="M36,-86.5951C36,-74.4635 36,-58.1048 36,-44.637"/>
<polygon fill="#4e9a06" stroke="#4e9a06" points="36,-37.0952 39.3751,-44.5951 36.5,-40.8451 36.5001,-44.5951 36.0001,-44.5952 35.5001,-44.5952 35.5,-40.8452 32.6251,-44.5952 36,-37.0952 36,-37.0952"/>
<text text-anchor="middle" x="44.918" y="-59.6531" font-family="FreeSans" font-size="8.00" fill="#4e9a06">likes</text>
</g>
</g>
</svg>
