<?xml version="1.0" encoding="UTF-8" standalone="no"?>
<!DOCTYPE svg PUBLIC "-//W3C//DTD SVG 1.1//EN"
 "http://www.w3.org/Graphics/SVG/1.1/DTD/svg11.dtd">
<!-- Generated by graphviz version 2.30.1 (20130318.1259)
 -->
<!-- Title: g Pages: 1 -->
<svg width="253pt" height="242pt"
 viewBox="0.00 0.00 252.83 242.00" xmlns="http://www.w3.org/2000/svg" xmlns:xlink="http://www.w3.org/1999/xlink">
<g id="graph0" class="graph" transform="scale(1 1) rotate(0) translate(4 238)">
<title>g</title>
<polygon fill="white" stroke="white" points="-4,5 -4,-238 249.828,-238 249.828,5 -4,5"/>
<!-- N72 -->
<g id="node1" class="node"><title>N72</title>
<path fill="#ffffff" stroke="#2e3436" stroke-width="1.5" d="M109.91,-197C109.91,-197 164.09,-197 164.09,-197 170.09,-197 176.09,-203 176.09,-209 176.09,-209 176.09,-221 176.09,-221 176.09,-227 170.09,-233 164.09,-233 164.09,-233 109.91,-233 109.91,-233 103.91,-233 97.9102,-227 97.9102,-221 97.9102,-221 97.9102,-209 97.9102,-209 97.9102,-203 103.91,-197 109.91,-197"/>
<text text-anchor="start" x="105.91" y="-212.653" font-family="FreeSans" font-size="8.00" fill="#1c2021">name = &#39;source&#39;</text>
</g>
<!-- N74 -->
<g id="node2" class="node"><title>N74</title>
<path fill="#ffffff" stroke="#2e3436" stroke-width="1.5" d="M11.4922,-99C11.4922,-99 66.5078,-99 66.5078,-99 72.5078,-99 78.5078,-105 78.5078,-111 78.5078,-111 78.5078,-123 78.5078,-123 78.5078,-129 72.5078,-135 66.5078,-135 66.5078,-135 11.4922,-135 11.4922,-135 5.49219,-135 -0.507812,-129 -0.507812,-123 -0.507812,-123 -0.507812,-111 -0.507812,-111 -0.507812,-105 5.49219,-99 11.4922,-99"/>
<text text-anchor="start" x="7.49219" y="-114.653" font-family="FreeSans" font-size="8.00" fill="#1c2021">name = &#39;middle&#39;</text>
</g>
<!-- N72&#45;&gt;N74 -->
<g id="edge1" class="edge"><title>N72&#45;&gt;N74</title>
<path fill="none" stroke="#2e3436" stroke-width="2" d="M97.8362,-199.9C86.5548,-194.402 74.941,-187.173 66.1719,-178 56.6181,-168.006 50.0277,-154.069 45.7326,-142.142"/>
<polygon fill="#2e3436" stroke="#2e3436" points="43.349,-135.029 48.9322,-141.068 45.0147,-138.426 46.2062,-141.982 45.7322,-142.141 45.2581,-142.299 44.0665,-138.744 42.5321,-143.213 43.349,-135.029 43.349,-135.029"/>
<text text-anchor="middle" x="91.4141" y="-169.306" font-family="FreeSans" font-size="8.00" fill="#2e3436">CONNECTED</text>
<text text-anchor="start" x="67" y="-158" font-family="FreeSans" font-size="8.00" fill="#2e3436">capacity = 1</text>
</g>
<!-- N73 -->
<g id="node3" class="node"><title>N73</title>
<path fill="#ffffff" stroke="#2e3436" stroke-width="1.5" d="M114.787,-1C114.787,-1 159.213,-1 159.213,-1 165.213,-1 171.213,-7 171.213,-13 171.213,-13 171.213,-25 171.213,-25 171.213,-31 165.213,-37 159.213,-37 159.213,-37 114.787,-37 114.787,-37 108.787,-37 102.787,-31 102.787,-25 102.787,-25 102.787,-13 102.787,-13 102.787,-7 108.787,-1 114.787,-1"/>
<text text-anchor="start" x="110.787" y="-16.6531" font-family="FreeSans" font-size="8.00" fill="#1c2021">name = &#39;sink&#39;</text>
</g>
<!-- N72&#45;&gt;N73 -->
<g id="edge2" class="edge"><title>N72&#45;&gt;N73</title>
<path fill="none" stroke="#2e3436" stroke-width="2" d="M137,-196.784C137,-162.342 137,-84.841 137,-44.8766"/>
<polygon fill="#2e3436" stroke="#2e3436" points="137,-37.1776 140.375,-44.6776 137.5,-40.9276 137.5,-44.6776 137,-44.6776 136.5,-44.6776 136.5,-40.9276 133.625,-44.6777 137,-37.1776 137,-37.1776"/>
<text text-anchor="middle" x="161.414" y="-120.306" font-family="FreeSans" font-size="8.00" fill="#2e3436">CONNECTED</text>
<text text-anchor="start" x="137" y="-109" font-family="FreeSans" font-size="8.00" fill="#2e3436">capacity = 1</text>
</g>
<!-- N72&#45;&gt;N73 -->
<g id="edge3" class="edge"><title>N72&#45;&gt;N73</title>
<path fill="none" stroke="#2e3436" stroke-width="2" d="M153.882,-196.845C167.13,-182.096 184.537,-159.534 192,-136 197.105,-119.901 197.105,-114.099 192,-98 185.47,-77.4079 171.326,-57.5596 159.017,-43.0384"/>
<polygon fill="#2e3436" stroke="#2e3436" points="153.882,-37.1545 161.356,-40.5858 156.724,-39.651 159.19,-42.4763 158.814,-42.8051 158.437,-43.1339 155.971,-40.3086 156.271,-45.0244 153.882,-37.1545 153.882,-37.1545"/>
<text text-anchor="middle" x="220.414" y="-120.306" font-family="FreeSans" font-size="8.00" fill="#2e3436">CONNECTED</text>
<text text-anchor="start" x="196" y="-109" font-family="FreeSans" font-size="8.00" fill="#2e3436">capacity = 2</text>
</g>
<!-- N74&#45;&gt;N73 -->
<g id="edge4" class="edge"><title>N74&#45;&gt;N73</title>
<path fill="none" stroke="#2e3436" stroke-width="2" d="M43.349,-98.9708C47.4198,-85.8863 54.6353,-68.0679 66.1719,-56 74.3818,-47.412 85.0851,-40.5276 95.6746,-35.1727"/>
<polygon fill="#2e3436" stroke="#2e3436" points="102.59,-31.8721 97.2749,-38.1487 99.4207,-33.9387 96.0364,-35.5541 95.8211,-35.1029 95.6057,-34.6516 98.9899,-33.0363 94.3672,-32.057 102.59,-31.8721 102.59,-31.8721"/>
<text text-anchor="middle" x="91.4141" y="-71.3063" font-family="FreeSans" font-size="8.00" fill="#2e3436">CONNECTED</text>
<text text-anchor="start" x="67" y="-60" font-family="FreeSans" font-size="8.00" fill="#2e3436">capacity = 3</text>
</g>
</g>
</svg>
