<?xml version="1.0" encoding="UTF-8" standalone="no"?>
<!DOCTYPE svg PUBLIC "-//W3C//DTD SVG 1.1//EN"
 "http://www.w3.org/Graphics/SVG/1.1/DTD/svg11.dtd">
<!-- Generated by graphviz version 2.38.0 (20140413.2041)
 -->
<!-- Title: g Pages: 1 -->
<svg width="80pt" height="210pt"
 viewBox="0.00 0.00 80.08 209.84" xmlns="http://www.w3.org/2000/svg" xmlns:xlink="http://www.w3.org/1999/xlink">
<g id="graph0" class="graph" transform="scale(1 1) rotate(0) translate(4 205.844)">
<title>g</title>
<polygon fill="white" stroke="none" points="-4,4 -4,-205.844 76.082,-205.844 76.082,4 -4,4"/>
<!-- N42 -->
<g id="node1" class="node"><title>N42</title>
<path fill="#ffffff" stroke="#2e3436" stroke-width="1.5" d="M16,-165.344C16,-165.344 56.082,-165.344 56.082,-165.344 62.082,-165.344 68.082,-171.344 68.082,-177.344 68.082,-177.344 68.082,-189.344 68.082,-189.344 68.082,-195.344 62.082,-201.344 56.082,-201.344 56.082,-201.344 16,-201.344 16,-201.344 10,-201.344 4,-195.344 4,-189.344 4,-189.344 4,-177.344 4,-177.344 4,-171.344 10,-165.344 16,-165.344"/>
<text text-anchor="start" x="12" y="-181.655" font-family="FreeSans" font-size="8.00" fill="#1c2021">name = &#39;Ian&#39;</text>
</g>
<!-- N43 -->
<g id="node2" class="node"><title>N43</title>
<path fill="#ffffff" stroke="#2e3436" stroke-width="1.5" d="M12.0625,-82.9219C12.0625,-82.9219 60.0195,-82.9219 60.0195,-82.9219 66.0195,-82.9219 72.0195,-88.9219 72.0195,-94.9219 72.0195,-94.9219 72.0195,-106.922 72.0195,-106.922 72.0195,-112.922 66.0195,-118.922 60.0195,-118.922 60.0195,-118.922 12.0625,-118.922 12.0625,-118.922 6.0625,-118.922 0.0625,-112.922 0.0625,-106.922 0.0625,-106.922 0.0625,-94.9219 0.0625,-94.9219 0.0625,-88.9219 6.0625,-82.9219 12.0625,-82.9219"/>
<text text-anchor="start" x="8.0625" y="-99.2328" font-family="FreeSans" font-size="8.00" fill="#1c2021">name = &#39;Peter&#39;</text>
</g>
<!-- N42&#45;&gt;N43 -->
<g id="edge1" class="edge"><title>N42&#45;&gt;N43</title>
<path fill="none" stroke="#2e3436" stroke-width="2" d="M16.5623,-165.288C11.7519,-159.922 7.2465,-153.612 4.68555,-146.844 1.79925,-139.216 4.36459,-131.658 9.05324,-124.979"/>
<polygon fill="#2e3436" stroke="#2e3436" stroke-width="2" points="13.8606,-119.115 11.7154,-127.055 11.8697,-122.332 9.49207,-125.232 9.10541,-124.915 8.71875,-124.598 11.0963,-121.698 6.49546,-122.775 13.8606,-119.115 13.8606,-119.115"/>
<text text-anchor="middle" x="17.2188" y="-140.444" font-family="FreeSans" font-size="8.00" fill="#2e3436">knows</text>
</g>
<!-- N43&#45;&gt;N42 -->
<g id="edge2" class="edge"><title>N43&#45;&gt;N42</title>
<path fill="none" stroke="#2e3436" stroke-width="2" d="M36.041,-118.953C36.041,-130.143 36.041,-144.97 36.041,-157.471"/>
<polygon fill="#2e3436" stroke="#2e3436" stroke-width="2" points="36.041,-165.288 32.6661,-157.788 35.5411,-161.538 35.5411,-157.788 36.0411,-157.788 36.5411,-157.788 36.5411,-161.538 39.4161,-157.788 36.041,-165.288 36.041,-165.288"/>
<text text-anchor="middle" x="48.2188" y="-140.444" font-family="FreeSans" font-size="8.00" fill="#2e3436">knows</text>
</g>
<!-- N44 -->
<g id="node3" class="node"><title>N44</title>
<path fill="#ffffff" stroke="#2e3436" stroke-width="1.5" d="M12,-0.5C12,-0.5 60.082,-0.5 60.082,-0.5 66.082,-0.5 72.082,-6.5 72.082,-12.5 72.082,-12.5 72.082,-24.5 72.082,-24.5 72.082,-30.5 66.082,-36.5 60.082,-36.5 60.082,-36.5 12,-36.5 12,-36.5 6,-36.5 0,-30.5 0,-24.5 0,-24.5 0,-12.5 0,-12.5 0,-6.5 6,-0.5 12,-0.5"/>
<text text-anchor="start" x="8" y="-16.8109" font-family="FreeSans" font-size="8.00" fill="#1c2021">name = &#39;Bikes&#39;</text>
</g>
<!-- N43&#45;&gt;N44 -->
<g id="edge3" class="edge"><title>N43&#45;&gt;N44</title>
<path fill="none" stroke="#4e9a06" stroke-width="2" d="M36.041,-82.8665C36.041,-71.671 36.041,-56.8427 36.041,-44.3452"/>
<polygon fill="#4e9a06" stroke="#4e9a06" stroke-width="2" points="36.041,-36.5308 39.4161,-44.0308 36.5411,-40.2808 36.5411,-44.0308 36.0411,-44.0308 35.5411,-44.0308 35.5411,-40.2808 32.6661,-44.0309 36.041,-36.5308 36.041,-36.5308"/>
<text text-anchor="middle" x="44.7402" y="-58.0219" font-family="FreeSans" font-size="8.00" fill="#4e9a06">likes</text>
</g>
</g>
</svg>
