<?xml version="1.0" encoding="UTF-8" standalone="no"?>
<!DOCTYPE svg PUBLIC "-//W3C//DTD SVG 1.1//EN"
 "http://www.w3.org/Graphics/SVG/1.1/DTD/svg11.dtd">
<!-- Generated by graphviz version 2.38.0 (20140413.2041)
 -->
<!-- Title: g Pages: 1 -->
<svg width="253pt" height="229pt"
 viewBox="0.00 0.00 252.97 228.69" xmlns="http://www.w3.org/2000/svg" xmlns:xlink="http://www.w3.org/1999/xlink">
<g id="graph0" class="graph" transform="scale(1 1) rotate(0) translate(4 224.688)">
<title>g</title>
<polygon fill="white" stroke="none" points="-4,4 -4,-224.688 248.969,-224.688 248.969,4 -4,4"/>
<!-- N71 -->
<g id="node1" class="node"><title>N71</title>
<path fill="#ffffff" stroke="#2e3436" stroke-width="1.5" d="M110.607,-184.188C110.607,-184.188 164.408,-184.188 164.408,-184.188 170.408,-184.188 176.408,-190.188 176.408,-196.188 176.408,-196.188 176.408,-208.188 176.408,-208.188 176.408,-214.188 170.408,-220.188 164.408,-220.188 164.408,-220.188 110.607,-220.188 110.607,-220.188 104.607,-220.188 98.6074,-214.188 98.6074,-208.188 98.6074,-208.188 98.6074,-196.188 98.6074,-196.188 98.6074,-190.188 104.607,-184.188 110.607,-184.188"/>
<text text-anchor="start" x="106.607" y="-200.498" font-family="FreeSans" font-size="8.00" fill="#1c2021">name = &#39;source&#39;</text>
</g>
<!-- N73 -->
<g id="node2" class="node"><title>N73</title>
<path fill="#ffffff" stroke="#2e3436" stroke-width="1.5" d="M12,-92.3438C12,-92.3438 67.0156,-92.3438 67.0156,-92.3438 73.0156,-92.3438 79.0156,-98.3438 79.0156,-104.344 79.0156,-104.344 79.0156,-116.344 79.0156,-116.344 79.0156,-122.344 73.0156,-128.344 67.0156,-128.344 67.0156,-128.344 12,-128.344 12,-128.344 6,-128.344 0,-122.344 0,-116.344 0,-116.344 0,-104.344 0,-104.344 0,-98.3438 6,-92.3438 12,-92.3438"/>
<text text-anchor="start" x="8" y="-108.655" font-family="FreeSans" font-size="8.00" fill="#1c2021">name = &#39;middle&#39;</text>
</g>
<!-- N71&#45;&gt;N73 -->
<g id="edge1" class="edge"><title>N71&#45;&gt;N73</title>
<path fill="none" stroke="#2e3436" stroke-width="2" d="M98.4245,-186.927C87.3252,-181.522 75.8712,-174.491 67.0469,-165.688 58.6717,-157.332 52.3579,-145.904 47.903,-135.683"/>
<polygon fill="#2e3436" stroke="#2e3436" stroke-width="2" points="44.9847,-128.515 50.9388,-134.189 46.8619,-131.799 48.276,-135.273 47.8129,-135.461 47.3498,-135.65 45.9357,-132.177 44.687,-136.734 44.9847,-128.515 44.9847,-128.515"/>
<text text-anchor="middle" x="91.7383" y="-159.287" font-family="FreeSans" font-size="8.00" fill="#2e3436">CONNECTED</text>
<text text-anchor="start" x="67.5078" y="-149.866" font-family="FreeSans" font-size="8.00" fill="#2e3436">capacity = 1</text>
</g>
<!-- N72 -->
<g id="node3" class="node"><title>N72</title>
<path fill="#ffffff" stroke="#2e3436" stroke-width="1.5" d="M115.514,-0.5C115.514,-0.5 159.502,-0.5 159.502,-0.5 165.502,-0.5 171.502,-6.5 171.502,-12.5 171.502,-12.5 171.502,-24.5 171.502,-24.5 171.502,-30.5 165.502,-36.5 159.502,-36.5 159.502,-36.5 115.514,-36.5 115.514,-36.5 109.514,-36.5 103.514,-30.5 103.514,-24.5 103.514,-24.5 103.514,-12.5 103.514,-12.5 103.514,-6.5 109.514,-0.5 115.514,-0.5"/>
<text text-anchor="start" x="111.514" y="-16.8109" font-family="FreeSans" font-size="8.00" fill="#1c2021">name = &#39;sink&#39;</text>
</g>
<!-- N71&#45;&gt;N72 -->
<g id="edge2" class="edge"><title>N71&#45;&gt;N72</title>
<path fill="none" stroke="#2e3436" stroke-width="2" d="M137.508,-184.095C137.508,-151.901 137.508,-82.1464 137.508,-44.6126"/>
<polygon fill="#2e3436" stroke="#2e3436" stroke-width="2" points="137.508,-36.6797 140.883,-44.1796 138.008,-40.4297 138.008,-44.1797 137.508,-44.1797 137.008,-44.1797 137.008,-40.4297 134.133,-44.1797 137.508,-36.6797 137.508,-36.6797"/>
<text text-anchor="middle" x="161.738" y="-113.366" font-family="FreeSans" font-size="8.00" fill="#2e3436">CONNECTED</text>
<text text-anchor="start" x="137.508" y="-103.944" font-family="FreeSans" font-size="8.00" fill="#2e3436">capacity = 1</text>
</g>
<!-- N71&#45;&gt;N72 -->
<g id="edge3" class="edge"><title>N71&#45;&gt;N72</title>
<path fill="none" stroke="#2e3436" stroke-width="2" d="M155.713,-184.125C168.757,-170.572 185.253,-150.374 192.508,-128.844 197.759,-113.26 197.759,-107.427 192.508,-91.8438 186.217,-73.1734 172.976,-55.504 161.063,-42.3014"/>
<polygon fill="#2e3436" stroke="#2e3436" stroke-width="2" points="155.713,-36.5622 163.295,-39.7466 158.635,-38.9642 161.193,-41.7071 160.827,-42.0481 160.461,-42.389 157.904,-39.6461 158.358,-44.3495 155.713,-36.5622 155.713,-36.5622"/>
<text text-anchor="middle" x="220.738" y="-113.366" font-family="FreeSans" font-size="8.00" fill="#2e3436">CONNECTED</text>
<text text-anchor="start" x="196.508" y="-103.944" font-family="FreeSans" font-size="8.00" fill="#2e3436">capacity = 2</text>
</g>
<!-- N73&#45;&gt;N72 -->
<g id="edge4" class="edge"><title>N73&#45;&gt;N72</title>
<path fill="none" stroke="#2e3436" stroke-width="2" d="M44.9847,-92.1727C49.4144,-80.5127 56.6389,-65.3837 67.0469,-55 75.3992,-46.6672 86.1075,-39.9229 96.6409,-34.6415"/>
<polygon fill="#2e3436" stroke="#2e3436" stroke-width="2" points="103.511,-31.3802 98.1832,-37.6455 100.338,-33.4401 96.9502,-35.0483 96.7358,-34.5966 96.5214,-34.1449 99.909,-32.5367 95.2884,-31.5477 103.511,-31.3802 103.511,-31.3802"/>
<text text-anchor="middle" x="91.7383" y="-67.4437" font-family="FreeSans" font-size="8.00" fill="#2e3436">CONNECTED</text>
<text text-anchor="start" x="67.5078" y="-58.0219" font-family="FreeSans" font-size="8.00" fill="#2e3436">capacity = 3</text>
</g>
</g>
</svg>
